<svg id="ee83be19-a8e4-4db1-a368-1802f272ccba" data-name="Layer 1" xmlns="http://www.w3.org/2000/svg" width="72" height="48" viewBox="0 0 72 48"><title>flow-direction-w</title><path d="M43,44.5c0-2.7,3.8-2.7,3.8-5.4S43,36.4,43,33.6s3.8-2.7,3.8-5.4S43,25.5,43,22.8s3.8-2.7,3.8-5.5S43,14.6,43,11.9" fill="none" stroke="#59a9db" stroke-miterlimit="10" stroke-width="3"/><line x1="43" y1="11.9" x2="43" y2="10" fill="none" stroke="#59a9db" stroke-miterlimit="10" stroke-width="3"/><polygon points="47.4 11.3 43 3.5 38.5 11.3 47.4 11.3" fill="#59a9db"/><g style="isolation:isolate"><path d="M5.3,29.1,2.2,17.3H4.8l2.3,9.6h.1l2.2-7.2-.7-2.4h2.5L14,26.9h.1l2.2-9.6h2.4L15.6,29.1H12.4l-1.9-6.6h-.1l-2,6.6Z" fill="#154273"/></g></svg>