<svg id="e55bc9ae-0264-4eb9-8880-19d26db4e51e" data-name="Layer 1" xmlns="http://www.w3.org/2000/svg" viewBox="0 0 96 24">
  <title>afvaart-omlaag</title>
  <g>
    <g>
      <path d="M30.8,9.2l-.5,6H29v-.9H29a2.1,2.1,0,0,1-1.8,1c-.8,0-1.4-.6-1.4-2.1s1.5-4,3.2-4h1.8Zm-1.4,1.2h-.6c-.8,0-1.6.8-1.6,2.8s.3,1,.6,1,.9-.4,1.3-1.1Z" fill="#6f1113"/>
      <path d="M35,9.3v1H33.7l-.6,7.2H31.7l.6-7.2h-.6v-1h.8V8.8a2,2,0,0,1,2.3-2h.9V8h-.9a1,1,0,0,0-.9.9v.5Z" fill="#6f1113"/>
      <path d="M35.1,9.3H36l.8,5.1h0l.4-.6a14.3,14.3,0,0,0,1.3-4.5h.9A18.5,18.5,0,0,1,37.8,14l-.6,1.2H36.1Z" fill="#6f1113"/>
      <path d="M44.3,9.2l-.6,6h-.8v-.9h-.1a2.1,2.1,0,0,1-1.7,1c-.8,0-1.4-.5-1.4-2s1.4-4.1,2.8-4.1h1.7Zm-1,.8h-.7c-.9,0-1.9,1.1-1.9,3.2s.3,1.3.8,1.3A2,2,0,0,0,43,13.4Z" fill="#6f1113"/>
      <path d="M49.8,9.2l-.6,6h-.8v-.9h0a2.4,2.4,0,0,1-1.8,1c-.8,0-1.3-.5-1.3-2s1.3-4.1,2.8-4.1h1.6Zm-1,.8h-.7c-.9,0-1.9,1.1-1.9,3.2s.4,1.3.8,1.3a2,2,0,0,0,1.5-1.1Z" fill="#6f1113"/>
      <path d="M53.9,10.2h-.4c-.4,0-.9.5-1.4,1.2l-.3,3.9h-.9l.5-5.8h.9v1.1h0c.6-1,.9-1.2,1.4-1.2H54Z" fill="#6f1113"/>
      <path d="M54.3,9.3H55V8.1H56V9.3h1.2V10H55.8l-.4,3.5c0,.8.2,1,.6,1h.8v.7a2,2,0,0,1-1.1.2c-.8,0-1.2-.5-1.1-1.8l.3-3.5h-.6Z" fill="#6f1113"/>
    </g>
    <g>
      <polygon points="68 0 66.8 19.8 66.3 19.8 65 0 68 0" fill="#6f1113"/>
      <polygon points="66.5 24 64.1 18 66.5 19.4 69 18 66.5 24" fill="#6f1113"/>
    </g>
  </g>
</svg>
