<svg data-name="Layer 1" height="480" viewBox="0 0 240 480" width="240" xmlns="http://www.w3.org/2000/svg">
    <title>
        bascule-overtrokken-B
    </title>
    <path fill="none" stroke="#d1c1be" stroke-miterlimit="10" stroke-width="3" d="M214.5 60.7v192h-21v-24l12-168V50.2h9v10.5zM12 254.2h204M216 275.2h-24l-168-12H12"/>
    <circle cx="216" cy="256.7" fill="#673327" r="6"/>
    <path fill="#999" d="M0 276h24v144H0zM216 276h24v144h-24z"/>
    <path fill="#373737" d="M0 276h24v-12H12v-12H0v24zM216 252h24v24h-24z"/>
    <g fill="#7dcef1">
        <path d="M55.1 399.8l4.1-3 4 3c2.2 1.7 9.8 6.3 16.2 6.3s13.9-4.5 16.2-6.3l4-3 4.1 3c2.1 1.7 9.7 6.3 16.2 6.3s13.8-4.5 16.1-6.3l4.1-3 4 3c2.2 1.7 9.8 6.3 16.2 6.3s13.8-4.5 16.2-6.3l4-3 4.1 3c2.1 1.7 9.7 6.3 16.1 6.3a24.8 24.8 0 0 0 10.3-2.8v14.2a34.7 34.7 0 0 1-10.3 1.7c-8 0-15.7-3.6-20.2-6.2-4.5 2.6-12.1 6.2-20.2 6.2s-15.7-3.6-20.2-6.2c-4.5 2.6-12.2 6.2-20.2 6.2s-15.8-3.6-20.3-6.2c-4.5 2.6-12.1 6.2-20.2 6.2s-15.7-3.6-20.2-6.2c-4.5 2.6-12.2 6.2-20.2 6.2a32.7 32.7 0 0 1-10-1.6v-14.2c3 1.4 6.7 2.7 10 2.7 6.3 0 13.8-4.5 16.1-6.3zM55.1 369.5l4.1-3 4 3c2.2 1.6 9.8 6.2 16.2 6.2s13.9-4.5 16.2-6.2l4-3 4.1 3c2.1 1.6 9.7 6.2 16.2 6.2s13.8-4.5 16.1-6.2l4.1-3 4 3c2.2 1.6 9.8 6.2 16.2 6.2s13.8-4.5 16.2-6.2l4-3 4.1 3c2.1 1.6 9.7 6.2 16.1 6.2a24.8 24.8 0 0 0 10.3-2.8v14.3a34.7 34.7 0 0 1-10.3 1.7c-8 0-15.7-3.6-20.2-6.3-4.5 2.7-12.1 6.3-20.2 6.3s-15.7-3.6-20.2-6.3c-4.5 2.7-12.2 6.3-20.2 6.3s-15.8-3.6-20.3-6.3c-4.5 2.7-12.1 6.3-20.2 6.3s-15.7-3.6-20.2-6.3c-4.5 2.7-12.2 6.3-20.2 6.3a36.1 36.1 0 0 1-10-1.6v-14.2a25.1 25.1 0 0 0 10 2.6c6.3 0 13.8-4.5 16.1-6.2z"/>
    </g>
    <path fill="#673327" d="M80.2 117L216 252.7l-17 17-16.9-17L71.8 125.4l-8.5-8.4 8.5-8.5 8.4 8.5z"/>
    <path d="M78.3 166.7l3.5-29.7-27.5 11.8 8 6a181.7 181.7 0 0 0-26.6 71.7l-10.1-.7 13.2 26.9 16.7-24.8-9.8-.7a172.2 172.2 0 0 1 24.6-66.4zM180.8 93.7l23.6-18.3-27.6-11.3 1.3 9.9a183.8 183.8 0 0 0-71.4 32.4l-6.6-7.6-9.7 28.3 29.3-5.7-6.4-7.5a173.8 173.8 0 0 1 66.2-30z" fill="#d1c1be"/>
    <text font-family="RijksoverheidSansWebText-Bold, RijksoverheidSansWebText, sans-serif" font-size="24" font-weight="700" text-anchor="middle" x="120" y="465"/>
</svg>
