<svg data-name="Layer 1" height="480" id="73051eb2-ae2a-46f3-ae07-bc39e3bb6927" viewBox="0 0 240 480" width="240"
     xmlns="http://www.w3.org/2000/svg">
    <title>bascule-overtrokken-A</title>
    <polygon fill="none" points="25.5 60.7 25.5 252.7 46.5 252.7 46.5 228.7 34.5 60.7 34.5 50.2 25.5 50.2 25.5 60.7"
             stroke="#d1c1be" stroke-miterlimit="10" stroke-width="3"/>
    <polyline fill="none" points="228 254.2 216 254.2 24 254.2" stroke="#d1c1be" stroke-miterlimit="10"
              stroke-width="3"/>
    <polyline fill="none" points="24 275.2 48 275.2 216 263.2 228 263.2" stroke="#d1c1be" stroke-miterlimit="10"
              stroke-width="3"/>
    <circle cx="24" cy="256.7" fill="#673327" r="6"/>
    <rect fill="#999" height="144" width="24" x="216" y="276"/>
    <rect fill="#999" height="144" width="24" y="276"/>
    <polygon fill="#373737" points="240 276 228 276 216 276 216 264 228 264 228 252 240 252 240 264 240 276"/>
    <rect fill="#373737" height="24" width="24" y="252"/>
    <polygon fill="#673327"
             points="159.8 117 24 252.7 41 269.7 57.9 252.7 168.3 125.4 176.7 117 168.3 108.5 159.8 117"/>
    <path d="M204.3,226.5a181.7,181.7,0,0,0-26.6-71.7l8-6L158.2,137l3.5,29.7,8-5.9a172.2,172.2,0,0,1,24.6,66.4l-9.8.7,16.7,24.8,13.2-26.9Z"
          fill="#d1c1be"/>
    <path d="M149.6,127.1l-9.7-28.3-6.6,7.6A183.8,183.8,0,0,0,61.9,74l1.3-9.9L35.6,75.4,59.2,93.7l1.3-9.8a173.8,173.8,0,0,1,66.2,30l-6.4,7.5Z"
          fill="#d1c1be"/>
    <g>
        <path d="M184.9,395.4l-4.1-3.1-4,3.1c-2.2,1.6-9.8,6.2-16.2,6.2s-13.9-4.5-16.2-6.2l-4-3.1-4.1,3.1c-2.1,1.6-9.7,6.2-16.2,6.2s-13.8-4.5-16.1-6.2l-4.1-3.1-4,3.1c-2.2,1.6-9.8,6.2-16.2,6.2s-13.8-4.5-16.2-6.2l-4-3.1-4.1,3.1c-2.1,1.6-9.7,6.2-16.1,6.2A24.8,24.8,0,0,1,29,398.8V413a34.8,34.8,0,0,0,10.3,1.8c8,0,15.7-3.7,20.2-6.3,4.5,2.6,12.1,6.3,20.2,6.3s15.7-3.7,20.2-6.3c4.5,2.6,12.2,6.3,20.2,6.3s15.8-3.7,20.3-6.3c4.5,2.6,12.1,6.3,20.2,6.3s15.7-3.7,20.2-6.3c4.5,2.6,12.2,6.3,20.2,6.3a32.8,32.8,0,0,0,10-1.7V398.9a23.7,23.7,0,0,1-10,2.7C194.7,401.6,187.2,397.1,184.9,395.4Z"
              fill="#7dcef1"/>
        <path d="M184.9,365l-4.1-3-4,3c-2.2,1.6-9.8,6.3-16.2,6.3s-13.9-4.5-16.2-6.3l-4-3-4.1,3c-2.1,1.6-9.7,6.3-16.2,6.3s-13.8-4.5-16.1-6.3l-4.1-3-4,3c-2.2,1.6-9.8,6.3-16.2,6.3s-13.8-4.5-16.2-6.3l-4-3-4.1,3c-2.1,1.6-9.7,6.3-16.1,6.3-3.5,0-7.2-1.4-10.3-2.8v14.2a34.7,34.7,0,0,0,10.3,1.7c8,0,15.7-3.6,20.2-6.2,4.5,2.6,12.1,6.2,20.2,6.2s15.7-3.6,20.2-6.2c4.5,2.6,12.2,6.2,20.2,6.2s15.8-3.6,20.3-6.2c4.5,2.6,12.1,6.2,20.2,6.2s15.7-3.6,20.2-6.2c4.5,2.6,12.2,6.2,20.2,6.2a32.7,32.7,0,0,0,10-1.6V368.6c-3,1.4-6.7,2.7-10,2.7C194.7,371.3,187.2,366.8,184.9,365Z"
              fill="#7dcef1"/>
    </g>
    <text font-family="RijksoverheidSansWebText-Bold, RijksoverheidSansWebText, sans-serif" font-size="36"
          font-weight="700" text-anchor="middle" x="120" y="465"/>
</svg>