<svg id="d5551893-0324-4eaa-92b9-6630e244ba83" data-name="Layer 1" xmlns="http://www.w3.org/2000/svg" xmlns:xlink="http://www.w3.org/1999/xlink" width="240" height="432" viewBox="0 0 240 432">
  <defs>
    <symbol id="a6a5298e-7fa3-4a33-b1a6-4de57ed5c489" data-name="golven" viewBox="0 0 182 52.8">
      <path d="M155.9,33.4l-4.1-3.1-4,3.1c-2.2,1.6-9.8,6.2-16.2,6.2s-13.9-4.5-16.2-6.2l-4-3.1-4.1,3.1c-2.1,1.6-9.7,6.2-16.2,6.2S77.3,35.1,75,33.4l-4.1-3.1-4,3.1c-2.2,1.6-9.8,6.2-16.2,6.2s-13.8-4.5-16.2-6.2l-4-3.1-4.1,3.1c-2.1,1.6-9.7,6.2-16.1,6.2A24.8,24.8,0,0,1,0,36.8V51a31.8,31.8,0,0,0,10.3,1.8c8,0,15.7-3.6,20.2-6.3,4.5,2.7,12.1,6.3,20.2,6.3s15.7-3.6,20.2-6.3c4.5,2.7,12.2,6.3,20.2,6.3s15.8-3.6,20.3-6.3c4.5,2.7,12.1,6.3,20.2,6.3s15.7-3.6,20.2-6.3c4.5,2.7,12.2,6.3,20.2,6.3a32.8,32.8,0,0,0,10-1.7V37a25.1,25.1,0,0,1-10,2.6C165.7,39.6,158.2,35.1,155.9,33.4Z" fill="#7dcef1"/>
      <path d="M155.9,3l-4.1-3-4,3c-2.2,1.7-9.8,6.3-16.2,6.3S117.7,4.8,115.4,3l-4-3-4.1,3c-2.1,1.7-9.7,6.3-16.2,6.3S77.3,4.8,75,3L70.9,0l-4,3c-2.2,1.7-9.8,6.3-16.2,6.3S36.9,4.8,34.5,3l-4-3L26.4,3c-2.1,1.7-9.7,6.3-16.1,6.3A24.8,24.8,0,0,1,0,6.5V20.7a34.7,34.7,0,0,0,10.3,1.7c8,0,15.7-3.6,20.2-6.2,4.5,2.6,12.1,6.2,20.2,6.2s15.7-3.6,20.2-6.2c4.5,2.6,12.2,6.2,20.2,6.2s15.8-3.6,20.3-6.2c4.5,2.6,12.1,6.2,20.2,6.2s15.7-3.6,20.2-6.2c4.5,2.6,12.2,6.2,20.2,6.2a32.7,32.7,0,0,0,10-1.6V6.6c-3,1.4-6.7,2.7-10,2.7C165.7,9.3,158.2,4.8,155.9,3Z" fill="#7dcef1"/>
    </symbol>
  </defs>
  <title>bascule-overtrokken-B</title>
  <polygon points="214.5 60.7 214.5 252.7 193.5 252.7 193.5 228.7 205.5 60.7 205.5 50.2 214.5 50.2 214.5 60.7" fill="none" stroke="#d1c1be" stroke-miterlimit="10" stroke-width="3"/>
  <polyline points="12 254.2 24 254.2 216 254.2" fill="none" stroke="#d1c1be" stroke-miterlimit="10" stroke-width="3"/>
  <polyline points="216 275.2 192 275.2 24 263.2 12 263.2" fill="none" stroke="#d1c1be" stroke-miterlimit="10" stroke-width="3"/>
  <circle cx="216" cy="256.7" r="6" fill="#673327"/>
  <rect y="276" width="24" height="144" fill="#999"/>
  <rect x="216" y="276" width="24" height="144" fill="#999"/>
  <polygon points="0 276 12 276 24 276 24 264 12 264 12 252 0 252 0 264 0 276" fill="#373737"/>
  <rect x="216" y="252" width="24" height="24" fill="#373737"/>
  <use width="182" height="52.78" transform="matrix(-1, 0, 0, 1, 211, 366.47)" xlink:href="#a6a5298e-7fa3-4a33-b1a6-4de57ed5c489"/>
  <polygon points="80.2 117 216 252.7 199 269.7 182.1 252.7 71.8 125.4 63.3 117 71.8 108.5 80.2 117" fill="#673327"/>
  <path d="M78.3,166.7,81.8,137,54.3,148.8l8,6a181.7,181.7,0,0,0-26.6,71.7l-10.1-.7,13.2,26.9,16.7-24.8-9.8-.7a172.2,172.2,0,0,1,24.6-66.4Z" fill="#d1c1be"/>
  <path d="M180.8,93.7l23.6-18.3L176.8,64.1l1.3,9.9a183.8,183.8,0,0,0-71.4,32.4l-6.6-7.6-9.7,28.3,29.3-5.7-6.4-7.5a173.8,173.8,0,0,1,66.2-30Z" fill="#d1c1be"/>
</svg>
