<svg data-name="Layer 1" height="480" id="aa20b8b5-b428-426f-bdfa-b487e4293cca" viewBox="0 0 240 480" width="240"
     xmlns="http://www.w3.org/2000/svg">
    <title>bascule-overtrokken-B</title>
    <polygon fill="none"
             points="214.5 60.7 214.5 252.7 193.5 252.7 193.5 228.7 205.5 60.7 205.5 50.2 214.5 50.2 214.5 60.7"
             stroke="#d1c1be" stroke-miterlimit="10" stroke-width="3"/>
    <polyline fill="none" points="12 254.2 24 254.2 216 254.2" stroke="#d1c1be" stroke-miterlimit="10"
              stroke-width="3"/>
    <polyline fill="none" points="216 275.2 192 275.2 24 263.2 12 263.2" stroke="#d1c1be" stroke-miterlimit="10"
              stroke-width="3"/>
    <circle cx="216" cy="256.7" fill="#673327" r="6"/>
    <rect fill="#999" height="144" width="24" y="276"/>
    <rect fill="#999" height="144" width="24" x="216" y="276"/>
    <polygon fill="#373737" points="0 276 12 276 24 276 24 264 12 264 12 252 0 252 0 264 0 276"/>
    <rect fill="#373737" height="24" width="24" x="216" y="252"/>
    <polygon fill="#673327" points="80.2 117 216 252.7 199 269.7 182.1 252.7 71.8 125.4 63.3 117 71.8 108.5 80.2 117"/>
    <path d="M78.3,166.7,81.8,137,54.3,148.8l8,6a181.7,181.7,0,0,0-26.6,71.7l-10.1-.7,13.2,26.9,16.7-24.8-9.8-.7a172.2,172.2,0,0,1,24.6-66.4Z"
          fill="#d1c1be"/>
    <path d="M180.8,93.7l23.6-18.3L176.8,64.1l1.3,9.9a183.8,183.8,0,0,0-71.4,32.4l-6.6-7.6-9.7,28.3,29.3-5.7-6.4-7.5a173.8,173.8,0,0,1,66.2-30Z"
          fill="#d1c1be"/>
    <g>
        <path d="M184.9,395.4l-4.1-3.1-4,3.1c-2.2,1.6-9.8,6.2-16.2,6.2s-13.9-4.5-16.2-6.2l-4-3.1-4.1,3.1c-2.1,1.6-9.7,6.2-16.2,6.2s-13.8-4.5-16.1-6.2l-4.1-3.1-4,3.1c-2.2,1.6-9.8,6.2-16.2,6.2s-13.8-4.5-16.2-6.2l-4-3.1-4.1,3.1c-2.1,1.6-9.7,6.2-16.1,6.2A24.8,24.8,0,0,1,29,398.8V413a34.8,34.8,0,0,0,10.3,1.8c8,0,15.7-3.7,20.2-6.3,4.5,2.6,12.1,6.3,20.2,6.3s15.7-3.7,20.2-6.3c4.5,2.6,12.2,6.3,20.2,6.3s15.8-3.7,20.3-6.3c4.5,2.6,12.1,6.3,20.2,6.3s15.7-3.7,20.2-6.3c4.5,2.6,12.2,6.3,20.2,6.3a32.8,32.8,0,0,0,10-1.7V398.9a23.7,23.7,0,0,1-10,2.7C194.7,401.6,187.2,397.1,184.9,395.4Z"
              fill="#7dcef1"/>
        <path d="M184.9,365l-4.1-3-4,3c-2.2,1.6-9.8,6.3-16.2,6.3s-13.9-4.5-16.2-6.3l-4-3-4.1,3c-2.1,1.6-9.7,6.3-16.2,6.3s-13.8-4.5-16.1-6.3l-4.1-3-4,3c-2.2,1.6-9.8,6.3-16.2,6.3s-13.8-4.5-16.2-6.3l-4-3-4.1,3c-2.1,1.6-9.7,6.3-16.1,6.3-3.5,0-7.2-1.4-10.3-2.8v14.2a34.7,34.7,0,0,0,10.3,1.7c8,0,15.7-3.6,20.2-6.2,4.5,2.6,12.1,6.2,20.2,6.2s15.7-3.6,20.2-6.2c4.5,2.6,12.2,6.2,20.2,6.2s15.8-3.6,20.3-6.2c4.5,2.6,12.1,6.2,20.2,6.2s15.7-3.6,20.2-6.2c4.5,2.6,12.2,6.2,20.2,6.2a32.7,32.7,0,0,0,10-1.6V368.6c-3,1.4-6.7,2.7-10,2.7C194.7,371.3,187.2,366.8,184.9,365Z"
              fill="#7dcef1"/>
    </g>
    <text font-family="RijksoverheidSansWebText-Bold, RijksoverheidSansWebText, sans-serif" font-size="36"
          font-weight="700" text-anchor="middle" x="120" y="465"/>
</svg>