<svg data-name="Layer 1" height="480" viewBox="0 0 240 480" width="240" xmlns="http://www.w3.org/2000/svg">
    <title>
        bascule-A
    </title>
    <path fill="none" stroke="#d1c1be" stroke-miterlimit="10" stroke-width="3" d="M228 253.8H24M24 274.8h24l168-12h12"/>
    <g fill="#7dcef1">
        <path d="M184.9 395.4l-4.1-3.1-4 3.1c-2.2 1.6-9.8 6.2-16.2 6.2s-13.9-4.5-16.2-6.2l-4-3.1-4.1 3.1c-2.1 1.6-9.7 6.2-16.2 6.2s-13.8-4.5-16.1-6.2l-4.1-3.1-4 3.1c-2.2 1.6-9.8 6.2-16.2 6.2s-13.8-4.5-16.2-6.2l-4-3.1-4.1 3.1c-2.1 1.6-9.7 6.2-16.1 6.2a24.8 24.8 0 0 1-10.3-2.8V413a34.8 34.8 0 0 0 10.3 1.8c8 0 15.7-3.7 20.2-6.3 4.5 2.6 12.1 6.3 20.2 6.3s15.7-3.7 20.2-6.3c4.5 2.6 12.2 6.3 20.2 6.3s15.8-3.7 20.3-6.3c4.5 2.6 12.1 6.3 20.2 6.3s15.7-3.7 20.2-6.3c4.5 2.6 12.2 6.3 20.2 6.3a32.8 32.8 0 0 0 10-1.7v-14.2a23.7 23.7 0 0 1-10 2.7c-6.3 0-13.8-4.5-16.1-6.2zM184.9 365l-4.1-3-4 3c-2.2 1.6-9.8 6.3-16.2 6.3s-13.9-4.5-16.2-6.3l-4-3-4.1 3c-2.1 1.6-9.7 6.3-16.2 6.3s-13.8-4.5-16.1-6.3l-4.1-3-4 3c-2.2 1.6-9.8 6.3-16.2 6.3s-13.8-4.5-16.2-6.3l-4-3-4.1 3c-2.1 1.6-9.7 6.3-16.1 6.3-3.5 0-7.2-1.4-10.3-2.8v14.2a34.7 34.7 0 0 0 10.3 1.7c8 0 15.7-3.6 20.2-6.2 4.5 2.6 12.1 6.2 20.2 6.2s15.7-3.6 20.2-6.2c4.5 2.6 12.2 6.2 20.2 6.2s15.8-3.6 20.3-6.2c4.5 2.6 12.1 6.2 20.2 6.2s15.7-3.6 20.2-6.2c4.5 2.6 12.2 6.2 20.2 6.2a32.7 32.7 0 0 0 10-1.6v-14.2c-3 1.4-6.7 2.7-10 2.7-6.3 0-13.8-4.5-16.1-6.3z"/>
    </g>
    <path fill="#999" d="M216 276h24v144h-24zM0 252.2h24v167.75H0z"/>
    <path fill="#373737" d="M240 276h-24v-12h12v-12h12v24zM0 252h24v24H0z"/>
    <circle cx="24" cy="252.2" fill="#673327" r="6"/>
    <path fill="#673327" d="M159.8 116.5L24 252.3l17 16.9 16.9-16.9L168.3 125l8.4-8.5-8.4-8.5-8.5 8.5z"/>
    <path d="M204.3 226.1a181.6 181.6 0 0 0-26.6-71.8l8-6-27.5-11.8 3.5 29.7 8-5.9a172.1 172.1 0 0 1 24.6 66.5l-9.8.6 16.7 24.8 13.2-26.8z" fill="#d1c1be"/>
    <text font-family="RijksoverheidSansWebText-Bold, RijksoverheidSansWebText, sans-serif" font-size="36" font-weight="700" text-anchor="middle" x="120" y="465"/>
</svg>
