<svg id="26c4bb9c-bc10-4af5-ae1e-9a0342787868" data-name="Layer 1" xmlns="http://www.w3.org/2000/svg" xmlns:xlink="http://www.w3.org/1999/xlink" width="240" height="432" viewBox="0 0 240 432">
  <defs>
    <symbol id="40add949-fde8-4452-abfb-0818500afb83" data-name="golven" viewBox="0 0 182 52.8">
      <path d="M155.9,33.4l-4.1-3.1-4,3.1c-2.2,1.6-9.8,6.2-16.2,6.2s-13.9-4.5-16.2-6.2l-4-3.1-4.1,3.1c-2.1,1.6-9.7,6.2-16.2,6.2S77.3,35.1,75,33.4l-4.1-3.1-4,3.1c-2.2,1.6-9.8,6.2-16.2,6.2s-13.8-4.5-16.2-6.2l-4-3.1-4.1,3.1c-2.1,1.6-9.7,6.2-16.1,6.2A24.8,24.8,0,0,1,0,36.8V51a31.8,31.8,0,0,0,10.3,1.8c8,0,15.7-3.6,20.2-6.3,4.5,2.7,12.1,6.3,20.2,6.3s15.7-3.6,20.2-6.3c4.5,2.7,12.2,6.3,20.2,6.3s15.8-3.6,20.3-6.3c4.5,2.7,12.1,6.3,20.2,6.3s15.7-3.6,20.2-6.3c4.5,2.7,12.2,6.3,20.2,6.3a32.8,32.8,0,0,0,10-1.7V37a25.1,25.1,0,0,1-10,2.6C165.7,39.6,158.2,35.1,155.9,33.4Z" fill="#7dcef1"/>
      <path d="M155.9,3l-4.1-3-4,3c-2.2,1.7-9.8,6.3-16.2,6.3S117.7,4.8,115.4,3l-4-3-4.1,3c-2.1,1.7-9.7,6.3-16.2,6.3S77.3,4.8,75,3L70.9,0l-4,3c-2.2,1.7-9.8,6.3-16.2,6.3S36.9,4.8,34.5,3l-4-3L26.4,3c-2.1,1.7-9.7,6.3-16.1,6.3A24.8,24.8,0,0,1,0,6.5V20.7a34.7,34.7,0,0,0,10.3,1.7c8,0,15.7-3.6,20.2-6.2,4.5,2.6,12.1,6.2,20.2,6.2s15.7-3.6,20.2-6.2c4.5,2.6,12.2,6.2,20.2,6.2s15.8-3.6,20.3-6.2c4.5,2.6,12.1,6.2,20.2,6.2s15.7-3.6,20.2-6.2c4.5,2.6,12.2,6.2,20.2,6.2a32.7,32.7,0,0,0,10-1.6V6.6c-3,1.4-6.7,2.7-10,2.7C165.7,9.3,158.2,4.8,155.9,3Z" fill="#7dcef1"/>
    </symbol>
  </defs>
  <title>bascule-overtrokken-A</title>
  <polygon points="25.5 60.7 25.5 252.7 46.5 252.7 46.5 228.7 34.5 60.7 34.5 50.2 25.5 50.2 25.5 60.7" fill="none" stroke="#d1c1be" stroke-miterlimit="10" stroke-width="3"/>
  <polyline points="228 254.2 216 254.2 24 254.2" fill="none" stroke="#d1c1be" stroke-miterlimit="10" stroke-width="3"/>
  <polyline points="24 275.2 48 275.2 216 263.2 228 263.2" fill="none" stroke="#d1c1be" stroke-miterlimit="10" stroke-width="3"/>
  <circle cx="24" cy="256.7" r="6" fill="#673327"/>
  <rect x="216" y="276" width="24" height="144" fill="#999"/>
  <rect y="276" width="24" height="144" fill="#999"/>
  <polygon points="240 276 228 276 216 276 216 264 228 264 228 252 240 252 240 264 240 276" fill="#373737"/>
  <rect y="252" width="24" height="24" fill="#373737"/>
  <use width="182" height="52.78" transform="translate(29 366.5)" xlink:href="#40add949-fde8-4452-abfb-0818500afb83"/>
  <polygon points="159.8 117 24 252.7 41 269.7 57.9 252.7 168.3 125.4 176.7 117 168.3 108.5 159.8 117" fill="#673327"/>
  <path d="M204.3,226.5a181.7,181.7,0,0,0-26.6-71.7l8-6L158.2,137l3.5,29.7,8-5.9a172.2,172.2,0,0,1,24.6,66.4l-9.8.7,16.7,24.8,13.2-26.9Z" fill="#d1c1be"/>
  <path d="M149.6,127.1l-9.7-28.3-6.6,7.6A183.8,183.8,0,0,0,61.9,74l1.3-9.9L35.6,75.4,59.2,93.7l1.3-9.8a173.8,173.8,0,0,1,66.2,30l-6.4,7.5Z" fill="#d1c1be"/>
</svg>
