<svg data-name="Layer 1" height="480" viewBox="0 0 240 480" width="240" xmlns="http://www.w3.org/2000/svg">
    <title>
        bascule-B
    </title>
    <path fill="none" stroke="#d1c1be" stroke-miterlimit="10" stroke-width="3" d="M12 253.8h204"/>
    <path fill="#999" d="M0 276h24v144H0zM216 276h24v144h-24z"/>
    <path fill="#373737" d="M0 276h24v-12H12v-12H0v24zM216 252h24v24h-24z"/>
    <circle cx="216" cy="252.2" fill="#673327" r="6"/>
    <path fill="none" stroke="#d1c1be" stroke-miterlimit="10" stroke-width="3" d="M216 274.8h-24l-168-12H12"/>
    <g fill="#7dcef1">
        <path d="M55.1 395.4l4.1-3.1 4 3.1c2.2 1.6 9.8 6.2 16.2 6.2s13.9-4.5 16.2-6.2l4-3.1 4.1 3.1c2.1 1.6 9.7 6.2 16.2 6.2s13.8-4.5 16.1-6.2l4.1-3.1 4 3.1c2.2 1.6 9.8 6.2 16.2 6.2s13.8-4.5 16.2-6.2l4-3.1 4.1 3.1c2.1 1.6 9.7 6.2 16.1 6.2a24.8 24.8 0 0 0 10.3-2.8V413a34.8 34.8 0 0 1-10.3 1.8c-8 0-15.7-3.7-20.2-6.3-4.5 2.6-12.1 6.3-20.2 6.3s-15.7-3.7-20.2-6.3c-4.5 2.6-12.2 6.3-20.2 6.3s-15.8-3.7-20.3-6.3c-4.5 2.6-12.1 6.3-20.2 6.3s-15.7-3.7-20.2-6.3c-4.5 2.6-12.2 6.3-20.2 6.3a32.8 32.8 0 0 1-10-1.7v-14.2a23.7 23.7 0 0 0 10 2.7c6.3 0 13.8-4.5 16.1-6.2zM55.1 365l4.1-3 4 3c2.2 1.6 9.8 6.3 16.2 6.3s13.9-4.5 16.2-6.3l4-3 4.1 3c2.1 1.6 9.7 6.3 16.2 6.3s13.8-4.5 16.1-6.3l4.1-3 4 3c2.2 1.6 9.8 6.3 16.2 6.3s13.8-4.5 16.2-6.3l4-3 4.1 3c2.1 1.6 9.7 6.3 16.1 6.3 3.5 0 7.2-1.4 10.3-2.8v14.2a34.7 34.7 0 0 1-10.3 1.7c-8 0-15.7-3.6-20.2-6.2-4.5 2.6-12.1 6.2-20.2 6.2s-15.7-3.6-20.2-6.2c-4.5 2.6-12.2 6.2-20.2 6.2s-15.8-3.6-20.3-6.2c-4.5 2.6-12.1 6.2-20.2 6.2s-15.7-3.6-20.2-6.2c-4.5 2.6-12.2 6.2-20.2 6.2a32.7 32.7 0 0 1-10-1.6v-14.2c3 1.4 6.7 2.7 10 2.7 6.3 0 13.8-4.5 16.1-6.3z"/>
    </g>
    <path fill="#673327" d="M80.2 116.5L216 252.3l-17 16.9-16.9-16.9L71.8 125l-8.5-8.5 8.5-8.5 8.4 8.5z"/>
    <path d="M78.3 166.2l3.5-29.7-27.5 11.8 8 6a181.6 181.6 0 0 0-26.6 71.8l-10.1-.7 13.2 26.8 16.7-24.8-9.8-.6a172.7 172.7 0 0 1 24.6-66.5z" fill="#d1c1be"/>
    <text font-family="RijksoverheidSansWebText-Bold, RijksoverheidSansWebText, sans-serif" font-size="36" font-weight="700" text-anchor="middle" x="120" y="465"/>
</svg>
