<svg data-name="Layer 1" height="480" viewBox="0 0 240 480" width="240" xmlns="http://www.w3.org/2000/svg">
    <title>
        bascule-overtrokken-A
    </title>
    <path fill="none" stroke="#d1c1be" stroke-miterlimit="10" stroke-width="3" d="M25.5 60.7v192h21v-24l-12-168V50.2h-9v10.5zM228 254.2H24M24 275.2h24l168-12h12"/>
    <circle cx="24" cy="256.7" fill="#673327" r="6"/>
    <path fill="#999" d="M216 276h24v144h-24zM0 276h24v144H0z"/>
    <path fill="#373737" d="M240 276h-24v-12h12v-12h12v24zM0 252h24v24H0z"/>
    <g fill="#7dcef1">
        <path d="M184.9 399.8l-4.1-3-4 3c-2.2 1.7-9.8 6.3-16.2 6.3s-13.9-4.5-16.2-6.3l-4-3-4.1 3c-2.1 1.7-9.7 6.3-16.2 6.3s-13.8-4.5-16.1-6.3l-4.1-3-4 3c-2.2 1.7-9.8 6.3-16.2 6.3s-13.8-4.5-16.2-6.3l-4-3-4.1 3c-2.1 1.7-9.7 6.3-16.1 6.3a24.8 24.8 0 0 1-10.3-2.8v14.2a34.7 34.7 0 0 0 10.3 1.7c8 0 15.7-3.6 20.2-6.2 4.5 2.6 12.1 6.2 20.2 6.2s15.7-3.6 20.2-6.2c4.5 2.6 12.2 6.2 20.2 6.2s15.8-3.6 20.3-6.2c4.5 2.6 12.1 6.2 20.2 6.2s15.7-3.6 20.2-6.2c4.5 2.6 12.2 6.2 20.2 6.2a32.7 32.7 0 0 0 10-1.6v-14.2c-3 1.4-6.7 2.7-10 2.7-6.3 0-13.8-4.5-16.1-6.3zM184.9 369.5l-4.1-3-4 3c-2.2 1.6-9.8 6.2-16.2 6.2s-13.9-4.5-16.2-6.2l-4-3-4.1 3c-2.1 1.6-9.7 6.2-16.2 6.2s-13.8-4.5-16.1-6.2l-4.1-3-4 3c-2.2 1.6-9.8 6.2-16.2 6.2s-13.8-4.5-16.2-6.2l-4-3-4.1 3c-2.1 1.6-9.7 6.2-16.1 6.2a24.8 24.8 0 0 1-10.3-2.8v14.3a34.7 34.7 0 0 0 10.3 1.7c8 0 15.7-3.6 20.2-6.3 4.5 2.7 12.1 6.3 20.2 6.3s15.7-3.6 20.2-6.3c4.5 2.7 12.2 6.3 20.2 6.3s15.8-3.6 20.3-6.3c4.5 2.7 12.1 6.3 20.2 6.3s15.7-3.6 20.2-6.3c4.5 2.7 12.2 6.3 20.2 6.3a36.1 36.1 0 0 0 10-1.6v-14.2a25.1 25.1 0 0 1-10 2.6c-6.3 0-13.8-4.5-16.1-6.2z"/>
    </g>
    <path fill="#673327" d="M159.8 117L24 252.7l17 17 16.9-17 110.4-127.3 8.4-8.4-8.4-8.5-8.5 8.5z"/>
    <path d="M204.3 226.5a181.7 181.7 0 0 0-26.6-71.7l8-6-27.5-11.8 3.5 29.7 8-5.9a172.2 172.2 0 0 1 24.6 66.4l-9.8.7 16.7 24.8 13.2-26.9zM149.6 127.1l-9.7-28.3-6.6 7.6A183.8 183.8 0 0 0 61.9 74l1.3-9.9-27.6 11.3 23.6 18.3 1.3-9.8a173.8 173.8 0 0 1 66.2 30l-6.4 7.5z" fill="#d1c1be"/>
    <text font-family="RijksoverheidSansWebText-Bold, RijksoverheidSansWebText, sans-serif" font-size="24" font-weight="700" text-anchor="middle" x="120" y="465"/>
</svg>
