<svg id="c5298f55-eb82-49ed-b9a5-b612324179dd" data-name="Layer 1" xmlns="http://www.w3.org/2000/svg" xmlns:xlink="http://www.w3.org/1999/xlink" width="240" height="432" viewBox="0 0 240 432">
  <defs>
    <symbol id="481c88d2-5a1d-4a9d-885a-43bd6d23586f" data-name="golven" viewBox="0 0 182 52.8">
      <path d="M155.9,33.4l-4.1-3.1-4,3.1c-2.2,1.6-9.8,6.2-16.2,6.2s-13.9-4.5-16.2-6.2l-4-3.1-4.1,3.1c-2.1,1.6-9.7,6.2-16.2,6.2S77.3,35.1,75,33.4l-4.1-3.1-4,3.1c-2.2,1.6-9.8,6.2-16.2,6.2s-13.8-4.5-16.2-6.2l-4-3.1-4.1,3.1c-2.1,1.6-9.7,6.2-16.1,6.2A24.8,24.8,0,0,1,0,36.8V51a31.8,31.8,0,0,0,10.3,1.8c8,0,15.7-3.6,20.2-6.3,4.5,2.7,12.1,6.3,20.2,6.3s15.7-3.6,20.2-6.3c4.5,2.7,12.2,6.3,20.2,6.3s15.8-3.6,20.3-6.3c4.5,2.7,12.1,6.3,20.2,6.3s15.7-3.6,20.2-6.3c4.5,2.7,12.2,6.3,20.2,6.3a32.8,32.8,0,0,0,10-1.7V37a25.1,25.1,0,0,1-10,2.6C165.7,39.6,158.2,35.1,155.9,33.4Z" fill="#7dcef1"/>
      <path d="M155.9,3l-4.1-3-4,3c-2.2,1.7-9.8,6.3-16.2,6.3S117.7,4.8,115.4,3l-4-3-4.1,3c-2.1,1.7-9.7,6.3-16.2,6.3S77.3,4.8,75,3L70.9,0l-4,3c-2.2,1.7-9.8,6.3-16.2,6.3S36.9,4.8,34.5,3l-4-3L26.4,3c-2.1,1.7-9.7,6.3-16.1,6.3A24.8,24.8,0,0,1,0,6.5V20.7a34.7,34.7,0,0,0,10.3,1.7c8,0,15.7-3.6,20.2-6.2,4.5,2.6,12.1,6.2,20.2,6.2s15.7-3.6,20.2-6.2c4.5,2.6,12.2,6.2,20.2,6.2s15.8-3.6,20.3-6.2c4.5,2.6,12.1,6.2,20.2,6.2s15.7-3.6,20.2-6.2c4.5,2.6,12.2,6.2,20.2,6.2a32.7,32.7,0,0,0,10-1.6V6.6c-3,1.4-6.7,2.7-10,2.7C165.7,9.3,158.2,4.8,155.9,3Z" fill="#7dcef1"/>
    </symbol>
  </defs>
  <title>bascule-B</title>
  <polyline points="12 253.8 24 253.8 216 253.8" fill="none" stroke="#d1c1be" stroke-miterlimit="10" stroke-width="3"/>
  <rect y="276" width="24" height="144" fill="#999"/>
  <rect x="216" y="276" width="24" height="144" fill="#999"/>
  <polygon points="0 276 12 276 24 276 24 264 12 264 12 252 0 252 0 264 0 276" fill="#373737"/>
  <rect x="216" y="252" width="24" height="24" fill="#373737"/>
  <circle cx="216" cy="252.2" r="6" fill="#673327"/>
  <polyline points="216 274.8 192 274.8 24 262.8 12 262.8" fill="none" stroke="#d1c1be" stroke-miterlimit="10" stroke-width="3"/>
  <use width="182" height="52.78" transform="matrix(-1, 0, 0, 1, 211, 361.99)" xlink:href="#481c88d2-5a1d-4a9d-885a-43bd6d23586f"/>
  <polygon points="80.2 116.5 216 252.3 199 269.2 182.1 252.3 71.8 125 63.3 116.5 71.8 108 80.2 116.5" fill="#673327"/>
  <path d="M78.3,166.2l3.5-29.7L54.3,148.3l8,6a181.6,181.6,0,0,0-26.6,71.8l-10.1-.7,13.2,26.8,16.7-24.8-9.8-.6a172.7,172.7,0,0,1,24.6-66.5Z" fill="#d1c1be"/>
</svg>
