<svg id="7e127486-b4f7-42e9-9364-bd898540eb7f" data-name="Layer 1" xmlns="http://www.w3.org/2000/svg" width="240" height="480" viewBox="0 0 240 480">
  <title>bb-sb</title>
  <g id="207a5563-ea69-4db5-8103-d49586a14fcc" data-name="overlay">
    <g>
      <path d="M15.7,430.2c3.6,0,3.6-2,7.1-2s3.6,2,7.1,2,3.6-2,7.1-2,3.6,2,7.1,2,3.4-1.1,5-1.7l1.5-25.7L18.9,400l-3.5,30.1Z" fill="#d52b1e"/>
      <path d="M8.9,428.7c3.5,0,3.5,2,7.1,2s3.5-2,7.1-2,3.5,2,7.1,2,3.6-2,7.1-2,3.6,2,7.1,2,3.6-2,7.1-2,3.6,2,7.2,2" fill="none" stroke="#7dcef1" stroke-miterlimit="10" stroke-width="2"/>
    </g>
    <g>
      <path d="M186,430.2c3.6,0,3.6-2,7.1-2s3.6,2,7.2,2,3.5-2,7.1-2,3.5,2,7.1,2,3.4-1.3,5.2-1.8l.7-8.7-15.3-18.3-18.3,15.4-1.2,13.3Z" fill="#39870c"/>
      <path d="M179.2,428.7c3.6,0,3.6,2,7.1,2s3.6-2,7.1-2,3.6,2,7.1,2,3.6-2,7.1-2,3.6,2,7.2,2,3.5-2,7.1-2,3.5,2,7.1,2" fill="none" stroke="#7dcef1" stroke-miterlimit="10" stroke-width="2"/>
    </g>
  </g>
</svg>
