<svg id="3758c016-bbe6-475e-be98-aa322034fe9b" data-name="Layer 1" xmlns="http://www.w3.org/2000/svg" viewBox="0 0 240 480">
  <title>betonning-rood-links</title>
  <g>
    <g>
      <g>
        <path d="M7.4,453.5c3.9,0,3.9-2.2,7.8-2.2s3.9,2.2,7.8,2.2,3.8-2.2,7.7-2.2,3.9,2.2,7.8,2.2,3.6-1.2,5.4-1.8l1.6-28-34.6-3.1L7.1,453.5Z" fill="#d32d27"/>
        <path d="M0,451.9c3.9,0,3.9,2.2,7.8,2.2s3.8-2.2,7.7-2.2,3.9,2.2,7.8,2.2,3.8-2.2,7.7-2.2,3.9,2.2,7.8,2.2,3.8-2.2,7.7-2.2,3.9,2.2,7.8,2.2" fill="none" stroke="#7ecdef" stroke-miterlimit="10"/>
      </g>
      <g>
        <path d="M193.2,453.5c3.8,0,3.8-2.2,7.7-2.2s3.9,2.2,7.8,2.2,3.8-2.2,7.7-2.2,3.9,2.2,7.8,2.2,3.7-1.3,5.6-1.9l.9-9.5-16.8-20-20,16.8-1.2,14.6Z" fill="#398740"/>
        <path d="M185.7,451.9c3.9,0,3.9,2.2,7.8,2.2s3.8-2.2,7.7-2.2,3.9,2.2,7.8,2.2,3.8-2.2,7.7-2.2,3.9,2.2,7.8,2.2,3.9-2.2,7.7-2.2,3.9,2.2,7.8,2.2" fill="none" stroke="#7ecdef" stroke-miterlimit="10"/>
      </g>
    </g>
    <g>
      <g>
        <path d="M16.1,44.4c2.1,0,2.1-1.2,4.3-1.2s2.2,1.2,4.4,1.2,2.2-1.2,4.3-1.2,2.2,1.2,4.4,1.2,2-.7,3-1l1-15.8L18,25.9,15.9,44.4Z" fill="#d32d27"/>
        <path d="M11.9,43.5c2.2,0,2.2,1.2,4.3,1.2s2.2-1.2,4.4-1.2,2.2,1.2,4.4,1.2,2.1-1.2,4.3-1.2,2.2,1.2,4.4,1.2,2.2-1.2,4.3-1.2,2.2,1.2,4.4,1.2" fill="none" stroke="#7ecdef" stroke-miterlimit="10"/>
      </g>
      <g>
        <path d="M201.8,44.7c2.2,0,2.2-1.2,4.3-1.2s2.2,1.2,4.4,1.2,2.2-1.2,4.4-1.2,2.1,1.2,4.3,1.2,2.1-.7,3.2-1l.5-5.4-9.5-11.2-11.2,9.4-.7,8.2Z" fill="#398740"/>
        <path d="M197.6,43.8c2.2,0,2.2,1.3,4.3,1.3s2.2-1.3,4.4-1.3,2.2,1.3,4.4,1.3,2.1-1.3,4.3-1.3,2.2,1.3,4.4,1.3,2.2-1.3,4.4-1.3,2.1,1.3,4.3,1.3" fill="none" stroke="#7ecdef" stroke-miterlimit="10"/>
      </g>
    </g>
  </g>
</svg>
