<svg id="c14e5bc8-d090-4a1e-b063-eadd5fafc065" data-name="Layer 1" xmlns="http://www.w3.org/2000/svg" xmlns:xlink="http://www.w3.org/1999/xlink" width="360" height="432" viewBox="0 0 360 432">
  <defs>
    <linearGradient id="14fa219f-0c20-4d5f-83f3-1355f591fe2d" x1="-2956.65" y1="192.89" x2="-2679.57" y2="192.89" gradientTransform="matrix(1, 0, 0, -1, 2959.01, 443)" gradientUnits="userSpaceOnUse">
      <stop offset="0" stop-color="#422119"/>
      <stop offset="0.09" stop-color="#422119"/>
      <stop offset="0.21" stop-color="#5c2e23"/>
      <stop offset="0.72" stop-color="#613025"/>
      <stop offset="1" stop-color="#613025"/>
    </linearGradient>
    <linearGradient id="7612f278-504a-41f8-9011-759b53bfa766" x1="-2932.21" y1="171.55" x2="-2688.83" y2="171.55" xlink:href="#14fa219f-0c20-4d5f-83f3-1355f591fe2d"/>
  </defs>
  <title>draai-enkel-A</title>
  <line x1="65.8" y1="250.2" x2="122.8" y2="250.2" fill="none" stroke="#999" stroke-miterlimit="10" stroke-dasharray="8"/>
  <line x1="282" y1="251.9" x2="345" y2="251.9" fill="none" stroke="#d1c1be" stroke-miterlimit="10" stroke-width="3"/>
  <line x1="186" y1="275.9" x2="330" y2="275.9" fill="none" stroke="#d1c1be" stroke-miterlimit="10" stroke-width="3"/>
  <path d="M330,404.9a43.2,43.2,0,0,1-8.2-4.4l-4-3-4,3c-2.2,1.6-9.8,6.2-16.2,6.2s-13.9-4.5-16.2-6.2l-4-3-4,3a41,41,0,0,1-7.4,4.1v-.5a26.9,26.9,0,0,1-9.2,2.6c-6.3-.2-13.6-4.5-15.8-6.2l-4-3-.6.4-.6-.4-4,3c-2.1,1.5-9.4,6-15.7,6.2s-13.3-4.6-15.6-6.2l-4-3-.5.4-.6-.4-4,3c-2.1,1.6-9.2,5.9-15.5,6.2a25,25,0,0,1-9.9-2.8v.5a32.5,32.5,0,0,1-7-4l-4-3-4,3c-2.3,1.7-9.9,6.3-16.3,6.3s-13.9-4.5-16.2-6.3l-4-3-4,3c-2.2,1.7-9.8,6.3-16.2,6.3A26.4,26.4,0,0,1,84,403.9v14.2a35.9,35.9,0,0,0,10.3,1.8c8,0,15.7-3.6,20.2-6.3,4.5,2.7,12.1,6.3,20.2,6.3s15.7-3.6,20.2-6.2c4.5,2.6,12.2,6.2,20.2,6.2h1.2c7.7,0,15-3.3,19.6-5.9,4.5,2.6,11.9,6,19.7,6h1.1c7.7,0,15.1-3.3,19.6-6,4.6,2.6,11.9,6,19.7,6h1.1c8.1,0,15.7-3.6,20.2-6.3,4.6,2.7,12.2,6.3,20.3,6.3s15.7-3.6,20.2-6.3a45.1,45.1,0,0,0,12.2,5.1Z" fill="#7dcef1"/>
  <path d="M330,374.6a34.6,34.6,0,0,1-8.2-4.5l-4-3-4,3c-2.1,1.7-9.7,6.3-16.1,6.3s-14-4.5-16.3-6.3l-4-3-4,3a36.2,36.2,0,0,1-7.4,4.2,72.1,72.1,0,0,1-9.2,2.1c-6.4-.3-13.6-4.5-15.8-6.3l-5.2-3-4,3c-2.1,1.7-9.7,6.3-16.1,6.3s-13-4.6-15.2-6.3l-4-3h-1.1l-4,3c-2.1,1.6-9.2,5.9-15.5,6.2-3.4-.2-9.9-2.2-9.9-2.2a37.3,37.3,0,0,1-7-4l-4-3-4,3c-2.3,1.7-9.9,6.3-16.3,6.3s-13.8-4.5-16.2-6.3l-4-3-4,3c-2.1,1.6-9.7,6.2-16.2,6.2A23.2,23.2,0,0,1,84,373.6v14.2a32.8,32.8,0,0,0,10.3,1.8c8,0,15.7-3.6,20.2-6.3,4.5,2.7,12.1,6.3,20.2,6.3s15.7-3.6,20.2-6.3c4.5,2.7,12.2,6.3,20.2,6.3h1.2c7.7,0,15.1-3.4,19.6-6,4.6,2.6,11.9,6,19.7,6h1.1c7.7,0,15.1-3.4,19.6-6,4.6,2.6,11.9,6,19.7,6h1.1c8.1,0,15.7-3.6,20.2-6.3,4.6,2.7,12.2,6.3,20.3,6.3s15.7-3.6,20.2-6.3a48.8,48.8,0,0,0,12.2,5.2Z" fill="#7dcef1"/>
  <path d="M336,275.9h24v144H336Z" fill="#999"/>
  <polygon points="360 276 336 276 336 264 348 264 348 252 360 252 360 276" fill="#373737"/>
  <polygon points="0 276 24 276 24 264 12 264 12 252 0 252 0 276" fill="#373737"/>
  <path d="M0,275.9H24v144H0Z" fill="#999"/>
  <rect x="36" y="263.9" width="42" height="156" fill="#999"/>
  <path d="M2.4,247.8v13.5h277v-7.7c0-.2.1-1.2-.1-1.3a10,10,0,0,0-3.9-.4l-5.7-.4L247,250.2l-32.8-2-37.4-2.3-36.4-2.2-29.9-1.8-17.7-1.1c-9.8-.6-19.6-1.1-29.4-1.4s-19.3-.5-28.9-.5c-4.7,0-9.4,0-14,.2a141.3,141.3,0,0,0-14.6.8c-.9.1-3.2.2-3.5,1.2a2,2,0,0,0,0,1.1Z" fill="url(#14fa219f-0c20-4d5f-83f3-1355f591fe2d)"/>
  <path d="M270.1,265.3v-4H26.8v18.8c.3.8,3,.8,3.7.9,4.4.4,8.8.5,13.2.5,12.9.2,25.8-.2,38.7-1l9.5-.5,23.2-1.3,32.1-1.8,35.9-2,34.9-2,28.8-1.6,17.9-1,3.2-.2c.5,0,1.8.1,2.1-.2s0-1,0-1.2Z" fill="url(#7612f278-504a-41f8-9011-759b53bfa766)"/>
  <line x1="2.4" y1="261.1" x2="279.4" y2="261.1" fill="none" stroke="#000" stroke-miterlimit="10"/>
</svg>
