<svg data-name="Layer 1" height="480" id="09ee80d3-7048-45a9-b701-965a17638bcd" viewBox="0 0 360 480" width="360" xmlns="http://www.w3.org/2000/svg" xmlns:xlink="http://www.w3.org/1999/xlink"><defs><linearGradient gradientTransform="matrix(-1, 0, 0, 1, 360, 0)" gradientUnits="userSpaceOnUse" id="9724f982-68a7-41dd-9743-158fbfa74838" x1="279.4" x2="2.35" y1="250.19" y2="250.19"><stop offset="0" stop-color="#422119"/><stop offset="0.69" stop-color="#422119"/><stop offset="0.83" stop-color="#5c2e23"/><stop offset="0.92" stop-color="#613025"/><stop offset="1" stop-color="#422119"/></linearGradient><linearGradient id="edd0ef9d-cd87-4f65-9bce-09a5a3c2eeb1" x1="270.11" x2="26.78" xlink:href="#9724f982-68a7-41dd-9743-158fbfa74838" y1="271.52" y2="271.52"/></defs><title>enkele-draai-B</title><g data-name="a" id="52f97694-b6fc-4666-a843-1bce6bb10088"><path d="M30,405a40.26,40.26,0,0,0,8.16-4.44l4-3,4,3c2.25,1.63,9.86,6.23,16.27,6.23s13.85-4.51,16.18-6.23l4-3,4,3a41.21,41.21,0,0,0,7.4,4.09v-.46a24.89,24.89,0,0,0,9.17,2.59c6.35-.14,13.58-4.52,15.83-6.22l4-3,.57.43.57-.43,4,3c2.19,1.58,9.43,6,15.71,6.21,6.28-.25,13.35-4.54,15.61-6.21l4-3,.56.42.56-.42,4,3c2.16,1.57,9.28,5.87,15.53,6.2A25.16,25.16,0,0,0,194,404v.53a38.48,38.48,0,0,0,7-4l4-3,4,3c2.28,1.63,9.88,6.23,16.3,6.23s13.85-4.51,16.18-6.23l4-3,4,3c2.24,1.63,9.84,6.23,16.26,6.23A25.17,25.17,0,0,0,276,404v14.19A33.57,33.57,0,0,1,265.74,420c-8.08,0-15.72-3.63-20.22-6.28C241,416.37,233.38,420,225.31,420s-15.72-3.63-20.22-6.28c-4.51,2.65-12.14,6.28-20.22,6.28-.37,0-.75,0-1.12,0h0c-7.74,0-15.07-3.33-19.63-5.94-4.56,2.61-11.91,6-19.68,6l-.56,0-.56,0c-7.76,0-15.1-3.34-19.65-6-4.56,2.61-11.9,6-19.65,6l-.4,0-.73,0c-8.08,0-15.72-3.63-20.22-6.28C78.14,416.37,70.51,420,62.43,420s-15.72-3.63-20.22-6.28A49.14,49.14,0,0,1,30,418.91Z" fill="#7dcef1"/><path d="M22,406.87a15.72,15.72,0,0,0,2-.16v13.21c-.66,0-1.33.08-2,.08a33.33,33.33,0,0,1-10-1.66V404.22A24.9,24.9,0,0,0,22,406.87Z" fill="#7dcef1"/><path d="M30,374.7a38.65,38.65,0,0,0,8.16-4.47l4-3,4,3c2.16,1.62,9.76,6.23,16.18,6.23S76.27,372,78.6,370.23l4-3,4,3a39.22,39.22,0,0,0,7.4,4.12,61.26,61.26,0,0,0,9.23,2.09c6.32-.2,13.54-4.49,15.78-6.21l5.15-3,4,3c2.16,1.62,9.73,6.21,16.14,6.23,6.17-.42,13-4.56,15.19-6.23l4-3h1.12l4,3c2.08,1.56,9.21,5.89,15.47,6.2,3.46-.22,9.92-2.23,9.92-2.23a36.75,36.75,0,0,0,7-4l4-3,4,3c2.28,1.65,9.88,6.27,16.3,6.27s13.85-4.51,16.18-6.27l4-3,4,3c2.16,1.62,9.76,6.23,16.18,6.23A25.17,25.17,0,0,0,276,373.71v14.22a33.57,33.57,0,0,1-10.26,1.75c-8.08,0-15.72-3.63-20.22-6.28-4.52,2.65-12.14,6.28-20.22,6.28s-15.72-3.63-20.22-6.28c-4.51,2.65-12.14,6.28-20.22,6.28l-.74,0-.39,0c-7.76,0-15.1-3.34-19.65-6-4.56,2.61-11.9,6-19.65,6l-.56,0-.56,0c-7.76,0-15.1-3.34-19.65-6-4.56,2.61-11.9,6-19.65,6l-.4,0-.73,0c-8.08,0-15.72-3.63-20.22-6.28-4.51,2.65-12.14,6.28-20.22,6.28S46.72,386,42.22,383.39A49.14,49.14,0,0,1,30,388.58Z" fill="#7dcef1"/></g><line fill="none" stroke="#999" stroke-dasharray="8" stroke-miterlimit="10" x1="294.19" x2="237.22" y1="250.24" y2="250.24"/><line fill="none" stroke="#999" stroke-dasharray="8" stroke-miterlimit="10" x1="78" x2="15.03" y1="252" y2="252"/><line fill="none" stroke="#999" stroke-dasharray="8" stroke-miterlimit="10" x1="174" x2="30" y1="276" y2="276"/><path d="M24,276H0V420H24Z" fill="#999"/><polygon fill="#373737" points="0 276 24 276 24 264 12 264 12 252 0 252 0 276"/><polygon fill="#373737" points="360 276 336 276 336 264 348 264 348 252 360 252 360 276"/><path d="M360,276H336V420h24Z" fill="#999"/><rect fill="#999" height="156" transform="translate(606 684) rotate(-180)" width="42" x="282" y="264"/><path d="M357.61,247.9v13.48h-277v-7.67c0-.2-.14-1.24.06-1.35,1-.52,2.75-.32,3.93-.39l5.75-.35L113,250.25l32.78-2L183.17,246l36.42-2.22,29.88-1.82,17.72-1.08q14.69-.9,29.4-1.38c9.64-.3,19.29-.48,28.94-.48,4.68,0,9.36,0,14,.16a135.23,135.23,0,0,1,14.55.88c.84.11,3.22.18,3.5,1.16a4.81,4.81,0,0,1,0,1.17Z" fill="url(#9724f982-68a7-41dd-9743-158fbfa74838)"/><path d="M89.94,265.43v-4H333.17v17.78a3.68,3.68,0,0,1,0,1c-.31.81-2.92.83-3.65.9-4.39.42-8.82.47-13.23.52-12.9.13-25.81-.24-38.69-1l-9.47-.53-23.24-1.3L212.84,277l-35.94-2-34.86-2-28.84-1.62-17.87-1-3.27-.18c-.46,0-1.76.1-2.08-.22s0-1,0-1.24Z" fill="url(#edd0ef9d-cd87-4f65-9bce-09a5a3c2eeb1)"/><line fill="none" stroke="#000" stroke-miterlimit="10" style="isolation:isolate" x1="357.61" x2="80.65" y1="261.17" y2="261.17"/></svg>