<svg data-name="Layer 1" height="480" id="03ae0430-277b-4173-a06e-a5e5f43d012b" viewBox="0 0 360 480" width="360"
     xmlns="http://www.w3.org/2000/svg" xmlns:xlink="http://www.w3.org/1999/xlink">
    <defs>
        <linearGradient gradientUnits="userSpaceOnUse" id="cbf76860-7c39-425f-a478-bc8ebac19e92" x1="2.35" x2="279.4"
                        y1="250.19" y2="250.19">
            <stop offset="0" stop-color="#422119"/>
            <stop offset="0.09" stop-color="#422119"/>
            <stop offset="0.21" stop-color="#5c2e23"/>
            <stop offset="0.72" stop-color="#613025"/>
            <stop offset="1" stop-color="#613025"/>
        </linearGradient>
        <linearGradient id="1f47c049-cf90-487d-880d-061bcc7e286e" x1="26.78" x2="270.11"
                        xlink:href="#cbf76860-7c39-425f-a478-bc8ebac19e92" y1="271.52" y2="271.52"/>
    </defs>
    <title>enkele-draai-A</title>
    <line fill="none" stroke="#999" stroke-dasharray="8" stroke-miterlimit="10" x1="65.81" x2="122.78" y1="250.24"
          y2="250.24"/>
    <line fill="none" stroke="#999" stroke-dasharray="8" stroke-miterlimit="10" x1="282" x2="344.97" y1="252" y2="252"/>
    <line fill="none" stroke="#999" stroke-dasharray="8" stroke-miterlimit="10" x1="186" x2="330" y1="276" y2="276"/>
    <g data-name="a" id="7978e034-6502-4c71-a99c-3336720ddba1">
        <path d="M330,405a40.26,40.26,0,0,1-8.16-4.44l-4-3-4,3c-2.25,1.63-9.86,6.23-16.27,6.23s-13.85-4.51-16.18-6.23l-4-3-4,3a41.21,41.21,0,0,1-7.4,4.09v-.46a24.89,24.89,0,0,1-9.17,2.59c-6.35-.14-13.58-4.52-15.83-6.22l-4-3-.57.43-.57-.43-4,3c-2.19,1.58-9.43,6-15.71,6.21-6.28-.25-13.35-4.54-15.61-6.21l-4-3L196,398l-.56-.42-4,3c-2.16,1.57-9.28,5.87-15.53,6.2A25.16,25.16,0,0,1,166,404v.53a38.48,38.48,0,0,1-7-4l-4-3-4,3c-2.28,1.63-9.88,6.23-16.3,6.23s-13.85-4.51-16.18-6.23l-4-3-4,3c-2.24,1.63-9.84,6.23-16.26,6.23A25.17,25.17,0,0,1,84,404v14.19A33.57,33.57,0,0,0,94.26,420c8.08,0,15.72-3.63,20.22-6.28,4.52,2.68,12.14,6.31,20.22,6.31s15.72-3.63,20.22-6.28c4.51,2.65,12.14,6.28,20.22,6.28.37,0,.75,0,1.12,0h0c7.74,0,15.07-3.33,19.63-5.94,4.56,2.61,11.91,6,19.68,6l.56,0,.56,0c7.76,0,15.1-3.34,19.65-6,4.56,2.61,11.9,6,19.65,6l.4,0,.73,0c8.08,0,15.72-3.63,20.22-6.28,4.51,2.65,12.14,6.28,20.22,6.28s15.72-3.63,20.22-6.28A49.14,49.14,0,0,0,330,418.91Z"
              fill="#7dcef1"/>
        <path d="M338,406.87a15.72,15.72,0,0,1-2-.16v13.21c.66,0,1.33.08,2,.08a33.33,33.33,0,0,0,10-1.66V404.22A24.9,24.9,0,0,1,338,406.87Z"
              fill="#7dcef1"/>
        <path d="M330,374.7a38.65,38.65,0,0,1-8.16-4.47l-4-3-4,3c-2.16,1.62-9.76,6.23-16.18,6.23s-13.94-4.47-16.27-6.23l-4-3-4,3a39.22,39.22,0,0,1-7.4,4.12,61.26,61.26,0,0,1-9.23,2.09c-6.32-.2-13.54-4.49-15.78-6.21l-5.15-3-4,3c-2.16,1.62-9.73,6.21-16.14,6.23-6.17-.42-13-4.56-15.19-6.23l-4-3H195.4l-4,3c-2.08,1.56-9.21,5.89-15.47,6.2-3.46-.22-9.92-2.23-9.92-2.23a36.75,36.75,0,0,1-7-4l-4-3-4,3c-2.28,1.65-9.88,6.27-16.3,6.27s-13.85-4.51-16.18-6.27l-4-3-4,3c-2.16,1.62-9.76,6.23-16.18,6.23A25.17,25.17,0,0,1,84,373.71v14.22a33.57,33.57,0,0,0,10.26,1.75c8.08,0,15.72-3.63,20.22-6.28,4.52,2.65,12.14,6.28,20.22,6.28s15.72-3.63,20.22-6.28c4.51,2.65,12.14,6.28,20.22,6.28l.74,0,.39,0c7.76,0,15.1-3.34,19.65-6,4.56,2.61,11.9,6,19.65,6l.56,0,.56,0c7.76,0,15.1-3.34,19.65-6,4.56,2.61,11.9,6,19.65,6l.4,0,.73,0c8.08,0,15.72-3.63,20.22-6.28,4.51,2.65,12.14,6.28,20.22,6.28s15.72-3.63,20.22-6.28A49.14,49.14,0,0,0,330,388.58Z"
              fill="#7dcef1"/>
    </g>
    <path d="M336,276h24V420H336Z" fill="#999"/>
    <polygon fill="#373737" points="360 276 336 276 336 264 348 264 348 252 360 252 360 276"/>
    <polygon fill="#373737" points="0 276 24 276 24 264 12 264 12 252 0 252 0 276"/>
    <path d="M0,276H24V420H0Z" fill="#999"/>
    <rect fill="#999" height="156" width="42" x="36" y="264"/>
    <path d="M2.39,247.9v13.48h277v-7.67c0-.2.14-1.24-.06-1.35-1-.52-2.75-.32-3.93-.39l-5.75-.35L247,250.25l-32.78-2L176.83,246l-36.42-2.22-29.88-1.82-17.72-1.08q-14.69-.9-29.4-1.38c-9.64-.3-19.29-.48-28.94-.48-4.68,0-9.36,0-14,.16A135.23,135.23,0,0,0,5.89,240c-.84.11-3.22.18-3.5,1.16a4.81,4.81,0,0,0,0,1.17Z"
          fill="url(#cbf76860-7c39-425f-a478-bc8ebac19e92)"/>
    <path d="M270.06,265.43v-4H26.83v17.78a3.68,3.68,0,0,0,0,1c.31.81,2.92.83,3.65.9,4.39.42,8.82.47,13.23.52,12.9.13,25.81-.24,38.69-1l9.47-.53,23.24-1.3,32.06-1.8,35.94-2,34.86-2,28.84-1.62,17.87-1,3.27-.18c.46,0,1.76.1,2.08-.22s0-1,0-1.24Z"
          fill="url(#1f47c049-cf90-487d-880d-061bcc7e286e)"/>
    <line fill="none" stroke="#000" stroke-miterlimit="10" style="isolation:isolate" x1="2.39" x2="279.35" y1="261.17"
          y2="261.17"/>
</svg>