<svg data-name="Layer 1" height="480" viewBox="0 0 480 480" width="480" xmlns="http://www.w3.org/2000/svg">
    <title>
        draai
    </title>
    <path fill="none" stroke="#d1c1be" stroke-miterlimit="10" stroke-width="3" d="M480 274.5H0M0 253.5h480"/>
    <g data-name="golfje" fill="#7dcef1">
        <path d="M184.9 395.4l-4.1-3.1-4 3.1c-2.2 1.6-9.8 6.2-16.2 6.2s-13.9-4.5-16.2-6.2l-4-3.1-4.1 3.1c-2.1 1.6-9.7 6.2-16.2 6.2s-13.8-4.5-16.1-6.2l-4.1-3.1-4 3.1c-2.2 1.6-9.8 6.2-16.2 6.2s-13.8-4.5-16.2-6.2l-4-3.1-4.1 3.1c-2.1 1.6-9.7 6.2-16.1 6.2a24.8 24.8 0 0 1-10.3-2.8V413a34.8 34.8 0 0 0 10.3 1.8c8 0 15.7-3.7 20.2-6.3 4.5 2.6 12.1 6.3 20.2 6.3s15.7-3.7 20.2-6.3c4.5 2.6 12.2 6.3 20.2 6.3s15.8-3.7 20.3-6.3c4.5 2.6 12.1 6.3 20.2 6.3s15.7-3.7 20.2-6.3c4.5 2.6 12.2 6.3 20.2 6.3a32.8 32.8 0 0 0 10-1.7v-14.2a23.7 23.7 0 0 1-10 2.7c-6.3 0-13.8-4.5-16.1-6.2zM184.9 365l-4.1-3-4 3c-2.2 1.6-9.8 6.3-16.2 6.3s-13.9-4.5-16.2-6.3l-4-3-4.1 3c-2.1 1.6-9.7 6.3-16.2 6.3s-13.8-4.5-16.1-6.3l-4.1-3-4 3c-2.2 1.6-9.8 6.3-16.2 6.3s-13.8-4.5-16.2-6.3l-4-3-4.1 3c-2.1 1.6-9.7 6.3-16.1 6.3-3.5 0-7.2-1.4-10.3-2.8v14.2a34.7 34.7 0 0 0 10.3 1.7c8 0 15.7-3.6 20.2-6.2 4.5 2.6 12.1 6.2 20.2 6.2s15.7-3.6 20.2-6.2c4.5 2.6 12.2 6.2 20.2 6.2s15.8-3.6 20.3-6.2c4.5 2.6 12.1 6.2 20.2 6.2s15.7-3.6 20.2-6.2c4.5 2.6 12.2 6.2 20.2 6.2a32.7 32.7 0 0 0 10-1.6v-14.2c-3 1.4-6.7 2.7-10 2.7-6.3 0-13.8-4.5-16.1-6.3z"/>
        <g>
            <path d="M424.9 395.4l-4.1-3.1-4 3.1c-2.2 1.6-9.8 6.2-16.2 6.2s-13.9-4.5-16.2-6.2l-4-3.1-4.1 3.1c-2.1 1.6-9.7 6.2-16.2 6.2s-13.8-4.5-16.1-6.2l-4.1-3.1-4 3.1c-2.2 1.6-9.8 6.2-16.2 6.2s-13.8-4.5-16.2-6.2l-4-3.1-4.1 3.1c-2.1 1.6-9.7 6.2-16.1 6.2a24.8 24.8 0 0 1-10.3-2.8V413a34.8 34.8 0 0 0 10.3 1.8c8 0 15.7-3.7 20.2-6.3 4.5 2.6 12.1 6.3 20.2 6.3s15.7-3.7 20.2-6.3c4.5 2.6 12.2 6.3 20.2 6.3s15.8-3.7 20.3-6.3c4.5 2.6 12.1 6.3 20.2 6.3s15.7-3.7 20.2-6.3c4.5 2.6 12.2 6.3 20.2 6.3a32.8 32.8 0 0 0 10-1.7v-14.2a23.7 23.7 0 0 1-10 2.7c-6.3 0-13.8-4.5-16.1-6.2zM424.9 365l-4.1-3-4 3c-2.2 1.6-9.8 6.3-16.2 6.3s-13.9-4.5-16.2-6.3l-4-3-4.1 3c-2.1 1.6-9.7 6.3-16.2 6.3s-13.8-4.5-16.1-6.3l-4.1-3-4 3c-2.2 1.6-9.8 6.3-16.2 6.3s-13.8-4.5-16.2-6.3l-4-3-4.1 3c-2.1 1.6-9.7 6.3-16.1 6.3-3.5 0-7.2-1.4-10.3-2.8v14.2a34.7 34.7 0 0 0 10.3 1.7c8 0 15.7-3.6 20.2-6.2 4.5 2.6 12.1 6.2 20.2 6.2s15.7-3.6 20.2-6.2c4.5 2.6 12.2 6.2 20.2 6.2s15.8-3.6 20.3-6.2c4.5 2.6 12.1 6.2 20.2 6.2s15.7-3.6 20.2-6.2c4.5 2.6 12.2 6.2 20.2 6.2a32.7 32.7 0 0 0 10-1.6v-14.2c-3 1.4-6.7 2.7-10 2.7-6.3 0-13.8-4.5-16.1-6.3z"/>
        </g>
    </g>
    <path fill="#999" d="M0 276h24v144H0z"/>
    <path fill="#999" stroke="#fff" stroke-miterlimit="10" stroke-width="8" d="M200 252h80v168h-80z"/>
    <path fill="#999" d="M456 276h24v144h-24z"/>
    <path fill="#373737" d="M0 276h24v-12H12v-12H0v24zM480 276h-24v-12h12v-12h12v24z"/>
    <path fill="none" stroke="#535353" stroke-miterlimit="10" stroke-width="2" d="M204 280.2l71.7-2.4"/>
    <path fill="#673327" d="M168.2 282.1l-68.2-4.7v-14.1h68.2v18.8z"/>
    <path fill="#673327" d="M396.6 253.6v9.7h-3.8v9.7l-224.6 9.1v-18.8h-9.1v-19.1l237.5 9.4zM159.1 263.3H90.5v-14.4l68.6-4.7v19.1z"/>
    <path fill="none" stroke="#000" stroke-miterlimit="10" d="M168 263.1l-68-.1"/>
    <path d="M168.2 282.1l-68.2-4.7v-14.1h68.2v18.8zM159.1 263.3H90.5v-14.4l68.6-4.7v19.1z" opacity=".2"/>
    <text font-family="RijksoverheidSansWebText-Bold, RijksoverheidSansWebText, sans-serif" font-size="24" font-weight="700" text-anchor="middle" x="120" y="465"/>
    <text font-family="RijksoverheidSansWebText-Bold, RijksoverheidSansWebText, sans-serif" font-size="24" font-weight="700" text-anchor="middle" x="360" y="465"/>
</svg>
