<svg data-name="Layer 1" height="480" viewBox="0 0 360 480" width="360" xmlns="http://www.w3.org/2000/svg"
     xmlns:xlink="http://www.w3.org/1999/xlink">
    <defs>
        <linearGradient gradientTransform="matrix(1 0 0 -1 2959.01 443)" gradientUnits="userSpaceOnUse" id="a"
                        x1="-2956.65" x2="-2679.57" y1="192.89" y2="192.89">
            <stop offset="0" stop-color="#422119"/>
            <stop offset=".09" stop-color="#422119"/>
            <stop offset=".21" stop-color="#5c2e23"/>
            <stop offset=".72" stop-color="#613025"/>
            <stop offset="1" stop-color="#613025"/>
        </linearGradient>
        <linearGradient id="b" x1="-2932.21" x2="-2688.83" xlink:href="#a" y1="171.55" y2="171.55"/>
    </defs>
    <title>
        draai-enkel-A
    </title>
    <path d="M65.8 250.2h57" fill="none" stroke="#999" stroke-dasharray="8" stroke-miterlimit="10"/>
    <path d="M282 251.9h63M186 275.9h144" fill="none" stroke="#d1c1be" stroke-miterlimit="10" stroke-width="3"/>
    <path d="M330 404.9a43.2 43.2 0 0 1-8.2-4.4l-4-3-4 3c-2.2 1.6-9.8 6.2-16.2 6.2s-13.9-4.5-16.2-6.2l-4-3-4 3a41 41 0 0 1-7.4 4.1v-.5a26.9 26.9 0 0 1-9.2 2.6c-6.3-.2-13.6-4.5-15.8-6.2l-4-3-.6.4-.6-.4-4 3c-2.1 1.5-9.4 6-15.7 6.2s-13.3-4.6-15.6-6.2l-4-3-.5.4-.6-.4-4 3c-2.1 1.6-9.2 5.9-15.5 6.2a25 25 0 0 1-9.9-2.8v.5a32.5 32.5 0 0 1-7-4l-4-3-4 3c-2.3 1.7-9.9 6.3-16.3 6.3s-13.9-4.5-16.2-6.3l-4-3-4 3c-2.2 1.7-9.8 6.3-16.2 6.3a26.4 26.4 0 0 1-10.3-2.8v14.2a35.9 35.9 0 0 0 10.3 1.8c8 0 15.7-3.6 20.2-6.3 4.5 2.7 12.1 6.3 20.2 6.3s15.7-3.6 20.2-6.2c4.5 2.6 12.2 6.2 20.2 6.2h1.2c7.7 0 15-3.3 19.6-5.9 4.5 2.6 11.9 6 19.7 6h1.1c7.7 0 15.1-3.3 19.6-6 4.6 2.6 11.9 6 19.7 6h1.1c8.1 0 15.7-3.6 20.2-6.3 4.6 2.7 12.2 6.3 20.3 6.3s15.7-3.6 20.2-6.3a45.1 45.1 0 0 0 12.2 5.1zM330 374.6a34.6 34.6 0 0 1-8.2-4.5l-4-3-4 3c-2.1 1.7-9.7 6.3-16.1 6.3s-14-4.5-16.3-6.3l-4-3-4 3a36.2 36.2 0 0 1-7.4 4.2 72.1 72.1 0 0 1-9.2 2.1c-6.4-.3-13.6-4.5-15.8-6.3l-5.2-3-4 3c-2.1 1.7-9.7 6.3-16.1 6.3s-13-4.6-15.2-6.3l-4-3h-1.1l-4 3c-2.1 1.6-9.2 5.9-15.5 6.2-3.4-.2-9.9-2.2-9.9-2.2a37.3 37.3 0 0 1-7-4l-4-3-4 3c-2.3 1.7-9.9 6.3-16.3 6.3s-13.8-4.5-16.2-6.3l-4-3-4 3c-2.1 1.6-9.7 6.2-16.2 6.2a23.2 23.2 0 0 1-10.3-2.7v14.2a32.8 32.8 0 0 0 10.3 1.8c8 0 15.7-3.6 20.2-6.3 4.5 2.7 12.1 6.3 20.2 6.3s15.7-3.6 20.2-6.3c4.5 2.7 12.2 6.3 20.2 6.3h1.2c7.7 0 15.1-3.4 19.6-6 4.6 2.6 11.9 6 19.7 6h1.1c7.7 0 15.1-3.4 19.6-6 4.6 2.6 11.9 6 19.7 6h1.1c8.1 0 15.7-3.6 20.2-6.3 4.6 2.7 12.2 6.3 20.3 6.3s15.7-3.6 20.2-6.3a48.8 48.8 0 0 0 12.2 5.2z"
          fill="#7dcef1"/>
    <path d="M336 275.9h24v144h-24z" fill="#999"/>
    <path d="M360 276h-24v-12h12v-12h12v24zM0 276h24v-12H12v-12H0v24z" fill="#373737"/>
    <path d="M0 275.9h24v144H0zM36 263.9h42v156H36z" fill="#999"/>
    <path d="M2.4 247.8v13.5h277v-7.7c0-.2.1-1.2-.1-1.3a10 10 0 0 0-3.9-.4l-5.7-.4-22.7-1.3-32.8-2-37.4-2.3-36.4-2.2-29.9-1.8-17.7-1.1c-9.8-.6-19.6-1.1-29.4-1.4s-19.3-.5-28.9-.5c-4.7 0-9.4 0-14 .2a141.3 141.3 0 0 0-14.6.8c-.9.1-3.2.2-3.5 1.2a2 2 0 0 0 0 1.1z"
          fill="url(#a)"/>
    <path d="M270.1 265.3v-4H26.8v18.8c.3.8 3 .8 3.7.9 4.4.4 8.8.5 13.2.5 12.9.2 25.8-.2 38.7-1l9.5-.5 23.2-1.3 32.1-1.8 35.9-2 34.9-2 28.8-1.6 17.9-1 3.2-.2c.5 0 1.8.1 2.1-.2s0-1 0-1.2z"
          fill="url(#b)"/>
    <path d="M2.4 261.1h277" fill="none" stroke="#000" stroke-miterlimit="10"/>
    <text font-family="RijksoverheidSansWebText-Bold, RijksoverheidSansWebText, sans-serif" font-size="36"
          font-weight="700" text-anchor="middle" x="180" y="465"/>
    </svg>