<svg id="77b4a7e7-2d79-496f-82ed-4352d0efadbc" data-name="Layer 1" xmlns="http://www.w3.org/2000/svg" xmlns:xlink="http://www.w3.org/1999/xlink" width="480" height="432" viewBox="0 0 480 432">
  <defs>
    <symbol id="4c195016-b216-4e71-9183-ea4b94f823ed" data-name="golven" viewBox="0 0 182 52.8">
      <path d="M155.9,33.4l-4.1-3.1-4,3.1c-2.2,1.6-9.8,6.2-16.2,6.2s-13.9-4.5-16.2-6.2l-4-3.1-4.1,3.1c-2.1,1.6-9.7,6.2-16.2,6.2S77.3,35.1,75,33.4l-4.1-3.1-4,3.1c-2.2,1.6-9.8,6.2-16.2,6.2s-13.8-4.5-16.2-6.2l-4-3.1-4.1,3.1c-2.1,1.6-9.7,6.2-16.1,6.2A24.8,24.8,0,0,1,0,36.8V51a31.8,31.8,0,0,0,10.3,1.8c8,0,15.7-3.6,20.2-6.3,4.5,2.7,12.1,6.3,20.2,6.3s15.7-3.6,20.2-6.3c4.5,2.7,12.2,6.3,20.2,6.3s15.8-3.6,20.3-6.3c4.5,2.7,12.1,6.3,20.2,6.3s15.7-3.6,20.2-6.3c4.5,2.7,12.2,6.3,20.2,6.3a32.8,32.8,0,0,0,10-1.7V37a25.1,25.1,0,0,1-10,2.6C165.7,39.6,158.2,35.1,155.9,33.4Z" fill="#7dcef1"/>
      <path d="M155.9,3l-4.1-3-4,3c-2.2,1.7-9.8,6.3-16.2,6.3S117.7,4.8,115.4,3l-4-3-4.1,3c-2.1,1.7-9.7,6.3-16.2,6.3S77.3,4.8,75,3L70.9,0l-4,3c-2.2,1.7-9.8,6.3-16.2,6.3S36.9,4.8,34.5,3l-4-3L26.4,3c-2.1,1.7-9.7,6.3-16.1,6.3A24.8,24.8,0,0,1,0,6.5V20.7a34.7,34.7,0,0,0,10.3,1.7c8,0,15.7-3.6,20.2-6.2,4.5,2.6,12.1,6.2,20.2,6.2s15.7-3.6,20.2-6.2c4.5,2.6,12.2,6.2,20.2,6.2s15.8-3.6,20.3-6.2c4.5,2.6,12.1,6.2,20.2,6.2s15.7-3.6,20.2-6.2c4.5,2.6,12.2,6.2,20.2,6.2a32.7,32.7,0,0,0,10-1.6V6.6c-3,1.4-6.7,2.7-10,2.7C165.7,9.3,158.2,4.8,155.9,3Z" fill="#7dcef1"/>
    </symbol>
  </defs>
  <title>draai</title>
  <line x1="480" y1="274.5" y2="274.5" fill="none" stroke="#d1c1be" stroke-miterlimit="10" stroke-width="3"/>
  <line y1="253.5" x2="480" y2="253.5" fill="none" stroke="#d1c1be" stroke-miterlimit="10" stroke-width="3"/>
  <g id="b48b933a-48ff-4ca5-8809-f83523314883" data-name="golfje">
    <use width="182" height="52.78" transform="translate(29 362)" xlink:href="#4c195016-b216-4e71-9183-ea4b94f823ed"/>
    <use id="f722770a-b4fc-422e-af53-c51df2de2287" data-name="golven" width="182" height="52.78" transform="translate(269 362)" xlink:href="#4c195016-b216-4e71-9183-ea4b94f823ed"/>
  </g>
  <rect y="276" width="24" height="144" fill="#999"/>
  <rect x="200" y="252" width="80" height="168" fill="#999" stroke="#fff" stroke-miterlimit="10" stroke-width="8"/>
  <rect x="456" y="276" width="24" height="144" fill="#999"/>
  <polygon points="0 276 12 276 24 276 24 264 12 264 12 252 0 252 0 264 0 276" fill="#373737"/>
  <polygon points="480 276 468 276 456 276 456 264 468 264 468 252 480 252 480 264 480 276" fill="#373737"/>
  <line x1="204" y1="280.2" x2="275.7" y2="277.8" fill="none" stroke="#535353" stroke-miterlimit="10" stroke-width="2"/>
  <polygon points="168.2 282.1 100 277.4 100 263.3 168.2 263.3 168.2 282.1" fill="#673327"/>
  <polygon points="396.6 253.6 396.6 263.3 392.8 263.3 392.8 273 168.2 282.1 168.2 263.3 159.1 263.3 159.1 244.2 396.6 253.6" fill="#673327"/>
  <polygon points="159.1 263.3 90.5 263.3 90.5 248.9 159.1 244.2 159.1 263.3" fill="#673327"/>
  <line x1="168" y1="263.1" x2="100" y2="263" fill="none" stroke="#000" stroke-miterlimit="10"/>
  <g opacity="0.2">
    <polygon points="168.2 282.1 100 277.4 100 263.3 168.2 263.3 168.2 282.1"/>
  </g>
  <g opacity="0.2">
    <polygon points="159.1 263.3 90.5 263.3 90.5 248.9 159.1 244.2 159.1 263.3"/>
  </g>
</svg>
