<svg data-name="Layer 1" height="480" viewBox="0 0 480 480" width="480" xmlns="http://www.w3.org/2000/svg" xmlns:xlink="http://www.w3.org/1999/xlink">
    <defs>
        <symbol data-name="golven" id="a" viewBox="0 0 182 52.78">
            <path d="M155.86 33.37l-4-3-4 3C145.61 35 138 39.6 131.59 39.6s-13.85-4.51-16.18-6.23l-4-3-4 3c-2.24 1.63-9.85 6.23-16.27 6.23S77.29 35.09 75 33.37l-4-3-4 3C64.72 35 57.12 39.6 50.7 39.6s-13.85-4.51-16.18-6.23l-4-3-4 3C24.28 35 16.68 39.6 10.26 39.6A25.17 25.17 0 0 1 0 36.81V51a33.57 33.57 0 0 0 10.26 1.75c8.08 0 15.72-3.63 20.22-6.28 4.52 2.68 12.14 6.31 20.22 6.31s15.72-3.63 20.22-6.28c4.51 2.65 12.14 6.28 20.22 6.28s15.72-3.63 20.22-6.28c4.51 2.65 12.14 6.28 20.22 6.28s15.72-3.63 20.22-6.28c4.51 2.65 12.14 6.28 20.22 6.28a33.33 33.33 0 0 0 10-1.66V37a24.9 24.9 0 0 1-10 2.65c-6.36-.05-13.84-4.56-16.16-6.28zm0-30.37l-4-3-4 3c-2.16 1.62-9.76 6.23-16.18 6.23S117.74 4.76 115.41 3l-4-3-4 3c-2.16 1.62-9.76 6.23-16.18 6.23S77.29 4.76 75 3l-4-3-4 3c-2.28 1.65-9.88 6.27-16.3 6.27S36.85 4.76 34.52 3l-4-3-4 3c-2.16 1.62-9.76 6.23-16.18 6.23A25.17 25.17 0 0 1 0 6.48V20.7a33.57 33.57 0 0 0 10.26 1.75c8.08 0 15.72-3.63 20.22-6.28 4.52 2.65 12.14 6.28 20.22 6.28s15.72-3.63 20.22-6.28c4.51 2.65 12.14 6.28 20.22 6.28s15.72-3.63 20.22-6.28c4.51 2.65 12.14 6.28 20.22 6.28s15.72-3.63 20.22-6.28c4.51 2.65 12.14 6.28 20.22 6.28a33.33 33.33 0 0 0 10-1.66V6.62a24.9 24.9 0 0 1-10 2.65c-6.36 0-13.84-4.51-16.16-6.27z" fill="#7dcef1"/>
        </symbol>
    </defs>
    <title>draai</title>
    <path d="M29.5 263.75h56.97m311.53 0h56.97" fill="none" stroke="#999" stroke-dasharray="8" stroke-miterlimit="10"/>
    <g data-name="golfje">
        <use height="52.78" transform="translate(29 361.99)" width="182" xlink:href="#a"/>
        <use data-name="golven" height="52.78" transform="translate(269 361.99)" width="182" xlink:href="#a"/>
    </g>
    <g data-name="brug onderkant">
        <path d="M0 276h24v144H0z" fill="#999"/>
        <path d="M200 252h80v168h-80z" fill="#999" stroke="#fff" stroke-miterlimit="10" stroke-width="8"/>
        <path d="M456 276h24v144h-24z" fill="#999"/>
        <path d="M0 276h24v-12H12v-12H0v24zm480 0h-24v-12h12v-12h12v24z" fill="#373737"/>
        <path d="M204 280.25l71.67-2.49" fill="none" stroke="#535353" stroke-miterlimit="10" stroke-width="2"/>
        <path d="M0 274.5h-240m0-21H0" fill="none" stroke="#d1c1be" stroke-miterlimit="10" stroke-width="3"/>
    </g>
    <path d="M168.2 282.05l-68.2-4.68v-14.12h68.2v18.8z" fill="#673327"/>
    <path d="M396.63 253.56v9.69h-3.87v9.78l-224.56 9.02v-18.8h-9.07v-19l237.5 9.31zm-237.5 9.69H90.46v-14.31l68.67-4.69v19z" fill="#673327"/>
    <path d="M168 263.13l-68-.13" fill="none" stroke="#000" stroke-miterlimit="10"/>
    <path d="M168.2 282.05l-68.2-4.68v-14.12h68.2v18.8zm-9.07-18.8H90.46v-14.31l68.67-4.69v19z" opacity=".2"/>
    <text font-family="sans-serif" font-size="36" text-anchor="middle" x="240" y="468"/>
</svg>