<svg data-name="Layer 1" height="480" viewBox="0 0 360 480" width="360" xmlns="http://www.w3.org/2000/svg" xmlns:xlink="http://www.w3.org/1999/xlink">
    <defs>
        <linearGradient gradientTransform="rotate(180 1921.25 221.5)" gradientUnits="userSpaceOnUse" id="a" x1="3761.94" x2="3484.88" y1="192.86" y2="192.86">
            <stop offset="0" stop-color="#422119"/>
            <stop offset=".69" stop-color="#422119"/>
            <stop offset=".83" stop-color="#5c2e23"/>
            <stop offset=".92" stop-color="#613025"/>
            <stop offset="1" stop-color="#422119"/>
        </linearGradient>
        <linearGradient id="b" x1="3752.66" x2="3509.3" xlink:href="#a" y1="171.52" y2="171.52"/>
    </defs>
    <title>
        draai-enkel-B
    </title>
    <path d="M30 404.9a38.2 38.2 0 0 0 8.2-4.4l4-3 4 3c2.2 1.6 9.8 6.2 16.2 6.2s13.9-4.5 16.2-6.2l4-3 4 3a41 41 0 0 0 7.4 4.1v-.5a23.1 23.1 0 0 0 9.2 2.6c6.3-.1 13.6-4.5 15.8-6.2l4-3 .6.4.6-.4 3.9 3c2.2 1.6 9.5 6 15.8 6.2s13.3-4.5 15.6-6.2l4-3 .5.4.6-.4 4 3c2.2 1.6 9.3 5.9 15.5 6.2a24.5 24.5 0 0 0 9.9-2.8v.6a43.8 43.8 0 0 0 7-4l4-3 4 3c2.3 1.6 9.9 6.2 16.3 6.2s13.9-4.5 16.2-6.2l4-3 4 3c2.2 1.6 9.8 6.2 16.2 6.2a24.8 24.8 0 0 0 10.3-2.8v14.2a30.2 30.2 0 0 1-10.3 1.8c-8 0-15.7-3.6-20.2-6.2-4.5 2.6-12.1 6.2-20.2 6.2s-15.7-3.6-20.2-6.2c-4.5 2.6-12.2 6.2-20.2 6.2h-1.1c-7.8 0-15.1-3.3-19.7-5.9-4.5 2.6-11.9 6-19.7 6h-1.1c-7.7 0-15.1-3.3-19.6-6-4.6 2.6-11.9 6-19.7 6h-1.1c-8.1 0-15.7-3.6-20.2-6.3-4.6 2.6-12.2 6.2-20.3 6.2s-15.7-3.6-20.2-6.2a52.7 52.7 0 0 1-12.2 5.2zM30 374.6a38.2 38.2 0 0 0 8.2-4.4l4-3 4 3c2.1 1.6 9.7 6.2 16.1 6.2s14-4.5 16.3-6.2l4-3 4 3a41 41 0 0 0 7.4 4.1 72.1 72.1 0 0 0 9.2 2.1c6.3-.2 13.6-4.5 15.8-6.2l5.2-3 4 3c2.1 1.6 9.7 6.2 16.1 6.2s13-4.6 15.2-6.2l4-3h1.1l4 3c2.1 1.5 9.2 5.9 15.5 6.2 3.4-.2 9.9-2.3 9.9-2.3a32.5 32.5 0 0 0 7-4l4-3 4 3c2.3 1.7 9.9 6.3 16.3 6.3s13.9-4.5 16.2-6.3l4-3 4 3c2.1 1.7 9.7 6.3 16.2 6.3a24.8 24.8 0 0 0 10.3-2.8v14.3a32.7 32.7 0 0 1-10.3 1.7c-8 0-15.7-3.6-20.2-6.3-4.5 2.7-12.1 6.3-20.2 6.3s-15.7-3.6-20.2-6.3c-4.5 2.7-12.2 6.3-20.2 6.3h-1.2c-7.7 0-15.1-3.3-19.6-6-4.6 2.6-11.9 6-19.7 6h-1.1c-7.7 0-15.1-3.3-19.6-6-4.6 2.6-11.9 6-19.7 6h-1.1c-8.1 0-15.7-3.6-20.2-6.3-4.6 2.7-12.2 6.3-20.3 6.3s-15.7-3.7-20.2-6.3a45.3 45.3 0 0 1-12.2 5.2z" fill="#7dcef1"/>
    <path fill="none" stroke="#999" stroke-dasharray="8" stroke-miterlimit="10" d="M294.2 250.2h-57"/>
    <path fill="none" stroke="#d1c1be" stroke-miterlimit="10" stroke-width="3" d="M78 251.9H15M174 275.9H30"/>
    <path d="M24 275.9H0v144h24z" fill="#999"/>
    <path fill="#373737" d="M0 275.9h24v-12H12v-12H0v24zM360 275.9h-24v-12h12v-12h12v24z"/>
    <path d="M360 275.9h-24v144h24zM282 263.9h42v156h-42z" fill="#999"/>
    <path d="M357.6 247.8v13.5h-277v-7.6c0-.2-.1-1.3.1-1.4s2.7-.3 3.9-.4l5.7-.3 22.7-1.4 32.8-2 37.4-2.3 36.4-2.2 29.9-1.8 17.7-1.1c9.8-.6 19.6-1 29.4-1.4s19.3-.4 28.9-.4h14a143 143 0 0 1 14.6.9c.8.1 3.2.2 3.5 1.2v6.6z" fill="url(#a)"/>
    <path d="M89.9 265.4v-4h243.3v18.7c-.3.9-3 .9-3.7.9-4.4.5-8.8.5-13.2.6-12.9.1-25.8-.3-38.7-1l-9.5-.6-23.2-1.3-32.1-1.8-35.9-2-34.9-2-28.8-1.6-17.9-1-3.2-.2c-.5 0-1.8.1-2.1-.2s0-1 0-1.2z" fill="url(#b)"/>
    <path fill="none" stroke="#000" stroke-miterlimit="10" d="M357.6 261.1H80.7"/>
    <text font-family="RijksoverheidSansWebText-Bold, RijksoverheidSansWebText, sans-serif" font-size="36" font-weight="700" text-anchor="middle" x="180" y="465"/>
</svg>
