<svg data-name="Layer 1" height="480" viewBox="0 0 456 480" width="456" xmlns="http://www.w3.org/2000/svg">
    <title>
        dubbele-bascule
    </title>
    <path d="M24 274.8h24l168-12h7.5v-9H24M432 274.8h-24l-168-12h-9v-9h201" fill="none" stroke="#d1c1be"
          stroke-miterlimit="10" stroke-width="3"/>
    <path d="M432 276h24v144h-24zM0 252.2h24v167.75H0z" fill="#999"/>
    <path d="M456 276h-24v-23.7l12-.3h12v24zM0 252h24v24H0z" fill="#373737"/>
    <path d="M424 400.3a42.6 42.6 0 0 1-9.4-4.9l-4.1-3.1-4 3.1c-2.4 1.7-9.8 6.2-16.2 6.2s-14-4.6-16.2-6.2l-4-3.1-4.1 3.1c-2.3 1.7-9.8 6.2-16.1 6.2s-14.1-4.6-16.2-6.2l-4.1-3.1-4 3.1a44.2 44.2 0 0 1-6.1 3.5 24.7 24.7 0 0 1-10.2 2.8c-6.4 0-13.9-4.6-16.1-6.2l-4-3.1h-.2l-4 3.1c-2.3 1.7-9.8 6.2-16.1 6.2-3.3 0-6.9-1.3-9.9-2.7a38.9 38.9 0 0 1-6.4-3.6l-4-3.1-4.1 3.1c-2.3 1.7-9.8 6.2-16.1 6.2s-14.1-4.6-16.2-6.2l-4.1-3.1-4 3.1a34.7 34.7 0 0 1-7.1 3.9v-.4a24.6 24.6 0 0 1-9.5 2.7c-6.4-.2-13.7-4.7-15.8-6.2l-4-3.1-.5.4-.4-.4-4 3.1c-2.1 1.5-9.4 6-15.8 6.2a24.6 24.6 0 0 1-9.5-2.7v.4a34.7 34.7 0 0 1-7.1-3.9l-4-3.1-4.1 3.1c-2.1 1.6-9.7 6.2-16.2 6.2s-13.8-4.5-16.1-6.2l-4.1-3.1-4 3.1c-2.2 1.6-9.8 6.2-16.2 6.2s-13.8-4.5-16.2-6.2l-4-3.1-4.1 3.1a42.6 42.6 0 0 1-9.4 4.9V414a47.8 47.8 0 0 0 13.5-5.5c4.5 2.6 12.1 6.3 20.2 6.3s15.7-3.7 20.2-6.3c4.5 2.6 12.2 6.3 20.2 6.3s15.8-3.7 20.3-6.3c4.5 2.6 12.1 6.3 20.2 6.3h.9c7.8 0 15.2-3.4 19.7-6.1 4.6 2.7 12 6.1 19.8 6.1h.9c8.1 0 15.7-3.7 20.2-6.3 4.5 2.6 12.2 6.3 20.3 6.3s15.7-3.7 20.2-6.3c4.5 2.6 12.1 6.3 20.2 6.3h.2c8 0 15.6-3.6 20.1-6.3 4.5 2.7 12.1 6.3 20.1 6.3h.2c8.1 0 15.7-3.7 20.2-6.3 4.5 2.6 12.2 6.3 20.3 6.3s15.7-3.7 20.2-6.3c4.5 2.6 12.1 6.3 20.2 6.3s15.7-3.7 20.2-6.3A47.8 47.8 0 0 0 424 414z"
          fill="#7dcef1"/>
    <circle cx="24" cy="252.2" fill="#673327" r="6"/>
    <path d="M159.8 116.5L24 252.3l17 16.9 16.9-16.9L168.3 125l8.4-8.5-8.4-8.5-8.5 8.5z" fill="#673327"/>
    <path d="M204.3 226.1a181.6 181.6 0 0 0-26.6-71.8l8-6-27.5-11.8 3.5 29.7 8-5.9a172.7 172.7 0 0 1 24.6 66.5l-9.8.6 16.7 24.8 13.2-26.8z"
          fill="#d1c1be"/>
    <circle cx="432" cy="252.2" fill="#673327" r="6"/>
    <path d="M296.2 116.5L432 252.3l-17 16.9-16.9-16.9L287.8 125l-8.5-8.5 8.5-8.5 8.4 8.5z" fill="#673327"/>
    <path d="M294.3 166.2l3.5-29.7-27.5 11.8 8 6a181.6 181.6 0 0 0-26.6 71.8l-10.1-.7 13.2 26.8 16.7-24.8-9.8-.6a172.7 172.7 0 0 1 24.6-66.5z"
          fill="#d1c1be"/>
    <path d="M424 369.9a38.6 38.6 0 0 1-9.4-4.9l-4.1-3-4 3c-2.4 1.8-9.8 6.3-16.2 6.3s-14-4.7-16.2-6.3l-4-3-4.1 3c-2.3 1.8-9.8 6.3-16.1 6.3s-14.1-4.7-16.2-6.3l-4.1-3-4 3a42.5 42.5 0 0 1-6.1 3.6 28.2 28.2 0 0 1-10.2 2.8c-6.4-.1-13.9-4.7-16.1-6.3l-4-3h-.2l-4 3c-2.3 1.7-9.8 6.2-16.1 6.3a26.6 26.6 0 0 1-9.9-2.7 37.7 37.7 0 0 1-6.4-3.7l-4-3-4.1 3c-2.3 1.8-9.8 6.3-16.1 6.3s-14.1-4.7-16.2-6.3l-4.1-3-4 3a39.3 39.3 0 0 1-7.1 4v-.4a24.5 24.5 0 0 1-9.5 2.6c-6.4-.2-13.7-4.6-15.8-6.2l-4-3-.5.3-.4-.3-4 3c-2.1 1.6-9.4 6-15.8 6.2a24.5 24.5 0 0 1-9.5-2.6v.4a39.3 39.3 0 0 1-7.1-4l-4-3-4.1 3c-2.1 1.6-9.7 6.3-16.2 6.3S92.3 366.8 90 365l-4.1-3-4 3c-2.2 1.6-9.8 6.3-16.2 6.3s-13.8-4.5-16.2-6.3l-4-3-4.1 3a38.6 38.6 0 0 1-9.4 4.9v13.8a50.9 50.9 0 0 0 13.5-5.5c4.5 2.6 12.1 6.2 20.2 6.2s15.7-3.6 20.2-6.2c4.5 2.6 12.2 6.2 20.2 6.2s15.8-3.6 20.3-6.2c4.5 2.6 12.1 6.2 20.2 6.2h.9c7.8 0 15.2-3.4 19.7-6 4.6 2.6 12 6 19.8 6h.9c8.1 0 15.7-3.6 20.2-6.2 4.5 2.6 12.2 6.2 20.3 6.2s15.7-3.6 20.2-6.2c4.5 2.6 12.1 6.2 20.2 6.2h.2c8 0 15.6-3.5 20.1-6.2 4.5 2.7 12.1 6.2 20.1 6.2h.2c8.1 0 15.7-3.6 20.2-6.2 4.5 2.6 12.2 6.2 20.3 6.2s15.7-3.6 20.2-6.2c4.5 2.6 12.1 6.2 20.2 6.2s15.7-3.6 20.2-6.2a50.9 50.9 0 0 0 13.5 5.5z"
          fill="#7dcef1"/>
    <text font-family="RijksoverheidSansWebText-Bold, RijksoverheidSansWebText, sans-serif" font-size="36"
          font-weight="700" text-anchor="middle" x="228" y="465"/>
    <text font-family="RijksoverheidSansWebText-Bold, RijksoverheidSansWebText, sans-serif" font-size="36"
          font-weight="700" text-anchor="middle" x="228" y="465"/>
</svg>