<svg height="480" viewBox="0 0 552 480" width="552" xmlns="http://www.w3.org/2000/svg">
    <style>
        .st0{fill:#673327}.st1{fill:#7dcef1}.st2{fill:#fff}.st3{fill:#999}.st4,.st5,.st6{fill:none;stroke:#673327;stroke-width:5;stroke-miterlimit:10}.st5,.st6{stroke:#d1c1be;stroke-width:3}.st6{stroke-width:10}.st7{fill:#d1c1be}.st8{fill:#373737}
    </style>
    <title>dubbele-ophaalbrug</title>
    <path class="st0" d="M510 129.9h-24l-6 124h36l-6-124z"/>
    <path class="st1" d="M462.5 395.4l-4-3-4 3c-2.3 1.7-9.8 6.2-16.2 6.2-6.4 0-14-4.6-16.3-6.2l-4-3-4 3c-2.3 1.7-9.7 6.2-16.1 6.2-6.4 0-14-4.6-16.3-6.2l-4-3-4 3c-1.1.8-3.4 2.3-6.1 3.5v-.1c-3.2 1.6-6.6 2.6-10.2 2.8-6.4-.1-13.9-4.6-16.1-6.2l-4-3-.1.1-.1-.1-4 3c-2.3 1.7-9.8 6.2-16.2 6.2h-1.1c-1.4-.1-2.8-.4-4.1-.8-1-.3-2-.6-3-1-.6-.2-1.1-.5-1.6-.7-2.9-1.3-5.4-2.9-6.5-3.7l-4-3-4 3c-2.3 1.7-9.7 6.2-16.1 6.2-6.4 0-14-4.6-16.3-6.2l-4-3-4 3c-1.2.9-3.9 2.6-7.1 4v-.4c-2.9 1.5-6 2.3-9.2 2.6-6.4-.1-13.9-4.6-16.1-6.2l-4-3-.4.3-.4-.3-4 3c-2.2 1.6-9.7 6.1-16.1 6.2-3.2-.3-6.4-1.1-9.2-2.6v.4c-3.2-1.4-5.9-3.1-7.1-4l-4-3-4 3c-2.2 1.6-9.8 6.2-16.3 6.2-6.4 0-13.8-4.5-16.1-6.2l-4-3-4 3c-2.3 1.6-9.9 6.2-16.3 6.2s-13.8-4.5-16.2-6.2l-4-3-4 3c-2.2 1.6-9.8 6.2-16.3 6.2-3.6-.2-7.1-1.1-10.3-2.8V413c3.3 1.1 6.8 1.7 10.3 1.7 8.1 0 15.7-3.6 20.2-6.3 4.5 2.7 12.1 6.3 20.2 6.3s15.7-3.6 20.2-6.3c4.5 2.6 12.1 6.3 20.2 6.3s15.7-3.6 20.2-6.3c4.5 2.6 12.1 6.3 20.2 6.3h.9c7.8 0 15.2-3.4 19.8-6 4.6 2.6 11.9 6 19.8 6h.9c8.1 0 15.7-3.6 20.2-6.3 4.5 2.6 12.1 6.3 20.2 6.3s15.7-3.6 20.2-6.3c4.5 2.6 12.1 6.3 20.2 6.3h.2c8 0 15.6-3.6 20.1-6.2 3.7 2.2 9.4 4.9 15.7 5.9 1.5.2 3 .4 4.6.4 8.1 0 15.7-3.6 20.2-6.3 4.5 2.6 12.1 6.3 20.2 6.3s15.7-3.6 20.2-6.3c4.5 2.6 12.1 6.3 20.2 6.3s15.7-3.6 20.2-6.3c4.5 2.6 12.1 6.3 20.2 6.3 3.5 0 7-.6 10.3-1.7v-14.2c-3.2 1.6-6.7 2.6-10.3 2.8-6.2-.1-13.8-4.7-16-6.3zm16.2-24.2c-6.4 0-14-4.6-16.2-6.2l-4-3-4 3c-2.3 1.8-9.8 6.3-16.2 6.3-6.4 0-14-4.6-16.3-6.3l-4-3-4 3c-2.3 1.8-9.8 6.2-16.2 6.2s-14-4.6-16.2-6.2l-4-3-4 3c-1.1.8-3.4 2.3-6.1 3.5v-.1c-3.2 1.6-6.7 2.6-10.3 2.7-6.4-.1-13.9-4.6-16.1-6.2l-4-3-.1.1-4 3c-2.3 1.7-9.7 6.2-16.1 6.3-3.5-.2-6.8-1.1-9.9-2.6v.1c-2.9-1.3-5.4-2.9-6.5-3.7l-4-3-4 3c-2.3 1.8-9.8 6.2-16.2 6.2s-14-4.6-16.2-6.2l-4-3-4 3c-1.2.9-3.9 2.6-7.1 4v-.4c-2.9 1.5-6.1 2.4-9.4 2.6-6.4-.1-13.8-4.6-16-6.2l-4-3-.4.3-.4-.3-4 3c-2.1 1.6-9.6 6.1-16 6.2-3.3-.2-6.4-1.1-9.4-2.6v.4c-3.2-1.4-5.9-3.1-7.1-4l-4-3-4 3c-2.2 1.6-9.8 6.2-16.2 6.2s-13.9-4.5-16.2-6.2l-4-3-4 3c-2.3 1.6-9.9 6.3-16.3 6.3s-13.8-4.5-16.2-6.3l-4-3-4 3c-2.2 1.6-9.8 6.2-16.2 6.2-3.6-.2-7.1-1.1-10.3-2.7v14.2c3.3 1.1 6.8 1.7 10.3 1.7 8.1 0 15.7-3.6 20.2-6.3 4.5 2.6 12.1 6.3 20.2 6.3s15.7-3.6 20.2-6.3c4.5 2.6 12.1 6.3 20.2 6.3s15.7-3.6 20.2-6.3c4.5 2.6 12.1 6.3 20.2 6.3h.9c7.8 0 15.2-3.4 19.8-6 4.6 2.6 11.9 6 19.8 6h.9c8.1 0 15.7-3.6 20.2-6.3 4.5 2.6 12.1 6.3 20.2 6.3s15.7-3.6 20.2-6.3c4.5 2.6 12.1 6.3 20.2 6.3h.2c8 0 15.6-3.6 20.1-6.2 4.5 2.6 12.1 6.2 20.1 6.2h.2c8.1 0 15.7-3.6 20.2-6.3 4.5 2.6 12.1 6.3 20.2 6.3s15.7-3.6 20.2-6.3c4.5 2.6 12.1 6.3 20.2 6.3s15.7-3.6 20.2-6.3c4.5 2.6 12.1 6.3 20.2 6.3 3.5 0 7-.6 10.3-1.7v-14.2c-2.9 1.5-6.4 2.5-10 2.6z" id="a"/>
    <path class="st2" d="M72 338h8v82h-8v-82z"/>
    <path class="st3" d="M0 252.2h72V420H0V252.2z"/>
    <path class="st0" d="M42 129.9h24l6 124H36l6-124z"/>
    <path class="st4" d="M233.3 33v129.3"/>
    <path class="st5" d="M72 274.8h24l168-12h7.5v-9H72"/>
    <path class="st0" d="M9.3 189.7l-8.1-32.5c-1.2-4.8 1.1-10.5 5.1-12.6L237.2 23.1c3.6-1.9 7.3 0 8.4 4.4 1.1 4.4-.8 9.7-4.3 12.1l-222.7 154c-3.8 2.6-8.1.8-9.3-3.9zM236 152.3L72 252.2l12.5 20.5 20.5-12.5 137.2-97.7 10.2-6.2-6.2-10.2-10.2 6.2z"/>
    <path class="st6" d="M238.4 191.2c4.7 12.8 7.9 26.1 9.5 39.6"/>
    <path class="st7" d="M226.1 201.1l3.7-29.7 23.9 18-27.6 11.7zm6.3 26.4l16.8 24.8 13.1-26.9-29.9 2.1z"/>
    <path class="st8" d="M0 252h72v24H0v-24z"/>
    <path class="st2" d="M480 420h-8v-82h8v82z"/>
    <path class="st3" d="M480 252.2h72V420h-72V252.2z"/>
    <path class="st8" d="M480 252h72v24h-72v-24z"/>
    <path class="st4" d="M318.7 33v129.3"/>
    <path class="st5" d="M480 274.8h-24l-168-12h-7.5v-9H480"/>
    <path class="st0" d="M542.7 189.7l8.1-32.5c1.2-4.8-1.2-10.5-5.1-12.6L314.8 23.1c-3.6-1.9-7.3 0-8.4 4.4-1.1 4.4.8 9.7 4.3 12.1l222.7 153.9c3.8 2.7 8.1.9 9.3-3.8zM316 152.3l164 99.9-12.5 20.5-20.5-12.4-137.2-97.7-10.2-6.2 6.2-10.2 10.2 6.1z"/>
    <path class="st6" d="M313.6 191.2c-4.7 12.8-7.9 26.1-9.5 39.6"/>
    <path class="st7" d="M298.4 189.4l23.9-18 3.7 29.7-27.6-11.7zm-8.7 35.9l13.1 26.9 16.8-24.8-29.9-2.1z"/>
    <circle class="st0" cx="480.8" cy="252.2" r="6"/>
    <circle class="st0" cx="72" cy="252.2" r="6"/>
    <text font-family="sans-serif" font-size="36" text-anchor="middle" x="276" y="468"/>

</svg>