<svg id="fc0f8451-8081-49e1-9670-46d4bbecabbd" data-name="Layer 1" xmlns="http://www.w3.org/2000/svg" width="456" height="432" viewBox="0 0 456 432">
  <title>dubbele-bascule-overtrokken</title>
  <g>
    <polygon points="432.4 62.4 432.4 254.4 411.4 254.4 411.4 230.4 423.4 62.4 423.4 51.9 432.4 51.9 432.4 62.4" fill="none" stroke="#d1c1be" stroke-miterlimit="10" stroke-width="3"/>
    <g>
      <path d="M327.5,118.4l-6.2-7.9A183.1,183.1,0,0,1,400,74.8l1.9,9.9A172,172,0,0,0,327.5,118.4Z" fill="#d1c1be"/>
      <polygon points="337.6 123.1 308.3 128.8 318 100.5 337.6 123.1" fill="#d1c1be"/>
      <polygon points="398.6 95.4 422.3 77.1 394.7 65.7 398.6 95.4" fill="#d1c1be"/>
    </g>
  </g>
  <polygon points="25.5 60.3 25.5 252.3 46.5 252.3 46.5 228.3 34.5 60.3 34.5 49.8 25.5 49.8 25.5 60.3" fill="none" stroke="#d1c1be" stroke-miterlimit="10" stroke-width="3"/>
  <polyline points="24 274.8 48 274.8 216 262.8 223.5 262.8 223.5 253.8 216 253.8 24 253.8" fill="none" stroke="#d1c1be" stroke-miterlimit="10" stroke-width="3"/>
  <polyline points="24 274.8 48 274.8 216 262.8 223.5 262.8 223.5 253.8 216 253.8 24 253.8" fill="none" stroke="#d1c1be" stroke-miterlimit="10" stroke-width="3"/>
  <g>
    <path d="M195,231.4a173.6,173.6,0,0,0-27.9-75l8.3-5.5a181.2,181.2,0,0,1,29.5,79.3Z" fill="#d1c1be"/>
    <polygon points="161.7 166.2 158.2 136.5 185.7 148.3 161.7 166.2" fill="#d1c1be"/>
    <polygon points="184.5 227.4 201.2 252.3 214.4 225.4 184.5 227.4" fill="#d1c1be"/>
  </g>
  <polyline points="432 274.8 408 274.8 240 262.8 231 262.8 231 253.8 240 253.8 432 253.8" fill="none" stroke="#d1c1be" stroke-miterlimit="10" stroke-width="3"/>
  <g>
    <path d="M261,231.4l-9.9-1.2a181.2,181.2,0,0,1,29.5-79.3l8.3,5.5A173.6,173.6,0,0,0,261,231.4Z" fill="#d1c1be"/>
    <polygon points="270.3 148.3 297.8 136.5 294.3 166.2 270.3 148.3" fill="#d1c1be"/>
    <polygon points="241.6 225.4 254.8 252.3 271.5 227.4 241.6 225.4" fill="#d1c1be"/>
  </g>
  <g>
    <path d="M130.4,116.3A173.3,173.3,0,0,0,56,82.5l1.8-9.8a183.5,183.5,0,0,1,78.8,35.7Z" fill="#d1c1be"/>
    <polygon points="139.9 98.3 149.6 126.6 120.3 120.9 139.9 98.3" fill="#d1c1be"/>
    <polygon points="63.2 63.6 35.6 75 59.2 93.2 63.2 63.6" fill="#d1c1be"/>
  </g>
  <rect x="432" y="276" width="24" height="144" fill="#999"/>
  <rect y="276" width="24" height="144" fill="#999"/>
  <polygon points="456 276 444 276 432 276 432 264 432 252.3 444 252 456 252 456 264 456 276" fill="#373737"/>
  <rect y="252" width="24" height="24" fill="#373737"/>
  <path d="M424,400.3a42.6,42.6,0,0,1-9.4-4.9l-4.1-3.1-4,3.1c-2.4,1.7-9.8,6.2-16.2,6.2s-14-4.6-16.2-6.2l-4-3.1-4.1,3.1c-2.3,1.7-9.8,6.2-16.1,6.2s-14.1-4.6-16.2-6.2l-4.1-3.1-4,3.1a44.2,44.2,0,0,1-6.1,3.5h0a24.7,24.7,0,0,1-10.2,2.8c-6.4,0-13.9-4.6-16.1-6.2l-4-3.1H289l-4,3.1c-2.3,1.7-9.8,6.2-16.1,6.2-3.3,0-6.9-1.3-9.9-2.7h0a38.9,38.9,0,0,1-6.4-3.6l-4-3.1-4.1,3.1c-2.3,1.7-9.8,6.2-16.1,6.2s-14.1-4.6-16.2-6.2l-4.1-3.1-4,3.1a34.7,34.7,0,0,1-7.1,3.9v-.4a24.6,24.6,0,0,1-9.5,2.7c-6.4-.2-13.7-4.7-15.8-6.2l-4-3.1-.5.4-.4-.4-4,3.1c-2.1,1.5-9.4,6-15.8,6.2a24.6,24.6,0,0,1-9.5-2.7v.4a34.7,34.7,0,0,1-7.1-3.9l-4-3.1-4.1,3.1c-2.1,1.6-9.7,6.2-16.2,6.2s-13.8-4.5-16.1-6.2l-4.1-3.1-4,3.1c-2.2,1.6-9.8,6.2-16.2,6.2s-13.8-4.5-16.2-6.2l-4-3.1-4.1,3.1a42.6,42.6,0,0,1-9.4,4.9V414a47.8,47.8,0,0,0,13.5-5.5c4.5,2.6,12.1,6.3,20.2,6.3s15.7-3.7,20.2-6.3c4.5,2.6,12.2,6.3,20.2,6.3s15.8-3.7,20.3-6.3c4.5,2.6,12.1,6.3,20.2,6.3h.9c7.8,0,15.2-3.4,19.7-6.1,4.6,2.7,12,6.1,19.8,6.1h.9c8.1,0,15.7-3.7,20.2-6.3,4.5,2.6,12.2,6.3,20.3,6.3s15.7-3.7,20.2-6.3c4.5,2.6,12.1,6.3,20.2,6.3h.2c8,0,15.6-3.6,20.1-6.3,4.5,2.7,12.1,6.3,20.1,6.3h.2c8.1,0,15.7-3.7,20.2-6.3,4.5,2.6,12.2,6.3,20.3,6.3s15.7-3.7,20.2-6.3c4.5,2.6,12.1,6.3,20.2,6.3s15.7-3.7,20.2-6.3A47.8,47.8,0,0,0,424,414Z" fill="#7dcef1"/>
  <path d="M424,369.9a38.6,38.6,0,0,1-9.4-4.9l-4.1-3-4,3c-2.4,1.8-9.8,6.3-16.2,6.3s-14-4.7-16.2-6.3l-4-3-4.1,3c-2.3,1.8-9.8,6.3-16.1,6.3s-14.1-4.7-16.2-6.3l-4.1-3-4,3a42.5,42.5,0,0,1-6.1,3.6h0a28.2,28.2,0,0,1-10.2,2.8c-6.4-.1-13.9-4.7-16.1-6.3l-4-3H289l-4,3c-2.3,1.7-9.8,6.2-16.1,6.3a26.6,26.6,0,0,1-9.9-2.7h0a37.7,37.7,0,0,1-6.4-3.7l-4-3-4.1,3c-2.3,1.8-9.8,6.3-16.1,6.3s-14.1-4.7-16.2-6.3l-4.1-3-4,3a39.3,39.3,0,0,1-7.1,4v-.4a24.5,24.5,0,0,1-9.5,2.6c-6.4-.2-13.7-4.6-15.8-6.2l-4-3-.5.3-.4-.3-4,3c-2.1,1.6-9.4,6-15.8,6.2a24.5,24.5,0,0,1-9.5-2.6v.4a39.3,39.3,0,0,1-7.1-4l-4-3-4.1,3c-2.1,1.6-9.7,6.3-16.2,6.3S92.3,366.8,90,365l-4.1-3-4,3c-2.2,1.6-9.8,6.3-16.2,6.3s-13.8-4.5-16.2-6.3l-4-3-4.1,3a38.6,38.6,0,0,1-9.4,4.9v13.8a50.9,50.9,0,0,0,13.5-5.5c4.5,2.6,12.1,6.2,20.2,6.2s15.7-3.6,20.2-6.2c4.5,2.6,12.2,6.2,20.2,6.2s15.8-3.6,20.3-6.2c4.5,2.6,12.1,6.2,20.2,6.2h.9c7.8,0,15.2-3.4,19.7-6,4.6,2.6,12,6,19.8,6h.9c8.1,0,15.7-3.6,20.2-6.2,4.5,2.6,12.2,6.2,20.3,6.2s15.7-3.6,20.2-6.2c4.5,2.6,12.1,6.2,20.2,6.2h.2c8,0,15.6-3.5,20.1-6.2,4.5,2.7,12.1,6.2,20.1,6.2h.2c8.1,0,15.7-3.6,20.2-6.2,4.5,2.6,12.2,6.2,20.3,6.2s15.7-3.6,20.2-6.2c4.5,2.6,12.1,6.2,20.2,6.2s15.7-3.6,20.2-6.2a50.9,50.9,0,0,0,13.5,5.5Z" fill="#7dcef1"/>
  <circle cx="24" cy="252.2" r="6" fill="#673327"/>
  <polygon points="159.8 116.5 24 252.3 41 269.2 57.9 252.3 168.3 125 176.7 116.5 168.3 108 159.8 116.5" fill="#673327"/>
  <circle cx="432" cy="252.2" r="6" fill="#673327"/>
  <polygon points="296.2 116.5 432 252.3 415 269.2 398.1 252.3 287.8 125 279.3 116.5 287.8 108 296.2 116.5" fill="#673327"/>
</svg>
