<svg data-name="Layer 1" height="432" viewBox="0 0 552 432" width="552" xmlns="http://www.w3.org/2000/svg"
     xmlns:xlink="http://www.w3.org/1999/xlink">
    <defs>
        <symbol data-name="golven" id="a" viewBox="0 0 182 52.8">
            <path d="M155.9 33.4l-4.1-3.1-4 3.1c-2.2 1.6-9.8 6.2-16.2 6.2s-13.9-4.5-16.2-6.2l-4-3.1-4.1 3.1c-2.1 1.6-9.7 6.2-16.2 6.2S77.3 35.1 75 33.4l-4.1-3.1-4 3.1c-2.2 1.6-9.8 6.2-16.2 6.2s-13.8-4.5-16.2-6.2l-4-3.1-4.1 3.1c-2.1 1.6-9.7 6.2-16.1 6.2A24.8 24.8 0 0 1 0 36.8V51a31.8 31.8 0 0 0 10.3 1.8c8 0 15.7-3.6 20.2-6.3 4.5 2.7 12.1 6.3 20.2 6.3s15.7-3.6 20.2-6.3c4.5 2.7 12.2 6.3 20.2 6.3s15.8-3.6 20.3-6.3c4.5 2.7 12.1 6.3 20.2 6.3s15.7-3.6 20.2-6.3c4.5 2.7 12.2 6.3 20.2 6.3a32.8 32.8 0 0 0 10-1.7V37a25.1 25.1 0 0 1-10 2.6c-6.3 0-13.8-4.5-16.1-6.2zM155.9 3l-4.1-3-4 3c-2.2 1.7-9.8 6.3-16.2 6.3S117.7 4.8 115.4 3l-4-3-4.1 3c-2.1 1.7-9.7 6.3-16.2 6.3S77.3 4.8 75 3l-4.1-3-4 3c-2.2 1.7-9.8 6.3-16.2 6.3S36.9 4.8 34.5 3l-4-3-4.1 3c-2.1 1.7-9.7 6.3-16.1 6.3A24.8 24.8 0 0 1 0 6.5v14.2a34.7 34.7 0 0 0 10.3 1.7c8 0 15.7-3.6 20.2-6.2 4.5 2.6 12.1 6.2 20.2 6.2s15.7-3.6 20.2-6.2c4.5 2.6 12.2 6.2 20.2 6.2s15.8-3.6 20.3-6.2c4.5 2.6 12.1 6.2 20.2 6.2s15.7-3.6 20.2-6.2c4.5 2.6 12.2 6.2 20.2 6.2a32.7 32.7 0 0 0 10-1.6V6.6c-3 1.4-6.7 2.7-10 2.7-6.3 0-13.8-4.5-16.1-6.3z"
                  fill="#7dcef1"/>
        </symbol>
    </defs>
    <title>
        dubelle-ophaalbrug-overtrokken
    </title>
    <path d="M510 129.9h-24L480 254h36l-6-124.1z" fill="#e7e7e7" stroke="#e6e6e6" stroke-miterlimit="10"/>
    <use height="52.78" transform="translate(63 362)" width="182" xlink:href="#a"/>
    <use height="52.78" transform="matrix(-1 0 0 1 367.5 361.99)" width="182" xlink:href="#a"/>
    <use height="52.78" transform="matrix(-1 0 0 1 489 361.99)" width="182" xlink:href="#a"/>
    <path d="M72 338h8v82h-8z" fill="#fff"/>
    <path d="M0 252.2h72v167.75H0z" fill="#999"/>
    <path d="M42 129.9h24L72 254H36l6-124.1z" fill="#e7e7e7" stroke="#e6e6e6" stroke-miterlimit="10"/>
    <path d="M233.3 33v129.3" fill="#f5f5f5" stroke="#e6e6e6" stroke-miterlimit="10" stroke-width="5"/>
    <path d="M72 274.8h24l168-12h7.5v-9H72" fill="none" stroke="#d1c1be" stroke-miterlimit="10" stroke-width="3"/>
    <path d="M9.3 189.7l-8.1-32.5c-1.2-4.8 1.2-10.5 5.1-12.6L237.2 23.1c3.6-1.9 7.3 0 8.4 4.4 1.1 4.4-.8 9.7-4.3 12.1l-222.7 154c-3.9 2.6-8.1.8-9.3-3.9z"
          fill="#e7e7e7" stroke="#e6e6e6" stroke-miterlimit="10"/>
    <path d="M73.5 60.3v192h21v-24l-12-168V49.8h-9v10.5z" fill="#fff" stroke="#d1c1be" stroke-miterlimit="10"
          stroke-width="3"/>
    <g fill="#d1c1be">
        <path d="M207.5 145.3a172.5 172.5 0 0 0-103.4-62l1.8-9.8A182.8 182.8 0 0 1 215.3 139z"/>
        <path d="M220.7 130l3.1 29.7-27.3-12.2 24.2-17.5zM111.3 64.4L83.6 75.8 107.3 94l4-29.6z"/>
    </g>
    <path d="M236 152.3l-164 100 12.5 20.4 20.5-12.4 137.2-97.7 10.3-6.3-6.3-10.2-10.2 6.2z" fill="#673327"/>
    <g fill="#d1c1be">
        <path d="M243 231.4a169 169 0 0 0-9.3-38.5l9.4-3.5a185.3 185.3 0 0 1 9.8 40.8z"/>
        <path d="M226.1 201.1l3.7-29.7 23.9 18.1-27.6 11.6zM232.4 227.5l16.8 24.8 13.1-27-29.9 2.2z"/>
    </g>
    <path d="M0 252h72v24H0z" fill="#373737"/>
    <path d="M480 420h-8v-82h8z" fill="#fff"/>
    <path d="M480 252.2h72v167.75h-72z" fill="#999"/>
    <path d="M480 252h72v24h-72z" fill="#373737"/>
    <path d="M318.7 33v129.3" fill="#f5f5f5" stroke="#e6e6e6" stroke-miterlimit="10" stroke-width="5"/>
    <path d="M480 274.8h-24l-168-12h-7.5v-9H480" fill="none" stroke="#d1c1be" stroke-miterlimit="10" stroke-width="3"/>
    <path d="M542.7 189.7l8.1-32.5c1.2-4.8-1.2-10.5-5.1-12.6L314.8 23.1c-3.6-1.9-7.3 0-8.4 4.4-1.1 4.4.8 9.7 4.3 12.1l222.7 154c3.9 2.6 8.1.8 9.3-3.9z"
          fill="#e7e7e7" stroke="#e6e6e6" stroke-miterlimit="10"/>
    <path d="M478.5 60.3v192h-21v-24l12-168V49.8h9v10.5z" fill="#fff" stroke="#d1c1be" stroke-miterlimit="10"
          stroke-width="3"/>
    <g fill="#d1c1be">
        <path d="M344.5 145.3l-7.8-6.3a182.8 182.8 0 0 1 109.4-65.5l1.8 9.8a172.5 172.5 0 0 0-103.4 62z"/>
        <path d="M355.5 147.5l-27.3 12.2 3.1-29.7 24.2 17.5zM444.7 94l23.7-18.2-27.7-11.4 4 29.6z"/>
    </g>
    <path d="M316 152.3l164 100-12.5 20.4-20.5-12.4-137.2-97.7-10.3-6.3 6.3-10.2 10.2 6.2z" fill="#673327"/>
    <g fill="#d1c1be">
        <path d="M309 231.4l-9.9-1.2a182.6 182.6 0 0 1 9.8-40.8l9.4 3.5a169 169 0 0 0-9.3 38.5z"/>
        <path d="M298.3 189.5l23.9-18.1 3.7 29.7-27.6-11.6zM289.7 225.3l13.1 27 16.8-24.8-29.9-2.2z"/>
    </g>
    <circle cx="480.8" cy="252.2" fill="#673327" r="6"/>
    <circle cx="72" cy="252.2" fill="#673327" r="6"/>
    <text font-family="RijksoverheidSansWebText-Bold, RijksoverheidSansWebText, sans-serif" font-size="36"
          font-weight="700" text-anchor="middle" x="276" y="465"/>
</svg>