<svg data-name="Layer 1" height="480" viewBox="0 0 240 480" width="240" xmlns="http://www.w3.org/2000/svg">
    <title>
        ellipses
    </title>
    <path d="M184.9 395.4l-4.1-3.1-4 3.1c-2.2 1.6-9.8 6.2-16.2 6.2s-13.9-4.5-16.2-6.2l-4-3.1-4.1 3.1c-2.1 1.6-9.7 6.2-16.2 6.2s-13.8-4.5-16.1-6.2l-4.1-3.1-4 3.1c-2.2 1.6-9.8 6.2-16.2 6.2s-13.8-4.5-16.2-6.2l-4-3.1-4.1 3.1c-2.1 1.6-9.7 6.2-16.1 6.2a24.8 24.8 0 0 1-10.3-2.8V413a34.8 34.8 0 0 0 10.3 1.8c8 0 15.7-3.7 20.2-6.3 4.5 2.6 12.1 6.3 20.2 6.3s15.7-3.7 20.2-6.3c4.5 2.6 12.2 6.3 20.2 6.3s15.8-3.7 20.3-6.3c4.5 2.6 12.1 6.3 20.2 6.3s15.7-3.7 20.2-6.3c4.5 2.6 12.2 6.3 20.2 6.3a32.8 32.8 0 0 0 10-1.7v-14.2a23.7 23.7 0 0 1-10 2.7c-6.3 0-13.8-4.5-16.1-6.2zM184.9 365l-4.1-3-4 3c-2.2 1.6-9.8 6.3-16.2 6.3s-13.9-4.5-16.2-6.3l-4-3-4.1 3c-2.1 1.6-9.7 6.3-16.2 6.3s-13.8-4.5-16.1-6.3l-4.1-3-4 3c-2.2 1.6-9.8 6.3-16.2 6.3s-13.8-4.5-16.2-6.3l-4-3-4.1 3c-2.1 1.6-9.7 6.3-16.1 6.3-3.5 0-7.2-1.4-10.3-2.8v14.2a34.7 34.7 0 0 0 10.3 1.7c8 0 15.7-3.6 20.2-6.2 4.5 2.6 12.1 6.2 20.2 6.2s15.7-3.6 20.2-6.2c4.5 2.6 12.2 6.2 20.2 6.2s15.8-3.6 20.3-6.2c4.5 2.6 12.1 6.2 20.2 6.2s15.7-3.6 20.2-6.2c4.5 2.6 12.2 6.2 20.2 6.2a32.7 32.7 0 0 0 10-1.6v-14.2c-3 1.4-6.7 2.7-10 2.7-6.3 0-13.8-4.5-16.1-6.3z"
          fill="#7dcef1"/>
    <g fill="#373737">
        <path d="M39 252h16.3v24H39zM87.6 252h16.3v24H87.6zM111.9 252h16.3v24h-16.3zM63.3 252h16.3v24H63.3zM209 252h31v24h-31zM0 252h31v24H0zM136.1 252h16.3v24h-16.3zM184.7 252H201v24h-16.3zM160.4 252h16.3v24h-16.3z"/>
    </g>
    <g data-name="brug onderkant" fill="#999">
        <path d="M240 276h-18l-6 144h24V276zM0 276h18l6 144H0V276z"/>
    </g>
</svg>