<svg data-name="Layer 1" height="480" viewBox="0 0 240 480" width="240" xmlns="http://www.w3.org/2000/svg" xmlns:xlink="http://www.w3.org/1999/xlink">
    <defs>
        <symbol data-name="golven" id="a" viewBox="0 0 182 52.78">
            <path d="M155.86 33.37l-4-3-4 3C145.61 35 138 39.6 131.59 39.6s-13.85-4.51-16.18-6.23l-4-3-4 3c-2.24 1.63-9.85 6.23-16.27 6.23S77.29 35.09 75 33.37l-4-3-4 3C64.72 35 57.12 39.6 50.7 39.6s-13.85-4.51-16.18-6.23l-4-3-4 3C24.28 35 16.68 39.6 10.26 39.6A25.17 25.17 0 0 1 0 36.81V51a33.57 33.57 0 0 0 10.26 1.75c8.08 0 15.72-3.63 20.22-6.28 4.52 2.68 12.14 6.31 20.22 6.31s15.72-3.63 20.22-6.28c4.51 2.65 12.14 6.28 20.22 6.28s15.72-3.63 20.22-6.28c4.51 2.65 12.14 6.28 20.22 6.28s15.72-3.63 20.22-6.28c4.51 2.65 12.14 6.28 20.22 6.28a33.33 33.33 0 0 0 10-1.66V37a24.9 24.9 0 0 1-10 2.65c-6.36-.05-13.84-4.56-16.16-6.28zm0-30.37l-4-3-4 3c-2.16 1.62-9.76 6.23-16.18 6.23S117.74 4.76 115.41 3l-4-3-4 3c-2.16 1.62-9.76 6.23-16.18 6.23S77.29 4.76 75 3l-4-3-4 3c-2.28 1.65-9.88 6.27-16.3 6.27S36.85 4.76 34.52 3l-4-3-4 3c-2.16 1.62-9.76 6.23-16.18 6.23A25.17 25.17 0 0 1 0 6.48V20.7a33.57 33.57 0 0 0 10.26 1.75c8.08 0 15.72-3.63 20.22-6.28 4.52 2.65 12.14 6.28 20.22 6.28s15.72-3.63 20.22-6.28c4.51 2.65 12.14 6.28 20.22 6.28s15.72-3.63 20.22-6.28c4.51 2.65 12.14 6.28 20.22 6.28s15.72-3.63 20.22-6.28c4.51 2.65 12.14 6.28 20.22 6.28a33.33 33.33 0 0 0 10-1.66V6.62a24.9 24.9 0 0 1-10 2.65c-6.36 0-13.84-4.51-16.16-6.27z" fill="#7dcef1"/>
        </symbol>
    </defs>
    <title>geen-doorvaart</title>
    <use height="52.78" transform="translate(29 361.99)" width="182" xlink:href="#a"/>
    <g data-name="brug onderkant">
        <path d="M0 252h24v24H0z" fill="#373737"/>
        <path d="M.68 382.05h239.5v10.99H.68z" fill="#999"/>
        <path d="M0 276h18l6 144H0V276z" fill="#999"/>
    </g>
    <path d="M0 252h240v24H0z" fill="#373737"/>
    <path d="M240 276h-18l-6 144h24V276z" data-name="brug onderkant" fill="#999"/>
    <text font-family="sans-serif" font-size="36" text-anchor="middle" x="120" y="468"/>
</svg>