<svg id="15deb861-e450-4df1-97b8-26307be8eca8" data-name="Layer 1" xmlns="http://www.w3.org/2000/svg" xmlns:xlink="http://www.w3.org/1999/xlink" width="240" height="432" viewBox="0 0 240 432">
  <defs>
    <symbol id="4a250d02-c493-4be7-82c8-5eabdcbb99ef" data-name="golven" viewBox="0 0 182 52.8">
      <path d="M155.9,33.4l-4.1-3.1-4,3.1c-2.2,1.6-9.8,6.2-16.2,6.2s-13.9-4.5-16.2-6.2l-4-3.1-4.1,3.1c-2.1,1.6-9.7,6.2-16.2,6.2S77.3,35.1,75,33.4l-4.1-3.1-4,3.1c-2.2,1.6-9.8,6.2-16.2,6.2s-13.8-4.5-16.2-6.2l-4-3.1-4.1,3.1c-2.1,1.6-9.7,6.2-16.1,6.2A24.8,24.8,0,0,1,0,36.8V51a31.8,31.8,0,0,0,10.3,1.8c8,0,15.7-3.6,20.2-6.3,4.5,2.7,12.1,6.3,20.2,6.3s15.7-3.6,20.2-6.3c4.5,2.7,12.2,6.3,20.2,6.3s15.8-3.6,20.3-6.3c4.5,2.7,12.1,6.3,20.2,6.3s15.7-3.6,20.2-6.3c4.5,2.7,12.2,6.3,20.2,6.3a32.8,32.8,0,0,0,10-1.7V37a25.1,25.1,0,0,1-10,2.6C165.7,39.6,158.2,35.1,155.9,33.4Z" fill="#7dcef1"/>
      <path d="M155.9,3l-4.1-3-4,3c-2.2,1.7-9.8,6.3-16.2,6.3S117.7,4.8,115.4,3l-4-3-4.1,3c-2.1,1.7-9.7,6.3-16.2,6.3S77.3,4.8,75,3L70.9,0l-4,3c-2.2,1.7-9.8,6.3-16.2,6.3S36.9,4.8,34.5,3l-4-3L26.4,3c-2.1,1.7-9.7,6.3-16.1,6.3A24.8,24.8,0,0,1,0,6.5V20.7a34.7,34.7,0,0,0,10.3,1.7c8,0,15.7-3.6,20.2-6.2,4.5,2.6,12.1,6.2,20.2,6.2s15.7-3.6,20.2-6.2c4.5,2.6,12.2,6.2,20.2,6.2s15.8-3.6,20.3-6.2c4.5,2.6,12.1,6.2,20.2,6.2s15.7-3.6,20.2-6.2c4.5,2.6,12.2,6.2,20.2,6.2a32.7,32.7,0,0,0,10-1.6V6.6c-3,1.4-6.7,2.7-10,2.7C165.7,9.3,158.2,4.8,155.9,3Z" fill="#7dcef1"/>
    </symbol>
  </defs>
  <title>geen-doorvaart</title>
  <use width="182" height="52.78" transform="translate(29 362)" xlink:href="#4a250d02-c493-4be7-82c8-5eabdcbb99ef"/>
  <rect y="252" width="24" height="24" fill="#373737"/>
  <rect x="0.7" y="382.1" width="239.5" height="10.99" fill="#999"/>
  <polygon points="0 276 18 276 24 420 0 420 0 276" fill="#999"/>
  <rect y="252" width="240" height="24" fill="#373737"/>
  <g id="35806c8c-7dbc-4c97-bff2-554a89066c59" data-name="brug onderkant">
    <polygon points="240 276 222 276 216 420 240 420 240 276" fill="#999"/>
  </g>
</svg>
