<svg id="22161d82-ce8b-4609-a660-f57019c28f7f" data-name="Layer 1" xmlns="http://www.w3.org/2000/svg" xmlns:xlink="http://www.w3.org/1999/xlink" width="240" height="432" viewBox="0 0 240 432">
  <defs>
    <symbol id="59adb3c9-c3bf-42b4-8447-0133dd4ea293" data-name="golven" viewBox="0 0 182 52.8">
      <path d="M155.9,33.4l-4.1-3.1-4,3.1c-2.2,1.6-9.8,6.2-16.2,6.2s-13.9-4.5-16.2-6.2l-4-3.1-4.1,3.1c-2.1,1.6-9.7,6.2-16.2,6.2S77.3,35.1,75,33.4l-4.1-3.1-4,3.1c-2.2,1.6-9.8,6.2-16.2,6.2s-13.8-4.5-16.2-6.2l-4-3.1-4.1,3.1c-2.1,1.6-9.7,6.2-16.1,6.2A24.8,24.8,0,0,1,0,36.8V51a31.8,31.8,0,0,0,10.3,1.8c8,0,15.7-3.6,20.2-6.3,4.5,2.7,12.1,6.3,20.2,6.3s15.7-3.6,20.2-6.3c4.5,2.7,12.2,6.3,20.2,6.3s15.8-3.6,20.3-6.3c4.5,2.7,12.1,6.3,20.2,6.3s15.7-3.6,20.2-6.3c4.5,2.7,12.2,6.3,20.2,6.3a32.8,32.8,0,0,0,10-1.7V37a25.1,25.1,0,0,1-10,2.6C165.7,39.6,158.2,35.1,155.9,33.4Z" fill="#7dcef1"/>
      <path d="M155.9,3l-4.1-3-4,3c-2.2,1.7-9.8,6.3-16.2,6.3S117.7,4.8,115.4,3l-4-3-4.1,3c-2.1,1.7-9.7,6.3-16.2,6.3S77.3,4.8,75,3L70.9,0l-4,3c-2.2,1.7-9.8,6.3-16.2,6.3S36.9,4.8,34.5,3l-4-3L26.4,3c-2.1,1.7-9.7,6.3-16.1,6.3A24.8,24.8,0,0,1,0,6.5V20.7a34.7,34.7,0,0,0,10.3,1.7c8,0,15.7-3.6,20.2-6.2,4.5,2.6,12.1,6.2,20.2,6.2s15.7-3.6,20.2-6.2c4.5,2.6,12.2,6.2,20.2,6.2s15.8-3.6,20.3-6.2c4.5,2.6,12.1,6.2,20.2,6.2s15.7-3.6,20.2-6.2c4.5,2.6,12.2,6.2,20.2,6.2a32.7,32.7,0,0,0,10-1.6V6.6c-3,1.4-6.7,2.7-10,2.7C165.7,9.3,158.2,4.8,155.9,3Z" fill="#7dcef1"/>
    </symbol>
  </defs>
  <title>hef</title>
  <use width="182" height="52.78" transform="translate(29 362)" xlink:href="#59adb3c9-c3bf-42b4-8447-0133dd4ea293"/>
  <rect x="216" y="276.2" width="24" height="144" fill="#999"/>
  <rect y="276" width="24" height="144" fill="#999"/>
  <line x1="240" y1="274.5" y2="274.5" fill="none" stroke="#d1c1be" stroke-miterlimit="10" stroke-width="3"/>
  <line y1="253.5" x2="240" y2="253.5" fill="none" stroke="#d1c1be" stroke-miterlimit="10" stroke-width="3"/>
  <rect x="216" y="276" width="24" height="144" fill="#999"/>
  <polygon points="12 156 228 156 228 168 216 168 216 180 24 180 24 168 12 168 12 156" fill="#673327"/>
  <g>
    <line x1="12.5" y1="173" x2="12.5" y2="177" fill="none" stroke="#999" stroke-miterlimit="10"/>
    <line x1="12.5" y1="184.3" x2="12.5" y2="239.1" fill="none" stroke="#999" stroke-miterlimit="10" stroke-dasharray="7.3 7.3"/>
    <line x1="12.5" y1="242.7" x2="12.5" y2="246.7" fill="none" stroke="#999" stroke-miterlimit="10"/>
  </g>
  <g>
    <line x1="228.5" y1="173.5" x2="228.5" y2="177.5" fill="none" stroke="#999" stroke-miterlimit="10"/>
    <line x1="228.5" y1="184.8" x2="228.5" y2="239.6" fill="none" stroke="#999" stroke-miterlimit="10" stroke-dasharray="7.3 7.3"/>
    <line x1="228.5" y1="243.2" x2="228.5" y2="247.2" fill="none" stroke="#999" stroke-miterlimit="10"/>
  </g>
  <polygon points="240 276 228 276 216 276 216 264 228 264 228 252 240 252 240 264 240 276" fill="#373737"/>
  <polygon points="24 276 12 276 0 276 0 264 0 252 12 252 12 264 24 264 24 276" fill="#373737"/>
  <polygon points="125 206.9 135 206.9 120 181 105 206.9 115 206.9 115 250.4 105 250.4 120 276.3 135 250.4 125 250.4 125 206.9" fill="#d1c1be"/>
</svg>
