<svg data-name="Layer 1" height="480" id="4a927d2b-d055-46e6-a9cc-c7c165614400" viewBox="0 0 240 480" width="240" xmlns="http://www.w3.org/2000/svg">
  <title>hef</title>
  <rect fill="#999" height="144" width="24" x="216" y="276.2"/>
  <rect fill="#999" height="144" width="24" y="276"/>
  <line fill="none" stroke="#d1c1be" stroke-miterlimit="10" stroke-width="3" x1="240" y1="274.5" y2="274.5"/>
  <line fill="none" stroke="#d1c1be" stroke-miterlimit="10" stroke-width="3" x2="240" y1="253.5" y2="253.5"/>
  <rect fill="#999" height="144" width="24" x="216" y="276"/>
  <polygon fill="#673327" points="12 156 228 156 228 168 216 168 216 180 24 180 24 168 12 168 12 156"/>
  <g>
    <line fill="none" stroke="#999" stroke-miterlimit="10" x1="12.5" x2="12.5" y1="173" y2="177"/>
    <line fill="none" stroke="#999" stroke-dasharray="7.3 7.3" stroke-miterlimit="10" x1="12.5" x2="12.5" y1="184.3" y2="239.1"/>
    <line fill="none" stroke="#999" stroke-miterlimit="10" x1="12.5" x2="12.5" y1="242.7" y2="246.7"/>
  </g>
  <g>
    <line fill="none" stroke="#999" stroke-miterlimit="10" x1="228.5" x2="228.5" y1="173.5" y2="177.5"/>
    <line fill="none" stroke="#999" stroke-dasharray="7.3 7.3" stroke-miterlimit="10" x1="228.5" x2="228.5" y1="184.8" y2="239.6"/>
    <line fill="none" stroke="#999" stroke-miterlimit="10" x1="228.5" x2="228.5" y1="243.2" y2="247.2"/>
  </g>
  <polygon fill="#373737" points="240 276 228 276 216 276 216 264 228 264 228 252 240 252 240 264 240 276"/>
  <polygon fill="#373737" points="24 276 12 276 0 276 0 264 0 252 12 252 12 264 24 264 24 276"/>
  <polygon fill="#d1c1be" points="125 206.9 135 206.9 120 181 105 206.9 115 206.9 115 250.4 105 250.4 120 276.3 135 250.4 125 250.4 125 206.9"/>
  <g>
    <path d="M184.9,395.4l-4.1-3.1-4,3.1c-2.2,1.6-9.8,6.2-16.2,6.2s-13.9-4.5-16.2-6.2l-4-3.1-4.1,3.1c-2.1,1.6-9.7,6.2-16.2,6.2s-13.8-4.5-16.1-6.2l-4.1-3.1-4,3.1c-2.2,1.6-9.8,6.2-16.2,6.2s-13.8-4.5-16.2-6.2l-4-3.1-4.1,3.1c-2.1,1.6-9.7,6.2-16.1,6.2A24.8,24.8,0,0,1,29,398.8V413a34.8,34.8,0,0,0,10.3,1.8c8,0,15.7-3.7,20.2-6.3,4.5,2.6,12.1,6.3,20.2,6.3s15.7-3.7,20.2-6.3c4.5,2.6,12.2,6.3,20.2,6.3s15.8-3.7,20.3-6.3c4.5,2.6,12.1,6.3,20.2,6.3s15.7-3.7,20.2-6.3c4.5,2.6,12.2,6.3,20.2,6.3a32.8,32.8,0,0,0,10-1.7V398.9a23.7,23.7,0,0,1-10,2.7C194.7,401.6,187.2,397.1,184.9,395.4Z" fill="#7dcef1"/>
    <path d="M184.9,365l-4.1-3-4,3c-2.2,1.6-9.8,6.3-16.2,6.3s-13.9-4.5-16.2-6.3l-4-3-4.1,3c-2.1,1.6-9.7,6.3-16.2,6.3s-13.8-4.5-16.1-6.3l-4.1-3-4,3c-2.2,1.6-9.8,6.3-16.2,6.3s-13.8-4.5-16.2-6.3l-4-3-4.1,3c-2.1,1.6-9.7,6.3-16.1,6.3-3.5,0-7.2-1.4-10.3-2.8v14.2a34.7,34.7,0,0,0,10.3,1.7c8,0,15.7-3.6,20.2-6.2,4.5,2.6,12.1,6.2,20.2,6.2s15.7-3.6,20.2-6.2c4.5,2.6,12.2,6.2,20.2,6.2s15.8-3.6,20.3-6.2c4.5,2.6,12.1,6.2,20.2,6.2s15.7-3.6,20.2-6.2c4.5,2.6,12.2,6.2,20.2,6.2a32.7,32.7,0,0,0,10-1.6V368.6c-3,1.4-6.7,2.7-10,2.7C194.7,371.3,187.2,366.8,184.9,365Z" fill="#7dcef1"/>
  </g>
<text font-family="RijksoverheidSansWebText-Bold, RijksoverheidSansWebText, sans-serif" font-size="36" font-weight="700" text-anchor="middle" x="120" y="465"/><text font-family="RijksoverheidSansWebText-Bold, RijksoverheidSansWebText, sans-serif" font-size="36" font-weight="700" text-anchor="middle" x="120" y="465"/></svg>