<svg data-name="Layer 1" height="480" viewBox="0 0 240 480" width="240" xmlns="http://www.w3.org/2000/svg" xmlns:xlink="http://www.w3.org/1999/xlink">
    <defs>
        <symbol data-name="golven" id="a" viewBox="0 0 182 52.78">
            <path d="M155.86 33.37l-4-3-4 3C145.61 35 138 39.6 131.59 39.6s-13.85-4.51-16.18-6.23l-4-3-4 3c-2.24 1.63-9.85 6.23-16.27 6.23S77.29 35.09 75 33.37l-4-3-4 3C64.72 35 57.12 39.6 50.7 39.6s-13.85-4.51-16.18-6.23l-4-3-4 3C24.28 35 16.68 39.6 10.26 39.6A25.17 25.17 0 0 1 0 36.81V51a33.57 33.57 0 0 0 10.26 1.75c8.08 0 15.72-3.63 20.22-6.28 4.52 2.68 12.14 6.31 20.22 6.31s15.72-3.63 20.22-6.28c4.51 2.65 12.14 6.28 20.22 6.28s15.72-3.63 20.22-6.28c4.51 2.65 12.14 6.28 20.22 6.28s15.72-3.63 20.22-6.28c4.51 2.65 12.14 6.28 20.22 6.28a33.33 33.33 0 0 0 10-1.66V37a24.9 24.9 0 0 1-10 2.65c-6.36-.05-13.84-4.56-16.16-6.28zm0-30.37l-4-3-4 3c-2.16 1.62-9.76 6.23-16.18 6.23S117.74 4.76 115.41 3l-4-3-4 3c-2.16 1.62-9.76 6.23-16.18 6.23S77.29 4.76 75 3l-4-3-4 3c-2.28 1.65-9.88 6.27-16.3 6.27S36.85 4.76 34.52 3l-4-3-4 3c-2.16 1.62-9.76 6.23-16.18 6.23A25.17 25.17 0 0 1 0 6.48V20.7a33.57 33.57 0 0 0 10.26 1.75c8.08 0 15.72-3.63 20.22-6.28 4.52 2.65 12.14 6.28 20.22 6.28s15.72-3.63 20.22-6.28c4.51 2.65 12.14 6.28 20.22 6.28s15.72-3.63 20.22-6.28c4.51 2.65 12.14 6.28 20.22 6.28s15.72-3.63 20.22-6.28c4.51 2.65 12.14 6.28 20.22 6.28a33.33 33.33 0 0 0 10-1.66V6.62a24.9 24.9 0 0 1-10 2.65c-6.36 0-13.84-4.51-16.16-6.27z" fill="#7dcef1"/>
        </symbol>
    </defs>
    <title>hef</title>
    <g data-name="brug onderkant">
        <path d="M-24 276H0v144h-24z" fill="#999"/>
        <path d="M0 276h-24v-12h12v-12H0v24zm240 0h24v-12h-12v-12h-12v24z" fill="#373737"/>
        <use height="52.78" transform="translate(29 361.99)" width="182" xlink:href="#a"/>
        <path d="M216 276.25h24v144h-24zM0 276h24v144H0z" fill="#999"/>
        <path d="M240 274.5H0m0-21h240" fill="none" stroke="#d1c1be" stroke-miterlimit="10" stroke-width="3"/>
        <path d="M216 276h24v144h-24z" fill="#999"/>
        <path d="M12 156h216v12h-12v12H24v-12H12v-12z" fill="#673327"/>
        <path d="M12.5 173v4" fill="none" stroke="#999" stroke-miterlimit="10"/>
        <path d="M12.5 184.3v54.79" fill="none" stroke="#999" stroke-dasharray="7.3 7.3" stroke-miterlimit="10"/>
        <path d="M12.5 242.74v4m216-73.23v4" fill="none" stroke="#999" stroke-miterlimit="10"/>
        <path d="M228.5 184.82v54.78" fill="none" stroke="#999" stroke-dasharray="7.3 7.3" stroke-miterlimit="10"/>
        <path d="M228.5 243.25v4" fill="none" stroke="#999" stroke-miterlimit="10"/>
        <path d="M240 276h-24v-12h12v-12h12v24zm-216 0H0v-24h12v12h12v12z" fill="#373737"/>
    </g>
    <path d="M120 202.53v52.21" fill="none" stroke="#d1c1be" stroke-miterlimit="10" stroke-width="10"/>
    <path d="M105.04 206.91L120 181l14.96 25.91h-29.92zm0 43.46l14.96 25.9 14.96-25.9h-29.92z" fill="#d1c1be"/>
    <text font-family="sans-serif" font-size="36" text-anchor="middle" x="120" y="468"/>
</svg>