<svg data-name="Layer 1" height="480" viewBox="0 0 240 480" width="240" xmlns="http://www.w3.org/2000/svg">
    <title>
        hef
    </title>
    <g fill="#7dcef1">
        <path d="M184.9 395.4l-4.1-3.1-4 3.1c-2.2 1.6-9.8 6.2-16.2 6.2s-13.9-4.5-16.2-6.2l-4-3.1-4.1 3.1c-2.1 1.6-9.7 6.2-16.2 6.2s-13.8-4.5-16.1-6.2l-4.1-3.1-4 3.1c-2.2 1.6-9.8 6.2-16.2 6.2s-13.8-4.5-16.2-6.2l-4-3.1-4.1 3.1c-2.1 1.6-9.7 6.2-16.1 6.2a24.8 24.8 0 0 1-10.3-2.8V413a34.8 34.8 0 0 0 10.3 1.8c8 0 15.7-3.7 20.2-6.3 4.5 2.6 12.1 6.3 20.2 6.3s15.7-3.7 20.2-6.3c4.5 2.6 12.2 6.3 20.2 6.3s15.8-3.7 20.3-6.3c4.5 2.6 12.1 6.3 20.2 6.3s15.7-3.7 20.2-6.3c4.5 2.6 12.2 6.3 20.2 6.3a32.8 32.8 0 0 0 10-1.7v-14.2a23.7 23.7 0 0 1-10 2.7c-6.3 0-13.8-4.5-16.1-6.2zM184.9 365l-4.1-3-4 3c-2.2 1.6-9.8 6.3-16.2 6.3s-13.9-4.5-16.2-6.3l-4-3-4.1 3c-2.1 1.6-9.7 6.3-16.2 6.3s-13.8-4.5-16.1-6.3l-4.1-3-4 3c-2.2 1.6-9.8 6.3-16.2 6.3s-13.8-4.5-16.2-6.3l-4-3-4.1 3c-2.1 1.6-9.7 6.3-16.1 6.3-3.5 0-7.2-1.4-10.3-2.8v14.2a34.7 34.7 0 0 0 10.3 1.7c8 0 15.7-3.6 20.2-6.2 4.5 2.6 12.1 6.2 20.2 6.2s15.7-3.6 20.2-6.2c4.5 2.6 12.2 6.2 20.2 6.2s15.8-3.6 20.3-6.2c4.5 2.6 12.1 6.2 20.2 6.2s15.7-3.6 20.2-6.2c4.5 2.6 12.2 6.2 20.2 6.2a32.7 32.7 0 0 0 10-1.6v-14.2c-3 1.4-6.7 2.7-10 2.7-6.3 0-13.8-4.5-16.1-6.3z"/>
    </g>
    <path fill="#999" d="M216 276.2h24v144h-24zM0 276h24v144H0z"/>
    <path fill="none" stroke="#d1c1be" stroke-miterlimit="10" stroke-width="3" d="M240 274.5H0M0 253.5h240"/>
    <path fill="#999" d="M216 276h24v144h-24z"/>
    <path fill="#673327" d="M12 156h216v12h-12v12H24v-12H12v-12z"/>
    <g fill="none" stroke="#999" stroke-miterlimit="10">
        <path d="M12.5 173v4"/>
        <path stroke-dasharray="7.3 7.3" d="M12.5 184.3v54.8"/>
        <path d="M12.5 242.7v4"/>
    </g>
    <g fill="none" stroke="#999" stroke-miterlimit="10">
        <path d="M228.5 173.5v4"/>
        <path stroke-dasharray="7.3 7.3" d="M228.5 184.8v54.8"/>
        <path d="M228.5 243.2v4"/>
    </g>
    <path fill="#373737" d="M240 276h-24v-12h12v-12h12v24zM24 276H0v-24h12v12h12v12z"/>
    <path fill="#d1c1be" d="M125 206.9h10L120 181l-15 25.9h10v43.5h-10l15 25.9 15-25.9h-10v-43.5z"/>
    <text font-family="RijksoverheidSansWebText-Bold, RijksoverheidSansWebText, sans-serif" font-size="24" font-weight="700" text-anchor="middle" x="120" y="465"/>
</svg>
