<svg id="94b73b81-70aa-4c26-9157-6c8723e3727e" data-name="Layer 1" xmlns="http://www.w3.org/2000/svg" viewBox="0 0 24 24">
  <title>netwerk-omlaag</title>
  <g>
    <line x1="12" y1="3.8" x2="12" y2="17.8" fill="none" stroke="#999" stroke-miterlimit="10" stroke-width="1.5"/>
    <g>
      <path d="M10.3,3.9a1.7,1.7,0,1,1,3.4,0,1.7,1.7,0,1,1-3.4,0Z" fill="#fff"/>
      <path d="M10.1,3.9A1.8,1.8,0,0,0,12,5.8a1.8,1.8,0,0,0,1.9-1.9,1.9,1.9,0,0,0-3.8,0Zm3.4,0a1.5,1.5,0,0,1-3,0,1.5,1.5,0,0,1,3,0Z" fill="#999"/>
    </g>
    <polygon points="12 22 9.6 16 12 17.4 14.4 16 12 22" fill="#999"/>
  </g>
</svg>
