<svg id="f2ac4570-60a7-4a4e-9742-e27449b8386c" data-name="Layer 1" xmlns="http://www.w3.org/2000/svg" xmlns:xlink="http://www.w3.org/1999/xlink" width="288" height="432" viewBox="0 0 288 432">
  <defs>
    <symbol id="4012e471-d0b7-4a4c-b60b-f5020eba04fa" data-name="golven" viewBox="0 0 182 52.8">
      <path d="M155.9,33.4l-4.1-3.1-4,3.1c-2.2,1.6-9.8,6.2-16.2,6.2s-13.9-4.5-16.2-6.2l-4-3.1-4.1,3.1c-2.1,1.6-9.7,6.2-16.2,6.2S77.3,35.1,75,33.4l-4.1-3.1-4,3.1c-2.2,1.6-9.8,6.2-16.2,6.2s-13.8-4.5-16.2-6.2l-4-3.1-4.1,3.1c-2.1,1.6-9.7,6.2-16.1,6.2A24.8,24.8,0,0,1,0,36.8V51a31.8,31.8,0,0,0,10.3,1.8c8,0,15.7-3.6,20.2-6.3,4.5,2.7,12.1,6.3,20.2,6.3s15.7-3.6,20.2-6.3c4.5,2.7,12.2,6.3,20.2,6.3s15.8-3.6,20.3-6.3c4.5,2.7,12.1,6.3,20.2,6.3s15.7-3.6,20.2-6.3c4.5,2.7,12.2,6.3,20.2,6.3a32.8,32.8,0,0,0,10-1.7V37a25.1,25.1,0,0,1-10,2.6C165.7,39.6,158.2,35.1,155.9,33.4Z" fill="#7dcef1"/>
      <path d="M155.9,3l-4.1-3-4,3c-2.2,1.7-9.8,6.3-16.2,6.3S117.7,4.8,115.4,3l-4-3-4.1,3c-2.1,1.7-9.7,6.3-16.2,6.3S77.3,4.8,75,3L70.9,0l-4,3c-2.2,1.7-9.8,6.3-16.2,6.3S36.9,4.8,34.5,3l-4-3L26.4,3c-2.1,1.7-9.7,6.3-16.1,6.3A24.8,24.8,0,0,1,0,6.5V20.7a34.7,34.7,0,0,0,10.3,1.7c8,0,15.7-3.6,20.2-6.2,4.5,2.6,12.1,6.2,20.2,6.2s15.7-3.6,20.2-6.2c4.5,2.6,12.2,6.2,20.2,6.2s15.8-3.6,20.3-6.2c4.5,2.6,12.1,6.2,20.2,6.2s15.7-3.6,20.2-6.2c4.5,2.6,12.2,6.2,20.2,6.2a32.7,32.7,0,0,0,10-1.6V6.6c-3,1.4-6.7,2.7-10,2.7C165.7,9.3,158.2,4.8,155.9,3Z" fill="#7dcef1"/>
    </symbol>
  </defs>
  <title>ophaalbrug-overtrokken-A</title>
  <polyline points="276 253.8 264 253.8 72 253.8" fill="none" stroke="#d1c1be" stroke-miterlimit="10" stroke-width="3"/>
  <polygon points="42 129.9 66 129.9 72 254 36 254 42 129.9" fill="#e7e7e7" stroke="#e6e6e6" stroke-miterlimit="10"/>
  <rect y="276" width="72" height="144" fill="#999"/>
  <rect y="252" width="72" height="24" fill="#373737"/>
  <line x1="233.3" y1="33" x2="233.3" y2="162.3" fill="#f5f5f5" stroke="#e6e6e6" stroke-miterlimit="10" stroke-width="5"/>
  <rect x="264" y="276" width="24" height="144" fill="#999"/>
  <polygon points="288 276 276 276 264 276 264 264 276 264 276 252 288 252 288 264 288 276" fill="#373737"/>
  <polyline points="72 274.8 96 274.8 264 262.8 276 262.8" fill="none" stroke="#d1c1be" stroke-miterlimit="10" stroke-width="3"/>
  <path d="M9.3,189.7,1.2,157.2c-1.2-4.8,1.2-10.5,5.1-12.6L237.2,23.1c3.6-1.9,7.3,0,8.4,4.4h0c1.1,4.4-.8,9.7-4.3,12.1L18.6,193.6C14.7,196.2,10.5,194.4,9.3,189.7Z" fill="#e7e7e7" stroke="#e6e6e6" stroke-miterlimit="10"/>
  <polygon points="73.5 60.3 73.5 252.3 94.5 252.3 94.5 228.3 82.5 60.3 82.5 49.8 73.5 49.8 73.5 60.3" fill="#fff" stroke="#d1c1be" stroke-miterlimit="10" stroke-width="3"/>
  <g>
    <path d="M207.5,145.3a172.5,172.5,0,0,0-103.4-62l1.8-9.8A182.8,182.8,0,0,1,215.3,139Z" fill="#d1c1be"/>
    <polygon points="220.7 130 223.8 159.7 196.5 147.5 220.7 130" fill="#d1c1be"/>
    <polygon points="111.3 64.4 83.6 75.8 107.3 94 111.3 64.4" fill="#d1c1be"/>
  </g>
  <circle cx="72" cy="252.2" r="6" fill="#673327"/>
  <use width="182" height="52.78" transform="translate(77 362)" xlink:href="#4012e471-d0b7-4a4c-b60b-f5020eba04fa"/>
  <polygon points="236 152.3 72 252.3 84.5 272.7 105 260.3 242.2 162.6 252.5 156.3 246.2 146.1 236 152.3" fill="#673327"/>
  <g>
    <path d="M243,231.4a169,169,0,0,0-9.3-38.5l9.4-3.5a182.6,182.6,0,0,1,9.8,40.8Z" fill="#d1c1be"/>
    <polygon points="226.1 201.1 229.8 171.4 253.7 189.5 226.1 201.1" fill="#d1c1be"/>
    <polygon points="232.4 227.5 249.2 252.3 262.3 225.3 232.4 227.5" fill="#d1c1be"/>
  </g>
</svg>
