<svg data-name="Layer 1" height="480" viewBox="0 0 288 480" width="288" xmlns="http://www.w3.org/2000/svg" xmlns:xlink="http://www.w3.org/1999/xlink">
    <defs>
        <symbol data-name="golven" id="a" viewBox="0 0 182 52.78">
            <path d="M155.86 33.37l-4-3-4 3C145.61 35 138 39.6 131.59 39.6s-13.85-4.51-16.18-6.23l-4-3-4 3c-2.24 1.63-9.85 6.23-16.27 6.23S77.29 35.09 75 33.37l-4-3-4 3C64.72 35 57.12 39.6 50.7 39.6s-13.85-4.51-16.18-6.23l-4-3-4 3C24.28 35 16.68 39.6 10.26 39.6A25.17 25.17 0 0 1 0 36.81V51a33.57 33.57 0 0 0 10.26 1.75c8.08 0 15.72-3.63 20.22-6.28 4.52 2.68 12.14 6.31 20.22 6.31s15.72-3.63 20.22-6.28c4.51 2.65 12.14 6.28 20.22 6.28s15.72-3.63 20.22-6.28c4.51 2.65 12.14 6.28 20.22 6.28s15.72-3.63 20.22-6.28c4.51 2.65 12.14 6.28 20.22 6.28a33.33 33.33 0 0 0 10-1.66V37a24.9 24.9 0 0 1-10 2.65c-6.36-.05-13.84-4.56-16.16-6.28zm0-30.37l-4-3-4 3c-2.16 1.62-9.76 6.23-16.18 6.23S117.74 4.76 115.41 3l-4-3-4 3c-2.16 1.62-9.76 6.23-16.18 6.23S77.29 4.76 75 3l-4-3-4 3c-2.28 1.65-9.88 6.27-16.3 6.27S36.85 4.76 34.52 3l-4-3-4 3c-2.16 1.62-9.76 6.23-16.18 6.23A25.17 25.17 0 0 1 0 6.48V20.7a33.57 33.57 0 0 0 10.26 1.75c8.08 0 15.72-3.63 20.22-6.28 4.52 2.65 12.14 6.28 20.22 6.28s15.72-3.63 20.22-6.28c4.51 2.65 12.14 6.28 20.22 6.28s15.72-3.63 20.22-6.28c4.51 2.65 12.14 6.28 20.22 6.28s15.72-3.63 20.22-6.28c4.51 2.65 12.14 6.28 20.22 6.28a33.33 33.33 0 0 0 10-1.66V6.62a24.9 24.9 0 0 1-10 2.65c-6.36 0-13.84-4.51-16.16-6.27z" fill="#7dcef1"/>
        </symbol>
    </defs>
    <title>ophaalbrug-overtrokken-B</title>
    <g data-name="brug onderkant">
        <path d="M246 129.94h-24l-6 124.03h36l-6-124.03z" fill="#e7e7e7" stroke="#e6e6e6" stroke-miterlimit="10"/>
        <path d="M216 252.25h72V420h-72z" fill="#999"/>
        <path d="M216 252h72v24h-72z" fill="#373737"/>
        <path d="M54.67 33v129.33" fill="#f5f5f5" stroke="#e6e6e6" stroke-miterlimit="10" stroke-width="5"/>
        <path d="M0 276h24v144H0z" fill="#999"/>
        <path d="M0 276h24v-12H12v-12H0v24z" fill="#373737"/>
    </g>
    <path d="M12 253.75h204m0 21h-24l-168-12H12" fill="none" stroke="#d1c1be" stroke-miterlimit="10" stroke-width="3"/>
    <path d="M278.66 189.66l8.12-32.47c1.19-4.75-1.15-10.51-5.1-12.6L50.84 23.15c-3.64-1.92-7.34 0-8.44 4.38-1.09 4.37.8 9.69 4.31 12.11l222.72 153.92c3.82 2.64 8.04.86 9.23-3.9z" fill="#e7e7e7" stroke="#e6e6e6" stroke-miterlimit="10"/>
    <path d="M214.5 60.25v192h-21v-24l12-168v-10.5h9v10.5z" fill="#fff" stroke="#d1c1be" stroke-miterlimit="10" stroke-width="3"/>
    <path d="M76.6 142.16A177.67 177.67 0 0 1 183 78.38" fill="none" stroke="#d1c1be" stroke-miterlimit="10" stroke-width="10"/>
    <path d="M91.49 147.54l-27.31 12.2 3.08-29.75 24.23 17.55zm89.21-53.51l23.69-18.27-27.66-11.38 3.97 29.65z" fill="#d1c1be"/>
    <circle cx="216" cy="252.25" fill="#673327" r="6"/>
    <use height="52.78" transform="matrix(-1 0 0 1 211 361.99)" width="182" xlink:href="#a"/>
    <path d="M52.04 152.34L216 252.25l-12.49 20.5-20.49-12.49L45.8 162.59l-10.25-6.24 6.24-10.25 10.25 6.24z" fill="#673327"/>
    <path d="M49.58 191.16a176.11 176.11 0 0 0-9.52 39.6" fill="none" stroke="#d1c1be" stroke-miterlimit="10" stroke-width="10"/>
    <path d="M34.35 189.45l23.88-18.01 3.66 29.69-27.54-11.68zm-8.64 35.89l13.06 26.91 16.78-24.77-29.84-2.14z" fill="#d1c1be"/>
    <text font-family="sans-serif" font-size="36" text-anchor="middle" x="144" y="468"/>
</svg>