<svg data-name="Layer 1" height="432" viewBox="0 0 288 432" width="288" xmlns="http://www.w3.org/2000/svg" xmlns:xlink="http://www.w3.org/1999/xlink">
    <defs>
        <symbol data-name="golven" id="a" viewBox="0 0 182 52.8">
            <path d="M155.9 33.4l-4.1-3.1-4 3.1c-2.2 1.6-9.8 6.2-16.2 6.2s-13.9-4.5-16.2-6.2l-4-3.1-4.1 3.1c-2.1 1.6-9.7 6.2-16.2 6.2S77.3 35.1 75 33.4l-4.1-3.1-4 3.1c-2.2 1.6-9.8 6.2-16.2 6.2s-13.8-4.5-16.2-6.2l-4-3.1-4.1 3.1c-2.1 1.6-9.7 6.2-16.1 6.2A24.8 24.8 0 0 1 0 36.8V51a31.8 31.8 0 0 0 10.3 1.8c8 0 15.7-3.6 20.2-6.3 4.5 2.7 12.1 6.3 20.2 6.3s15.7-3.6 20.2-6.3c4.5 2.7 12.2 6.3 20.2 6.3s15.8-3.6 20.3-6.3c4.5 2.7 12.1 6.3 20.2 6.3s15.7-3.6 20.2-6.3c4.5 2.7 12.2 6.3 20.2 6.3a32.8 32.8 0 0 0 10-1.7V37a25.1 25.1 0 0 1-10 2.6c-6.3 0-13.8-4.5-16.1-6.2zM155.9 3l-4.1-3-4 3c-2.2 1.7-9.8 6.3-16.2 6.3S117.7 4.8 115.4 3l-4-3-4.1 3c-2.1 1.7-9.7 6.3-16.2 6.3S77.3 4.8 75 3l-4.1-3-4 3c-2.2 1.7-9.8 6.3-16.2 6.3S36.9 4.8 34.5 3l-4-3-4.1 3c-2.1 1.7-9.7 6.3-16.1 6.3A24.8 24.8 0 0 1 0 6.5v14.2a34.7 34.7 0 0 0 10.3 1.7c8 0 15.7-3.6 20.2-6.2 4.5 2.6 12.1 6.2 20.2 6.2s15.7-3.6 20.2-6.2c4.5 2.6 12.2 6.2 20.2 6.2s15.8-3.6 20.3-6.2c4.5 2.6 12.1 6.2 20.2 6.2s15.7-3.6 20.2-6.2c4.5 2.6 12.2 6.2 20.2 6.2a32.7 32.7 0 0 0 10-1.6V6.6c-3 1.4-6.7 2.7-10 2.7-6.3 0-13.8-4.5-16.1-6.3z" fill="#7dcef1"/>
        </symbol>
    </defs>
    <title>
        ophaalbrug-B
    </title>
    <path fill="none" stroke="#d1c1be" stroke-miterlimit="10" stroke-width="3" d="M12 253.8h204"/>
    <path fill="#673327" d="M246 129.9h-24L216 254h36l-6-124.1z"/>
    <path fill="none" stroke="#673327" stroke-miterlimit="10" stroke-width="6" d="M54.7 33v129.3"/>
    <path fill="#999" d="M0 276h24v144H0zM216 252.2h72v167.75h-72z"/>
    <path fill="#373737" d="M0 276h24v-12H12v-12H0v24zM216 252h72v24h-72z"/>
    <circle cx="216" cy="252.2" fill="#673327" r="6"/>
    <path fill="#fff" d="M41.8 26.1L90 55.4l48.3 29.4 48.2 29.3 48.3 29.3"/>
    <path d="M278.7 189.7l8.1-32.5c1.2-4.8-1.2-10.5-5.1-12.6L50.8 23.1c-3.6-1.9-7.3 0-8.4 4.4-1.1 4.4.8 9.7 4.3 12.1l222.7 154c3.9 2.6 8.1.8 9.3-3.9z" fill="#673327"/>
    <path fill="none" stroke="#d1c1be" stroke-miterlimit="10" stroke-width="3" d="M216 274.8h-24l-168-12H12"/>
    <use height="52.78" transform="matrix(-1 0 0 1 211 361.99)" width="182" xlink:href="#a"/>
    <path fill="#673327" d="M52 152.3l164 100-12.5 20.4-20.5-12.4-137.2-97.7-10.3-6.3 6.3-10.2 10.2 6.2z"/>
    <g fill="#d1c1be">
        <path d="M45 231.4l-9.9-1.2a185.3 185.3 0 0 1 9.8-40.8l9.4 3.5a169 169 0 0 0-9.3 38.5z"/>
        <path d="M34.3 189.5l23.9-18.1 3.7 29.7-27.6-11.6zM25.7 225.3l13.1 27 16.8-24.8-29.9-2.2z"/>
    </g>
    <text font-family="RijksoverheidSansWebText-Bold, RijksoverheidSansWebText, sans-serif" font-size="24" font-weight="700" text-anchor="middle" x="144" y="465"/>
</svg>
