<svg data-name="Layer 1" height="432" viewBox="0 0 288 432" width="288" xmlns="http://www.w3.org/2000/svg" xmlns:xlink="http://www.w3.org/1999/xlink">
    <defs>
        <symbol data-name="golven" id="a" viewBox="0 0 182 52.8">
            <path d="M155.9 33.4l-4.1-3.1-4 3.1c-2.2 1.6-9.8 6.2-16.2 6.2s-13.9-4.5-16.2-6.2l-4-3.1-4.1 3.1c-2.1 1.6-9.7 6.2-16.2 6.2S77.3 35.1 75 33.4l-4.1-3.1-4 3.1c-2.2 1.6-9.8 6.2-16.2 6.2s-13.8-4.5-16.2-6.2l-4-3.1-4.1 3.1c-2.1 1.6-9.7 6.2-16.1 6.2A24.8 24.8 0 0 1 0 36.8V51a31.8 31.8 0 0 0 10.3 1.8c8 0 15.7-3.6 20.2-6.3 4.5 2.7 12.1 6.3 20.2 6.3s15.7-3.6 20.2-6.3c4.5 2.7 12.2 6.3 20.2 6.3s15.8-3.6 20.3-6.3c4.5 2.7 12.1 6.3 20.2 6.3s15.7-3.6 20.2-6.3c4.5 2.7 12.2 6.3 20.2 6.3a32.8 32.8 0 0 0 10-1.7V37a25.1 25.1 0 0 1-10 2.6c-6.3 0-13.8-4.5-16.1-6.2zM155.9 3l-4.1-3-4 3c-2.2 1.7-9.8 6.3-16.2 6.3S117.7 4.8 115.4 3l-4-3-4.1 3c-2.1 1.7-9.7 6.3-16.2 6.3S77.3 4.8 75 3l-4.1-3-4 3c-2.2 1.7-9.8 6.3-16.2 6.3S36.9 4.8 34.5 3l-4-3-4.1 3c-2.1 1.7-9.7 6.3-16.1 6.3A24.8 24.8 0 0 1 0 6.5v14.2a34.7 34.7 0 0 0 10.3 1.7c8 0 15.7-3.6 20.2-6.2 4.5 2.6 12.1 6.2 20.2 6.2s15.7-3.6 20.2-6.2c4.5 2.6 12.2 6.2 20.2 6.2s15.8-3.6 20.3-6.2c4.5 2.6 12.1 6.2 20.2 6.2s15.7-3.6 20.2-6.2c4.5 2.6 12.2 6.2 20.2 6.2a32.7 32.7 0 0 0 10-1.6V6.6c-3 1.4-6.7 2.7-10 2.7-6.3 0-13.8-4.5-16.1-6.3z" fill="#7dcef1"/>
        </symbol>
    </defs>
    <title>
        ophaalbrug-overtrokken-A
    </title>
    <path fill="none" stroke="#d1c1be" stroke-miterlimit="10" stroke-width="3" d="M276 253.8H72"/>
    <path fill="#e7e7e7" stroke="#e6e6e6" stroke-miterlimit="10" d="M42 129.9h24L72 254H36l6-124.1z"/>
    <path fill="#999" d="M0 276h72v144H0z"/>
    <path fill="#373737" d="M0 252h72v24H0z"/>
    <path fill="#f5f5f5" stroke="#e6e6e6" stroke-miterlimit="10" stroke-width="5" d="M233.3 33v129.3"/>
    <path fill="#999" d="M264 276h24v144h-24z"/>
    <path fill="#373737" d="M288 276h-24v-12h12v-12h12v24z"/>
    <path fill="none" stroke="#d1c1be" stroke-miterlimit="10" stroke-width="3" d="M72 274.8h24l168-12h12"/>
    <path d="M9.3 189.7l-8.1-32.5c-1.2-4.8 1.2-10.5 5.1-12.6L237.2 23.1c3.6-1.9 7.3 0 8.4 4.4 1.1 4.4-.8 9.7-4.3 12.1l-222.7 154c-3.9 2.6-8.1.8-9.3-3.9z" fill="#e7e7e7" stroke="#e6e6e6" stroke-miterlimit="10"/>
    <path fill="#fff" stroke="#d1c1be" stroke-miterlimit="10" stroke-width="3" d="M73.5 60.3v192h21v-24l-12-168V49.8h-9v10.5z"/>
    <g fill="#d1c1be">
        <path d="M207.5 145.3a172.5 172.5 0 0 0-103.4-62l1.8-9.8A182.8 182.8 0 0 1 215.3 139z"/>
        <path d="M220.7 130l3.1 29.7-27.3-12.2 24.2-17.5zM111.3 64.4L83.6 75.8 107.3 94l4-29.6z"/>
    </g>
    <circle cx="72" cy="252.2" fill="#673327" r="6"/>
    <use height="52.78" transform="translate(77 362)" width="182" xlink:href="#a"/>
    <path fill="#673327" d="M236 152.3l-164 100 12.5 20.4 20.5-12.4 137.2-97.7 10.3-6.3-6.3-10.2-10.2 6.2z"/>
    <g fill="#d1c1be">
        <path d="M243 231.4a169 169 0 0 0-9.3-38.5l9.4-3.5a182.6 182.6 0 0 1 9.8 40.8z"/>
        <path d="M226.1 201.1l3.7-29.7 23.9 18.1-27.6 11.6zM232.4 227.5l16.8 24.8 13.1-27-29.9 2.2z"/>
    </g>
    <text font-family="RijksoverheidSansWebText-Bold, RijksoverheidSansWebText, sans-serif" font-size="24" font-weight="700" text-anchor="middle" x="144" y="465"/>
</svg>
