<svg data-name="Layer 1" height="480" viewBox="0 0 288 480" width="288" xmlns="http://www.w3.org/2000/svg" xmlns:xlink="http://www.w3.org/1999/xlink">
    <defs>
        <symbol data-name="golven" id="a" viewBox="0 0 182 52.78">
            <path d="M155.86 33.37l-4-3-4 3C145.61 35 138 39.6 131.59 39.6s-13.85-4.51-16.18-6.23l-4-3-4 3c-2.24 1.63-9.85 6.23-16.27 6.23S77.29 35.09 75 33.37l-4-3-4 3C64.72 35 57.12 39.6 50.7 39.6s-13.85-4.51-16.18-6.23l-4-3-4 3C24.28 35 16.68 39.6 10.26 39.6A25.17 25.17 0 0 1 0 36.81V51a33.57 33.57 0 0 0 10.26 1.75c8.08 0 15.72-3.63 20.22-6.28 4.52 2.68 12.14 6.31 20.22 6.31s15.72-3.63 20.22-6.28c4.51 2.65 12.14 6.28 20.22 6.28s15.72-3.63 20.22-6.28c4.51 2.65 12.14 6.28 20.22 6.28s15.72-3.63 20.22-6.28c4.51 2.65 12.14 6.28 20.22 6.28a33.33 33.33 0 0 0 10-1.66V37a24.9 24.9 0 0 1-10 2.65c-6.36-.05-13.84-4.56-16.16-6.28zm0-30.37l-4-3-4 3c-2.16 1.62-9.76 6.23-16.18 6.23S117.74 4.76 115.41 3l-4-3-4 3c-2.16 1.62-9.76 6.23-16.18 6.23S77.29 4.76 75 3l-4-3-4 3c-2.28 1.65-9.88 6.27-16.3 6.27S36.85 4.76 34.52 3l-4-3-4 3c-2.16 1.62-9.76 6.23-16.18 6.23A25.17 25.17 0 0 1 0 6.48V20.7a33.57 33.57 0 0 0 10.26 1.75c8.08 0 15.72-3.63 20.22-6.28 4.52 2.65 12.14 6.28 20.22 6.28s15.72-3.63 20.22-6.28c4.51 2.65 12.14 6.28 20.22 6.28s15.72-3.63 20.22-6.28c4.51 2.65 12.14 6.28 20.22 6.28s15.72-3.63 20.22-6.28c4.51 2.65 12.14 6.28 20.22 6.28a33.33 33.33 0 0 0 10-1.66V6.62a24.9 24.9 0 0 1-10 2.65c-6.36 0-13.84-4.51-16.16-6.27z" fill="#7dcef1"/>
        </symbol>
    </defs>
    <title>ophaalbrug-overtrokken-A</title>
    <path d="M276 253.75H72" fill="none" stroke="#d1c1be" stroke-miterlimit="10" stroke-width="3"/>
    <g data-name="brug onderkant">
        <path d="M42 129.94h24l6 124.03H36l6-124.03z" fill="#e7e7e7" stroke="#e6e6e6" stroke-miterlimit="10"/>
        <path d="M0 252.25h72V420H0z" fill="#999"/>
        <path d="M0 252h72v24H0z" fill="#373737"/>
        <path d="M233.33 33v129.33" fill="#f5f5f5" stroke="#e6e6e6" stroke-miterlimit="10" stroke-width="5"/>
        <path d="M264 276h24v144h-24z" fill="#999"/>
        <path d="M288 276h-24v-12h12v-12h12v24z" fill="#373737"/>
    </g>
    <path d="M72 274.75h24l168-12h12" fill="none" stroke="#d1c1be" stroke-miterlimit="10" stroke-width="3"/>
    <path d="M9.34 189.66L1.22 157.2c-1.19-4.75 1.15-10.51 5.1-12.6L237.16 23.15c3.64-1.92 7.34 0 8.44 4.38 1.09 4.37-.8 9.69-4.31 12.11L18.57 193.56c-3.82 2.64-8.04.86-9.23-3.9z" fill="#e7e7e7" stroke="#e6e6e6" stroke-miterlimit="10"/>
    <path d="M73.5 60.25v192h21v-24l-12-168v-10.5h-9v10.5z" fill="#fff" stroke="#d1c1be" stroke-miterlimit="10" stroke-width="3"/>
    <path d="M211.4 142.16A177.67 177.67 0 0 0 105 78.38" fill="none" stroke="#d1c1be" stroke-miterlimit="10" stroke-width="10"/>
    <path d="M220.74 129.99l3.08 29.75-27.31-12.2 24.23-17.55zM111.27 64.38L83.61 75.76l23.69 18.27 3.97-29.65z" fill="#d1c1be"/>
    <circle cx="72" cy="252.25" fill="#673327" r="6"/>
    <use height="52.78" transform="translate(77 361.99)" width="182" xlink:href="#a"/>
    <path d="M235.96 152.34L72 252.25l12.49 20.5 20.49-12.49 137.22-97.67 10.25-6.24-6.24-10.25-10.25 6.24z" fill="#673327"/>
    <path d="M238.42 191.16a176.11 176.11 0 0 1 9.52 39.6" fill="none" stroke="#d1c1be" stroke-miterlimit="10" stroke-width="10"/>
    <path d="M226.11 201.13l3.66-29.69 23.88 18.01-27.54 11.68zm6.34 26.35l16.78 24.77 13.06-26.91-29.84 2.14z" fill="#d1c1be"/>
    <text font-family="sans-serif" font-size="36" text-anchor="middle" x="144" y="468"/>
</svg>