<svg id="f7240dff-53d0-403f-9079-24b65cb1babb" data-name="Layer 1" xmlns="http://www.w3.org/2000/svg" xmlns:xlink="http://www.w3.org/1999/xlink" width="288" height="432" viewBox="0 0 288 432">
  <defs>
    <symbol id="b62a72f6-e0f2-4b0e-830f-f0c45a953824" data-name="golven" viewBox="0 0 182 52.8">
      <path d="M155.9,33.4l-4.1-3.1-4,3.1c-2.2,1.6-9.8,6.2-16.2,6.2s-13.9-4.5-16.2-6.2l-4-3.1-4.1,3.1c-2.1,1.6-9.7,6.2-16.2,6.2S77.3,35.1,75,33.4l-4.1-3.1-4,3.1c-2.2,1.6-9.8,6.2-16.2,6.2s-13.8-4.5-16.2-6.2l-4-3.1-4.1,3.1c-2.1,1.6-9.7,6.2-16.1,6.2A24.8,24.8,0,0,1,0,36.8V51a31.8,31.8,0,0,0,10.3,1.8c8,0,15.7-3.6,20.2-6.3,4.5,2.7,12.1,6.3,20.2,6.3s15.7-3.6,20.2-6.3c4.5,2.7,12.2,6.3,20.2,6.3s15.8-3.6,20.3-6.3c4.5,2.7,12.1,6.3,20.2,6.3s15.7-3.6,20.2-6.3c4.5,2.7,12.2,6.3,20.2,6.3a32.8,32.8,0,0,0,10-1.7V37a25.1,25.1,0,0,1-10,2.6C165.7,39.6,158.2,35.1,155.9,33.4Z" fill="#7dcef1"/>
      <path d="M155.9,3l-4.1-3-4,3c-2.2,1.7-9.8,6.3-16.2,6.3S117.7,4.8,115.4,3l-4-3-4.1,3c-2.1,1.7-9.7,6.3-16.2,6.3S77.3,4.8,75,3L70.9,0l-4,3c-2.2,1.7-9.8,6.3-16.2,6.3S36.9,4.8,34.5,3l-4-3L26.4,3c-2.1,1.7-9.7,6.3-16.1,6.3A24.8,24.8,0,0,1,0,6.5V20.7a34.7,34.7,0,0,0,10.3,1.7c8,0,15.7-3.6,20.2-6.2,4.5,2.6,12.1,6.2,20.2,6.2s15.7-3.6,20.2-6.2c4.5,2.6,12.2,6.2,20.2,6.2s15.8-3.6,20.3-6.2c4.5,2.6,12.1,6.2,20.2,6.2s15.7-3.6,20.2-6.2c4.5,2.6,12.2,6.2,20.2,6.2a32.7,32.7,0,0,0,10-1.6V6.6c-3,1.4-6.7,2.7-10,2.7C165.7,9.3,158.2,4.8,155.9,3Z" fill="#7dcef1"/>
    </symbol>
  </defs>
  <title>ophaalbrug-overtrokken-B</title>
  <polygon points="246 129.9 222 129.9 216 254 252 254 246 129.9" fill="#e7e7e7" stroke="#e6e6e6" stroke-miterlimit="10"/>
  <rect x="216" y="252.2" width="72" height="167.75" fill="#999"/>
  <rect x="216" y="252" width="72" height="24" fill="#373737"/>
  <line x1="54.7" y1="33" x2="54.7" y2="162.3" fill="#f5f5f5" stroke="#e6e6e6" stroke-miterlimit="10" stroke-width="5"/>
  <rect y="276" width="24" height="144" fill="#999"/>
  <polygon points="0 276 12 276 24 276 24 264 12 264 12 252 0 252 0 264 0 276" fill="#373737"/>
  <polyline points="12 253.8 24 253.8 216 253.8" fill="none" stroke="#d1c1be" stroke-miterlimit="10" stroke-width="3"/>
  <polyline points="216 274.8 192 274.8 24 262.8 12 262.8" fill="none" stroke="#d1c1be" stroke-miterlimit="10" stroke-width="3"/>
  <path d="M278.7,189.7l8.1-32.5c1.2-4.8-1.2-10.5-5.1-12.6L50.8,23.1c-3.6-1.9-7.3,0-8.4,4.4h0c-1.1,4.4.8,9.7,4.3,12.1l222.7,154C273.3,196.2,277.5,194.4,278.7,189.7Z" fill="#e7e7e7" stroke="#e6e6e6" stroke-miterlimit="10"/>
  <polygon points="214.5 60.3 214.5 252.3 193.5 252.3 193.5 228.3 205.5 60.3 205.5 49.8 214.5 49.8 214.5 60.3" fill="#fff" stroke="#d1c1be" stroke-miterlimit="10" stroke-width="3"/>
  <g>
    <path d="M80.5,145.3,72.7,139A182.8,182.8,0,0,1,182.1,73.5l1.8,9.8A172.5,172.5,0,0,0,80.5,145.3Z" fill="#d1c1be"/>
    <polygon points="91.5 147.5 64.2 159.7 67.3 130 91.5 147.5" fill="#d1c1be"/>
    <polygon points="180.7 94 204.4 75.8 176.7 64.4 180.7 94" fill="#d1c1be"/>
  </g>
  <circle cx="216" cy="252.2" r="6" fill="#673327"/>
  <use width="182" height="52.78" transform="matrix(-1, 0, 0, 1, 211, 361.99)" xlink:href="#b62a72f6-e0f2-4b0e-830f-f0c45a953824"/>
  <polygon points="52 152.3 216 252.3 203.5 272.7 183 260.3 45.8 162.6 35.5 156.3 41.8 146.1 52 152.3" fill="#673327"/>
  <g>
    <path d="M45,231.4l-9.9-1.2a185.3,185.3,0,0,1,9.8-40.8l9.4,3.5A169,169,0,0,0,45,231.4Z" fill="#d1c1be"/>
    <polygon points="34.3 189.5 58.2 171.4 61.9 201.1 34.3 189.5" fill="#d1c1be"/>
    <polygon points="25.7 225.3 38.8 252.3 55.6 227.5 25.7 225.3" fill="#d1c1be"/>
  </g>
</svg>
