<svg id="a873c587-0a23-4933-95df-bd4935f3b794" data-name="Layer 1" xmlns="http://www.w3.org/2000/svg" viewBox="0 0 96 24">
  <title>opvaart-omhoog</title>
  <g>
    <path d="M25.9,12.9c0-2.4,1.2-3.8,2.7-3.8s2.2.9,2.2,2.5-1.2,3.7-2.7,3.7S25.9,14.6,25.9,12.9Zm2.3,1.3c.6,0,1.2-.7,1.2-2.4s-.3-1.5-.9-1.5-1.2.7-1.2,2.5S27.7,14.2,28.2,14.2Z" fill="#6f1113"/>
    <path d="M31.5,17.5l.7-8.2h1.4v.9h0a2.1,2.1,0,0,1,1.6-.9c.9,0,1.6.6,1.6,2.2s-1.5,3.9-3.1,3.9H33v2.2Zm1.6-3.4h.6c.8,0,1.6-.8,1.6-2.8s-.3-.9-.7-.9a1.5,1.5,0,0,0-1.2.6Z" fill="#6f1113"/>
    <path d="M37.4,9.3h.9l.8,5.1h0l.4-.6a14.3,14.3,0,0,0,1.3-4.5h.8A15.3,15.3,0,0,1,40.1,14l-.6,1.2H38.4Z" fill="#6f1113"/>
    <path d="M46.5,9.2l-.5,6h-.8v-.9h-.1a2.1,2.1,0,0,1-1.7,1c-.8,0-1.4-.5-1.4-2s1.4-4.1,2.8-4.1h1.6Zm-.9.8h-.7C44,10,43,11.1,43,13.2s.3,1.3.7,1.3,1-.3,1.6-1.1Z" fill="#6f1113"/>
    <path d="M52.1,9.2l-.6,6h-.8v-.9h-.1a2.1,2.1,0,0,1-1.7,1c-.8,0-1.4-.5-1.4-2S49,9.2,50.4,9.2h1.7Zm-1,.8h-.7c-.9,0-1.9,1.1-1.9,3.2s.3,1.3.8,1.3a2,2,0,0,0,1.5-1.1Z" fill="#6f1113"/>
    <path d="M56.2,10.2h-.4c-.4,0-.9.5-1.4,1.2l-.3,3.9h-.9l.5-5.8h.9v1.1h0c.6-1,.9-1.2,1.4-1.2h.4Z" fill="#6f1113"/>
    <path d="M56.6,9.3h.7V8.1h.9l-.2,1.3h1.3V10H58.1l-.4,3.5c-.1.8.1,1,.5,1h.9v.7a2,2,0,0,1-1.1.2c-.8,0-1.3-.5-1.1-1.8l.3-3.5h-.6Z" fill="#6f1113"/>
  </g>
  <g>
    <polygon points="65 24 66.3 4.2 66.8 4.2 68 24 65 24" fill="#6f1113"/>
    <polygon points="66.5 0 69 6 66.5 4.6 64.1 6 66.5 0" fill="#6f1113"/>
  </g>
</svg>
