<svg id="8d809134-e0b7-4d73-999e-b53b7b33e606" data-name="Layer 1" xmlns="http://www.w3.org/2000/svg" xmlns:xlink="http://www.w3.org/1999/xlink" width="240" height="480" viewBox="0 0 240 480"><defs><filter id="14c1dbab-9c50-4170-8839-803f9fe4ef37" name="AI_GaussianBlur_4"><feGaussianBlur stdDeviation="4"/></filter><linearGradient id="58594806-597b-4169-910e-cb9c22a70578" x1="49.4" y1="285.6" x2="182.24" y2="418.44" gradientUnits="userSpaceOnUse"><stop offset="0" stop-color="#c6b8cf"/><stop offset="1" stop-color="#42145f"/></linearGradient><clipPath id="834bdff5-d824-4112-a476-8a40e491b4f1"><rect x="89.2" y="334.2" width="48.5" height="11.84" fill="none"/></clipPath></defs><title>over-kolk</title><g id="85e2e895-a244-4026-99a7-20b731b42094" data-name="overlay"><g opacity="0.5" filter="url(#14c1dbab-9c50-4170-8839-803f9fe4ef37)"><rect x="46.2" y="297" width="156" height="120" rx="11.9" ry="11.9"/></g><rect x="37.8" y="292" width="156" height="120" rx="11.9" ry="11.9" fill="#662a8c" stroke-miterlimit="10" stroke-width="2.63" stroke="url(#58594806-597b-4169-910e-cb9c22a70578)"/><polygon points="63.3 337.9 63.3 343.6 74.8 343.6 74.8 366.5 86.2 366.5 86.2 343.6 141.2 343.6 141.2 366.5 152.7 366.5 152.7 343.6 164.1 343.6 164.1 337.9 63.3 337.9" fill="#fff" stroke="#662a8c" stroke-miterlimit="10" stroke-width="2"/><polygon points="117.7 322.2 116.7 322.2 108.7 322.2 109.7 322.2 83 384.7 143.5 384.7 117.7 322.2" fill="#b2d7ee"/><polygon points="109.7 319.2 84 359.7 84 384.7 109.7 322.2 109.7 319.2" fill="#b4b4b4"/><polygon points="116.7 319.2 116.7 322.2 142.5 384.7 142.5 359.7 116.7 319.2" fill="#b4b4b4"/><polygon points="138.8 353.9 136.6 371 89.8 371 87.6 353.9 84 359.7 86.4 378.7 140 378.7 142.5 359.7 138.8 353.9" opacity="0.15"/><polygon points="83.1 359.7 109.7 319.2 85.1 359.7 83.1 359.7" fill="#ccc"/><polygon points="116.7 319.2 143.7 359.7 141.3 359.7 116.7 319.2" fill="#ccc"/><polyline points="84 359.7 84 384.7 142.5 384.7 142.5 359.7" fill="none" stroke="#333" stroke-miterlimit="10" stroke-width="2"/><polygon points="87.9 362.7 138.5 362.7 139.4 364.5 87 364.5 87.9 362.7" fill="#a9a9a9"/><rect x="87" y="364.5" width="52.4" height="12.51" fill="#707070"/><polygon points="108.9 321.7 117.5 321.7 117.7 322 108.7 322 108.9 321.7" fill="#a9a9a9"/><rect x="108.7" y="322" width="9" height="2.15" fill="#707070"/><line x1="113.2" y1="377" x2="113.2" y2="362.5" fill="none" stroke="#535353" stroke-linejoin="round"/><line x1="113.2" y1="324.2" x2="113.2" y2="321.7" fill="none" stroke="#535353" stroke-linejoin="round" stroke-width="0.25"/><g clip-path="url(#834bdff5-d824-4112-a476-8a40e491b4f1)"><polygon points="63.3 337.9 63.3 343.6 74.8 343.6 74.8 366.5 86.2 366.5 86.2 343.6 141.2 343.6 141.2 366.5 152.7 366.5 152.7 343.6 164.1 343.6 164.1 337.9 63.3 337.9" fill="#fff" stroke="#662a8c" stroke-miterlimit="10" stroke-width="2"/></g></g></svg>