<svg id="75a55cb8-7b4f-4146-9dd2-fb199b4f3436" data-name="Layer 1" xmlns="http://www.w3.org/2000/svg" xmlns:xlink="http://www.w3.org/1999/xlink" width="240" height="480" viewBox="0 0 240 480">

  <title>over-sluishoofd-B</title>
  <g id="1d093648-b362-401b-8b54-5de22c30028b" data-name="brug onderkant">
    <defs>
      <filter id="5a786f5b-24b4-4205-bb97-6958ea05acb1" name="AI_GaussianBlur_4">
        <feGaussianBlur stdDeviation="2"/>
      </filter>
      <linearGradient id="814db396-8273-4995-8a4d-6c9f76153cb7" x1="29.58" y1="282.84" x2="162.42" y2="415.69" gradientUnits="userSpaceOnUse">
        <stop offset="0" stop-color="#c6b8cf"/>
        <stop offset="1" stop-color="#42145f"/>
      </linearGradient>
    </defs>
    <g opacity="0.5" filter="url(#5a786f5b-24b4-4205-bb97-6958ea05acb1)">
      <rect x="26.4" y="297" width="156" height="120" rx="11.9" ry="11.9"/>
    </g>
    <g>
      <rect x="18" y="289.3" width="156" height="120" rx="11.9" ry="11.9" fill="#42145f" stroke-miterlimit="10" stroke-width="2.63" stroke="url(#814db396-8273-4995-8a4d-6c9f76153cb7)"/>
      <polygon points="71.7 310.2 71.7 313 77.2 313 77.2 324 82.7 324 82.7 313 109.3 313 109.3 324 114.8 324 114.8 313 120.3 313 120.3 310.2 71.7 310.2" fill="#fff" stroke="#42145f" stroke-linejoin="round" stroke-width="0.89"/>
      <g>
        <polygon points="100.4 311.6 100.4 311.6 91.6 311.6 91.6 311.6 58.9 390.8 133.1 390.8 100.4 311.6" fill="#b2d7ee"/>
        <path d="M99.8,312.6l31.8,77.2H60.4l31.8-77.2h7.6m.6-1H91.6L58.9,390.8h74.2l-32.7-79.2Z" fill="none"/>
      </g>
      <polygon points="90.6 307.7 60 360.4 55.8 357.7 90.6 307.7" fill="#42145f"/>
      <g>
        <polygon points="91.6 307.7 58.9 359 58.9 390.8 91.6 311.6 91.6 307.7" fill="#b4b4b4"/>
        <path d="M90.6,311.2v.2L59.9,385.7V359.3l30.7-48.1m1-3.5L58.9,359v31.8l32.7-79.2v-3.9Z" fill="none"/>
      </g>
      <g>
        <line x1="91.6" y1="307.7" x2="58.9" y2="359" fill="none"/>
        <polygon points="91.6 307.7 59.8 359.5 58.1 358.5 91.6 307.7" fill="#ccc"/>
      </g>
      <polygon points="100.9 307.7 135.7 357.7 131.4 360.4 100.9 307.7" fill="#42145f"/>
      <g>
        <polygon points="100.4 307.7 100.4 311.6 133.1 390.8 133.1 359 100.4 307.7" fill="#b4b4b4"/>
        <path d="M101.4,311.2l30.7,48.1v26.4l-30.7-74.3v-.2m-1-3.5v3.9l32.7,79.2V359l-32.7-51.3Z" fill="none"/>
      </g>
      <g>
        <line x1="133.1" y1="359" x2="100.4" y2="307.7" fill="none"/>
        <polygon points="132.2 359.5 100.4 307.7 133.9 358.5 132.2 359.5" fill="#ccc"/>
      </g>
      <polyline points="83.4 313 83.4 310.2 108.6 310.2 108.6 313" fill="#fff"/>
      <line x1="83.4" y1="313" x2="108.6" y2="313" fill="none" stroke="#42145f" stroke-linejoin="round" stroke-width="0.89"/>
      <polyline points="58.9 359 58.9 390.8 133.1 390.8 133.1 359" fill="none" stroke="#535353" stroke-miterlimit="10" stroke-width="2"/>
      <polygon points="103.9 313.6 103.2 318.9 88.8 318.9 88.1 313.6 87 315.4 87.8 321.3 104.2 321.3 105 315.4 103.9 313.6" opacity="0.15"/>
      <g>
        <polygon points="65.3 359.6 126.5 359.6 127.7 361.8 64.2 361.8 65.3 359.6" fill="#a9a9a9"/>
        <rect x="64.2" y="361.8" width="63.5" height="15.14" fill="#707070"/>
      </g>
      <g>
        <polygon points="88.2 315.7 103.8 315.7 104.1 316.2 87.9 316.2 88.2 315.7" fill="#a9a9a9"/>
        <rect x="87.9" y="316.2" width="16.1" height="3.84" fill="#707070"/>
      </g>
      <line x1="96" y1="377" x2="96" y2="359.5" fill="none" stroke="#535353" stroke-linejoin="round"/>
      <rect x="87" y="304.5" width="15.8" height="5.72" fill="#42145f"/>
      <line x1="96" y1="320.1" x2="96" y2="315.7" fill="none" stroke="#535353" stroke-linejoin="round" stroke-width="0.25"/>
      <line x1="108.6" y1="310.2" x2="83.4" y2="310.2" fill="none" stroke="#42145f" stroke-linejoin="round" stroke-width="0.89"/>
    </g>
  </g>
</svg>
