<svg id="de00b4fe-db0c-446d-a946-ee38e1e593cd" data-name="Layer 1" xmlns="http://www.w3.org/2000/svg" xmlns:xlink="http://www.w3.org/1999/xlink" width="240" height="480" viewBox="0 0 240 480">
  <defs>
    <filter id="93fbb1cf-d3a2-4e4d-b12a-f7a9e6ca7a7f" name="AI_GaussianBlur_4">
      <feGaussianBlur stdDeviation="4"/>
    </filter>
    <linearGradient id="9850173c-0049-4fde-aa68-facad0583d74" x1="49.4" y1="285.6" x2="182.24" y2="418.44" gradientUnits="userSpaceOnUse">
      <stop offset="0" stop-color="#c6b8cf"/>
      <stop offset="1" stop-color="#42145f"/>
    </linearGradient>
  </defs>
  <title>over-sluishoofd-A</title>
  <g id="aff75085-0f05-49f0-bea8-2b3006e331b5" data-name="overlay">
    <g opacity="0.5" filter="url(#93fbb1cf-d3a2-4e4d-b12a-f7a9e6ca7a7f)">
      <rect x="46.18" y="297.02" width="156" height="120" rx="11.94" ry="11.94"/>
    </g>
    <rect x="37.82" y="292.02" width="156" height="120" rx="11.94" ry="11.94" fill="#662a8c" stroke-miterlimit="10" stroke-width="2.63" stroke="url(#9850173c-0049-4fde-aa68-facad0583d74)"/>
    <polygon points="117.72 322.2 116.72 322.2 108.7 322.2 109.7 322.2 82.95 384.73 143.46 384.73 117.72 322.2" fill="#b2d7ee"/>
    <polygon points="109.7 319.19 83.95 359.65 83.95 384.73 109.7 322.2 109.7 319.19" fill="#b4b4b4"/>
    <polygon points="116.72 319.19 116.72 322.2 142.46 384.73 142.46 359.65 116.72 319.19" fill="#b4b4b4"/>
    <polygon points="138.82 353.93 136.61 370.97 89.8 370.97 87.59 353.93 83.95 359.65 86.42 378.73 139.99 378.73 142.46 359.65 138.82 353.93" opacity="0.15"/>
    <polygon points="83.11 359.65 109.7 319.19 85.12 359.65 83.11 359.65" fill="#ccc"/>
    <polygon points="116.72 319.19 143.66 359.65 141.29 359.65 116.72 319.19" fill="#ccc"/>
    <polygon points="40.94 343.51 40.94 351.78 57.48 351.78 57.48 384.85 74.01 384.85 74.01 351.78 153.45 351.78 153.45 384.85 169.98 384.85 169.98 351.78 186.52 351.78 186.52 343.51 40.94 343.51" fill="#fff" stroke="#662a8c" stroke-miterlimit="10" stroke-width="2"/>
    <polyline points="83.95 359.65 83.95 384.73 142.46 384.73 142.46 359.65" fill="none" stroke="#333" stroke-miterlimit="10" stroke-width="2"/>
    <polygon points="87.9 362.66 138.51 362.66 139.43 364.45 86.98 364.45 87.9 362.66" fill="#a9a9a9"/>
    <rect x="86.98" y="364.45" width="52.45" height="12.51" fill="#707070"/>
    <polygon points="108.86 321.73 117.55 321.73 117.71 322.04 108.71 322.04 108.86 321.73" fill="#a9a9a9"/>
    <rect x="108.71" y="322.04" width="9" height="2.15" fill="#707070"/>
    <line x1="113.21" y1="376.96" x2="113.21" y2="362.52" fill="none" stroke="#535353" stroke-linejoin="round"/>
    <line x1="113.21" y1="324.19" x2="113.21" y2="321.73" fill="none" stroke="#535353" stroke-linejoin="round" stroke-width="0.25"/>
  </g>
</svg>
