<svg id="1b080d42-c232-436c-bc5f-713264f8ec5a" data-name="Layer 1" xmlns="http://www.w3.org/2000/svg" width="240" height="480" viewBox="0 0 240 480">
  <title>sb-bb</title>
  <g id="87a46fe5-c455-4901-96d7-ccaaebc2b29d" data-name="overlay">
    <g>
      <path d="M187.1,430.2c3.6,0,3.6-2,7.1-2s3.6,2,7.1,2,3.6-2,7.1-2,3.6,2,7.1,2,3.4-1.1,5-1.7l1.5-25.7L190.3,400l-3.5,30.1Z" fill="#d52b1e"/>
      <path d="M180.3,428.7c3.5,0,3.5,2,7.1,2s3.5-2,7.1-2,3.5,2,7.1,2,3.6-2,7.1-2,3.6,2,7.1,2,3.6-2,7.1-2,3.6,2,7.2,2" fill="none" stroke="#7dcef1" stroke-miterlimit="10" stroke-width="2"/>
    </g>
    <g>
      <path d="M16.8,430.2c3.5,0,3.5-2,7.1-2s3.5,2,7.1,2,3.5-2,7.1-2,3.6,2,7.1,2,3.4-1.3,5.2-1.8l.8-8.7L35.8,401.4,17.5,416.8l-1.2,13.3Z" fill="#39870c"/>
      <path d="M9.9,428.7c3.6,0,3.6,2,7.1,2s3.6-2,7.2-2,3.5,2,7.1,2,3.5-2,7.1-2,3.5,2,7.1,2,3.6-2,7.1-2,3.6,2,7.1,2" fill="none" stroke="#7dcef1" stroke-miterlimit="10" stroke-width="2"/>
    </g>
  </g>
</svg>
