<svg id="b8f41289-fa54-4d25-a99e-8d5e647f493f" data-name="Layer 1" xmlns="http://www.w3.org/2000/svg" viewBox="0 0 168 24">
  <title>stroomopwaarts</title>
  <g>
    <path d="M159.2,0c0,1.6-1.9,1.6-1.9,3.2s1.9,1.6,1.9,3.2-1.9,1.5-1.9,3.1,1.9,1.6,1.9,3.2-1.9,1.6-1.9,3.2,1.9,1.6,1.9,3.2" fill="none" stroke="#59a9db" stroke-miterlimit="10" stroke-width="1.5"/>
    <g>
      <line x1="159.2" y1="19.1" x2="159.2" y2="20.8" fill="none" stroke="#59a9db" stroke-miterlimit="10" stroke-width="1.5"/>
      <polygon points="156.9 20.1 159.2 24 161.4 20.1 156.9 20.1" fill="#59a9db"/>
    </g>
  </g>
  <g>
    <path d="M17.4,18.6V17.1l1.3.3h1.2a2.9,2.9,0,0,0,1.7-.4,1.4,1.4,0,0,0,.6-1.2,2.9,2.9,0,0,0-.2-.9,5.7,5.7,0,0,0-1.1-1l-1.1-.7a2.9,2.9,0,0,1-1.1-1.1,2.3,2.3,0,0,1-.4-1.4,2.9,2.9,0,0,1,1-2.3A4.2,4.2,0,0,1,22,7.5h1.1l1.1.2L24,9.1H21.9a2.4,2.4,0,0,0-1.5.4,1.6,1.6,0,0,0-.5,1.1,2.9,2.9,0,0,0,.2.9,3.5,3.5,0,0,0,.9.7l1.1.7A4.4,4.4,0,0,1,23.5,14a2.4,2.4,0,0,1,.4,1.5,3.1,3.1,0,0,1-1.2,2.4,3.9,3.9,0,0,1-2.9,1H18.5Z" fill="#59a9db"/>
    <path d="M25.9,8.9V7.7h1.2l.3-2.4L29,5l-.3,2.7H31l-.2,1.2H28.6l-.7,6.5a2.4,2.4,0,0,0,.2,1.6c.1.3.4.4.8.4h.7l.9-.3v1.5l-1,.2H28.4a1.9,1.9,0,0,1-1.7-.8,3.7,3.7,0,0,1-.4-2.6L27,8.9Z" fill="#59a9db"/>
    <path d="M38.1,7.6l-.2,1.6h-.7a2.2,2.2,0,0,0-1.3.6,5.9,5.9,0,0,0-1.3,1.7l-.7,7.3H32.3l1-11,1.6-.2-.2,2.1h0a5.3,5.3,0,0,1,1.4-1.7,1.9,1.9,0,0,1,1.2-.4h.8Z" fill="#59a9db"/>
    <path d="M42.4,18.9a3.6,3.6,0,0,1-2.7-1,4.9,4.9,0,0,1-1-3.5,8.1,8.1,0,0,1,1.5-5.2,4.2,4.2,0,0,1,3.4-1.8,3.4,3.4,0,0,1,2.7,1.2,5.3,5.3,0,0,1,1,3.4,8.1,8.1,0,0,1-1.5,5.1A4.3,4.3,0,0,1,42.4,18.9Zm-2-4.7a4.1,4.1,0,0,0,.6,2.6,1.9,1.9,0,0,0,1.6.7,2.5,2.5,0,0,0,2-1.3,6.2,6.2,0,0,0,1-4A4,4,0,0,0,45,9.7a1.7,1.7,0,0,0-1.6-.8,2.6,2.6,0,0,0-2.1,1.3A7.2,7.2,0,0,0,40.4,14.2Z" fill="#59a9db"/>
    <path d="M53,18.9a3.7,3.7,0,0,1-2.8-1,5.4,5.4,0,0,1-1-3.5,8.1,8.1,0,0,1,1.5-5.2,4.3,4.3,0,0,1,3.4-1.8,3.2,3.2,0,0,1,2.7,1.2,4.8,4.8,0,0,1,1,3.4,8.1,8.1,0,0,1-1.5,5.1A4.1,4.1,0,0,1,53,18.9Zm-2.1-4.7a4.1,4.1,0,0,0,.6,2.6,2,2,0,0,0,1.6.7,2.8,2.8,0,0,0,2.1-1.3,6.9,6.9,0,0,0,1-4,4,4,0,0,0-.6-2.5,1.9,1.9,0,0,0-1.7-.8,2.5,2.5,0,0,0-2,1.3A6.4,6.4,0,0,0,50.9,14.2Z" fill="#59a9db"/>
    <path d="M59.8,18.7l1-11,1.6-.2V9.2h0A7.7,7.7,0,0,1,64,7.9a2.9,2.9,0,0,1,1.6-.4,2,2,0,0,1,1.4.4,2.1,2.1,0,0,1,.7,1.4h.1a5.5,5.5,0,0,1,1.8-1.4,2.9,2.9,0,0,1,1.6-.4,1.9,1.9,0,0,1,1.7.8c.5.6.6,1.5.5,2.9l-.7,7.5H71.1l.7-7.3a3.4,3.4,0,0,0-.2-1.9,1.1,1.1,0,0,0-.9-.5,2.4,2.4,0,0,0-1.2.4,6.6,6.6,0,0,0-1.6,1.2l-.8,8.1H65.5l.7-7.3A4.7,4.7,0,0,0,66,9.5a1,1,0,0,0-.8-.5,2.4,2.4,0,0,0-1.3.4,8.6,8.6,0,0,0-1.7,1.3l-.8,8Z" fill="#59a9db"/>
    <path d="M79.5,18.9a3.7,3.7,0,0,1-2.8-1,5.4,5.4,0,0,1-1-3.5,8.1,8.1,0,0,1,1.5-5.2,4.3,4.3,0,0,1,3.4-1.8,3.4,3.4,0,0,1,2.7,1.2,4.8,4.8,0,0,1,1,3.4,8.1,8.1,0,0,1-1.5,5.1A4.3,4.3,0,0,1,79.5,18.9Zm-2.1-4.7a4.1,4.1,0,0,0,.6,2.6,2,2,0,0,0,1.6.7,2.8,2.8,0,0,0,2.1-1.3,7,7,0,0,0,.9-4A4,4,0,0,0,82,9.7a1.6,1.6,0,0,0-1.6-.8,2.5,2.5,0,0,0-2,1.3A6.4,6.4,0,0,0,77.4,14.2Z" fill="#59a9db"/>
    <path d="M87.5,23H85.9L87.3,7.7l1.6-.2-.2,1.8h.1a7,7,0,0,1,1.7-1.4,2.9,2.9,0,0,1,1.6-.4,2.1,2.1,0,0,1,1.8.8,4.7,4.7,0,0,1,.7,3c0,2.5-.5,4.4-1.6,5.7a5,5,0,0,1-3.8,1.9h-.7l-.6-.2Zm1.1-12L88,17.4h1.2a3.1,3.1,0,0,0,2.6-1.4A7.4,7.4,0,0,0,93,11.4a4.1,4.1,0,0,0-.4-1.9,1.4,1.4,0,0,0-1-.5,3.4,3.4,0,0,0-1.4.5A7.3,7.3,0,0,0,88.6,11Z" fill="#59a9db"/>
    <path d="M98.2,18.7l-1.7-11h1.7l1.2,9.5h.1l.5-1.1c.4-.8.8-1.8,1.3-3a20.7,20.7,0,0,0,1-3.3L102,7.7h1.7l1.2,9.5h.1l.6-1.1a16.4,16.4,0,0,0,1.4-3.9,26,26,0,0,0,.8-4.5h1.7a29.8,29.8,0,0,1-1,4.7,18.3,18.3,0,0,1-1.8,4.1l-1.1,2.2h-1.9l-.9-6.7h-.1a16.8,16.8,0,0,1-.7,2.4,16,16,0,0,1-1,2.3l-.9,2Z" fill="#59a9db"/>
    <path d="M117.5,7.6l1.4-.2-1,11.3h-1.6l.2-1.8h-.1a5.3,5.3,0,0,1-1.5,1.5,4.1,4.1,0,0,1-1.8.5,2.3,2.3,0,0,1-1.8-.9,4.4,4.4,0,0,1-.7-2.9c0-2.5.5-4.4,1.6-5.7a4.7,4.7,0,0,1,3.7-1.9h1.6Zm-.9,7.6.6-6.3h-1.5a2.9,2.9,0,0,0-2.3,1.6,7.1,7.1,0,0,0-1.1,4.5,3.3,3.3,0,0,0,.4,2,1.2,1.2,0,0,0,.9.5,3,3,0,0,0,1.4-.5A8.9,8.9,0,0,0,116.6,15.2Z" fill="#59a9db"/>
    <path d="M127.9,7.6l1.4-.2-1.1,11.3h-1.5l.2-1.8h-.1a4.5,4.5,0,0,1-1.6,1.5,3.4,3.4,0,0,1-1.7.5,2,2,0,0,1-1.8-.9,4.4,4.4,0,0,1-.7-2.9c0-2.5.5-4.4,1.6-5.7a4.7,4.7,0,0,1,3.6-1.9h1.7Zm-.9,7.6.5-6.3h-1.4a3.1,3.1,0,0,0-2.4,1.6,7.8,7.8,0,0,0-1.1,4.5,4.3,4.3,0,0,0,.4,2,1.4,1.4,0,0,0,1,.5,3.4,3.4,0,0,0,1.4-.5A8.9,8.9,0,0,0,127,15.2Z" fill="#59a9db"/>
    <path d="M137.2,7.6,137,9.2h-.6a2.2,2.2,0,0,0-1.4.6,8.4,8.4,0,0,0-1.3,1.7l-.6,7.3h-1.6l.9-11,1.6-.2-.2,2.1h.1a4.3,4.3,0,0,1,1.3-1.7,2,2,0,0,1,1.3-.4h.7Z" fill="#59a9db"/>
    <path d="M137.9,8.9V7.7h1.3l.2-2.4L141,5l-.3,2.7H143V8.9h-2.3l-.7,6.5a3.2,3.2,0,0,0,.2,1.6.8.8,0,0,0,.8.4h.8l.8-.3v1.5l-1,.2h-1.1a2,2,0,0,1-1.7-.8,3.7,3.7,0,0,1-.4-2.6l.7-6.6Z" fill="#59a9db"/>
    <path d="M143.5,18.6V17.1l1.3.3h1.3a2.5,2.5,0,0,0,1.6-.4,1.3,1.3,0,0,0,.7-1.2,1.6,1.6,0,0,0-.3-.9,3.7,3.7,0,0,0-1.1-1l-1-.7a4.3,4.3,0,0,1-1.2-1.1,2.3,2.3,0,0,1-.4-1.4,3,3,0,0,1,1.1-2.3,3.9,3.9,0,0,1,2.6-.9h1.1l1.1.2V9.1H148a2,2,0,0,0-1.4.4,1.4,1.4,0,0,0-.6,1.1,1.6,1.6,0,0,0,.3.9,1.9,1.9,0,0,0,.8.7l1.1.7a3.6,3.6,0,0,1,1.4,1.3,2.5,2.5,0,0,1,.5,1.5,3.1,3.1,0,0,1-1.2,2.4,4.3,4.3,0,0,1-2.9,1h-1.3Z" fill="#59a9db"/>
  </g>
</svg>
