<svg id="d720afbb-0737-4bed-a699-05195df112d0" data-name="Layer 1" xmlns="http://www.w3.org/2000/svg" viewBox="0 0 96 24">
  <title>stroomafwaarts</title>
  <g>
    <path d="M85.3,24c0-1.6,1.9-1.6,1.9-3.2s-1.9-1.6-1.9-3.2,1.9-1.5,1.9-3.1-1.9-1.6-1.9-3.2,1.9-1.6,1.9-3.2-1.9-1.6-1.9-3.2" fill="none" stroke="#59a9db" stroke-miterlimit="10" stroke-width="1.5"/>
    <g>
      <line x1="85.3" y1="4.9" x2="85.3" y2="3.2" fill="none" stroke="#59a9db" stroke-miterlimit="10" stroke-width="1.5"/>
      <polygon points="87.5 3.9 85.3 0 83 3.9 87.5 3.9" fill="#59a9db"/>
    </g>
  </g>
  <g>
    <path d="M8.4,15.2v-.9l.7.2h.7c.4,0,.7,0,.9-.2a.9.9,0,0,0,.3-.6.7.7,0,0,0-.1-.5c-.1-.2-.3-.3-.6-.5l-.6-.4-.6-.6a1.9,1.9,0,0,1-.2-.7,1.8,1.8,0,0,1,.6-1.3,2.2,2.2,0,0,1,1.4-.5H12v.8H10.8l-.7.2a.9.9,0,0,0-.3.6.9.9,0,0,0,.1.5l.4.4.6.3a2.9,2.9,0,0,1,.8.7,1.9,1.9,0,0,1,.2.8,1.8,1.8,0,0,1-.6,1.3,2.8,2.8,0,0,1-1.6.5H8.4Z" fill="#59a9db"/>
    <path d="M12.9,10V9.3h.7V8.1h.9l-.2,1.3h1.3V10H14.4L14,13.5c0,.4,0,.7.1.8s.2.2.4.2h.9v.7l-.5.2h-.6a1,1,0,0,1-.9-.4,1.9,1.9,0,0,1-.2-1.4l.3-3.5Z" fill="#59a9db"/>
    <path d="M19.4,9.3v.9H19a1.1,1.1,0,0,0-.7.3,3.1,3.1,0,0,0-.7.9l-.4,3.9h-.8l.5-5.8h.8v1.1h.1a1.7,1.7,0,0,1,.7-.9l.6-.3h.4Z" fill="#59a9db"/>
    <path d="M21.7,15.3a2.2,2.2,0,0,1-1.4-.5,2.6,2.6,0,0,1-.5-1.9,4.1,4.1,0,0,1,.7-2.7,2.4,2.4,0,0,1,1.9-1,1.8,1.8,0,0,1,1.4.6,3,3,0,0,1,.5,1.8,3.6,3.6,0,0,1-.8,2.7A2.1,2.1,0,0,1,21.7,15.3Zm-1-2.5a2.2,2.2,0,0,0,.3,1.4.9.9,0,0,0,.8.4,1.5,1.5,0,0,0,1.1-.7,3.3,3.3,0,0,0,.5-2.1,2.4,2.4,0,0,0-.3-1.4,1,1,0,0,0-.9-.4,1.3,1.3,0,0,0-1,.7A3.3,3.3,0,0,0,20.7,12.8Z" fill="#59a9db"/>
    <path d="M27.3,15.3a2.2,2.2,0,0,1-1.4-.5,2.6,2.6,0,0,1-.5-1.9,4.1,4.1,0,0,1,.7-2.7,2.4,2.4,0,0,1,1.9-1,1.8,1.8,0,0,1,1.4.6,2.4,2.4,0,0,1,.5,1.8,3.6,3.6,0,0,1-.8,2.7A2.1,2.1,0,0,1,27.3,15.3Zm-1-2.5a2.2,2.2,0,0,0,.3,1.4.9.9,0,0,0,.8.4,1.5,1.5,0,0,0,1.1-.7,3.3,3.3,0,0,0,.5-2.1,2.4,2.4,0,0,0-.3-1.4.9.9,0,0,0-.8-.4,1.3,1.3,0,0,0-1.1.7A3.3,3.3,0,0,0,26.3,12.8Z" fill="#59a9db"/>
    <path d="M31,15.2l.5-5.8h.9v.9h0l.9-.7a1.6,1.6,0,0,1,.9-.3.9.9,0,0,1,.7.3c.2.1.3.4.4.7h0a4.6,4.6,0,0,1,1-.7,1.1,1.1,0,0,1,.8-.3,1.4,1.4,0,0,1,1,.5,2.2,2.2,0,0,1,.2,1.5l-.4,4H37l.3-3.9a1.1,1.1,0,0,0-.1-1l-.4-.2a1.1,1.1,0,0,0-.7.2l-.8.6-.5,4.3H34l.4-3.9a2.8,2.8,0,0,0-.1-1l-.5-.2a.7.7,0,0,0-.6.2,4.6,4.6,0,0,0-1,.7l-.4,4.2Z" fill="#59a9db"/>
    <path d="M43.1,9.3h.7l-.5,6h-.8v-.9h-.1l-.8.8-1,.2a1,1,0,0,1-.9-.4,2.5,2.5,0,0,1-.4-1.6,4.5,4.5,0,0,1,.9-3,2.4,2.4,0,0,1,1.9-1.1h.9Zm-.5,4.1.3-3.4h-.8a1.4,1.4,0,0,0-1.2.8,3.8,3.8,0,0,0-.6,2.4,2.2,2.2,0,0,0,.2,1c.2.2.3.3.5.3l.8-.3Z" fill="#59a9db"/>
    <path d="M46.5,9.3h1.3V10H46.5l-.7,7.5H45l.6-7.5h-.5V9.3h.6V8.7a1.8,1.8,0,0,1,.6-1.4,2.1,2.1,0,0,1,1.3-.5h.9v.7h-.9l-.7.2a1.3,1.3,0,0,0-.4.9Z" fill="#59a9db"/>
    <path d="M48.9,15.2,48,9.3h.9l.6,5.1h.1l.3-.5.6-1.6a9.4,9.4,0,0,0,.6-1.8l-.2-1.2h.9l.7,5.1h0l.3-.5a18,18,0,0,0,.8-2.1A16.4,16.4,0,0,0,54,9.3h.9a13.7,13.7,0,0,1-.5,2.5,11.5,11.5,0,0,1-1,2.3l-.6,1.1h-1l-.5-3.6h0a7.4,7.4,0,0,1-.4,1.4,6.1,6.1,0,0,1-.5,1.2l-.5,1Z" fill="#59a9db"/>
    <path d="M59.2,9.3h.7l-.5,6h-.9v-.9h0a6,6,0,0,1-.8.8l-1,.2a1,1,0,0,1-.9-.4,2.5,2.5,0,0,1-.4-1.6,4.5,4.5,0,0,1,.9-3,2.4,2.4,0,0,1,1.9-1.1h.9Zm-.5,4.1L59,10h-.8a1.4,1.4,0,0,0-1.2.8,3.8,3.8,0,0,0-.6,2.4,2.2,2.2,0,0,0,.2,1,.5.5,0,0,0,.5.3,1.1,1.1,0,0,0,.7-.3A3.2,3.2,0,0,0,58.7,13.4Z" fill="#59a9db"/>
    <path d="M64.7,9.3h.7l-.5,6H64v-.9h0a6,6,0,0,1-.8.8l-1,.2a1,1,0,0,1-.9-.4,2.5,2.5,0,0,1-.4-1.6,4.5,4.5,0,0,1,.9-3,2.4,2.4,0,0,1,1.9-1.1h.9Zm-.5,4.1.3-3.4h-.8a1.4,1.4,0,0,0-1.2.8,3.8,3.8,0,0,0-.6,2.4,2.2,2.2,0,0,0,.2,1,.5.5,0,0,0,.5.3,1.1,1.1,0,0,0,.7-.3A3.2,3.2,0,0,0,64.2,13.4Z" fill="#59a9db"/>
    <path d="M69.6,9.3v.9h-.3a1.1,1.1,0,0,0-.7.3,3.1,3.1,0,0,0-.7.9l-.4,3.9h-.8l.5-5.8h.8v1.1h.1a1.7,1.7,0,0,1,.7-.9.9.9,0,0,1,.7-.3h.3Z" fill="#59a9db"/>
    <path d="M70,10V9.3h.7V8.1h.9l-.2,1.3h1.2V10H71.4l-.3,3.5a.9.9,0,0,0,.1.8c.1.2.2.2.4.2h.8v.7l-.5.2h-.6a1,1,0,0,1-.9-.4,2.6,2.6,0,0,1-.2-1.4l.4-3.5Z" fill="#59a9db"/>
    <path d="M73,15.2v-.9l.7.2h.7a1.1,1.1,0,0,0,.8-.2.7.7,0,0,0,.4-.6.8.8,0,0,0-.2-.5l-.5-.5-.6-.4a1.7,1.7,0,0,1-.6-.6,1,1,0,0,1-.2-.7A2.1,2.1,0,0,1,74,9.7a2.4,2.4,0,0,1,1.4-.5h1.2v.8H75.4l-.8.2a.9.9,0,0,0-.3.6c0,.2.1.3.1.5l.5.4.6.3.7.7a1.1,1.1,0,0,1,.3.8,1.6,1.6,0,0,1-.7,1.3,2.5,2.5,0,0,1-1.5.5H73Z" fill="#59a9db"/>
  </g>
</svg>
