<svg id="5778a3d9-913d-44c1-9d06-18f52e0e9294" data-name="Layer 1" xmlns="http://www.w3.org/2000/svg" viewBox="0 0 96 24">
  <title>stroomopwaarts</title>
  <g>
    <path d="M87.2,0c0,1.6-1.9,1.6-1.9,3.2s1.9,1.6,1.9,3.2-1.9,1.5-1.9,3.1,1.9,1.6,1.9,3.2-1.9,1.6-1.9,3.2,1.9,1.6,1.9,3.2" fill="none" stroke="#59a9db" stroke-miterlimit="10" stroke-width="1.5"/>
    <g>
      <line x1="87.2" y1="19.1" x2="87.2" y2="20.8" fill="none" stroke="#59a9db" stroke-miterlimit="10" stroke-width="1.5"/>
      <polygon points="84.9 20.1 87.2 24 89.4 20.1 84.9 20.1" fill="#59a9db"/>
    </g>
  </g>
  <g>
    <path d="M8.4,15.2v-.9l.7.2h.7c.4,0,.7,0,.9-.2a.9.9,0,0,0,.3-.6.7.7,0,0,0-.1-.5c-.1-.2-.3-.3-.6-.5l-.6-.4-.6-.6a1.9,1.9,0,0,1-.2-.7,1.8,1.8,0,0,1,.6-1.3,2.2,2.2,0,0,1,1.4-.5H12v.8H10.8l-.7.2a.9.9,0,0,0-.3.6.9.9,0,0,0,.1.5l.4.4.6.3a2.9,2.9,0,0,1,.8.7,1.9,1.9,0,0,1,.2.8,1.8,1.8,0,0,1-.6,1.3,2.8,2.8,0,0,1-1.6.5H8.4Z" fill="#59a9db"/>
    <path d="M12.9,10V9.3h.7V8.1h.9l-.2,1.3h1.3V10H14.4L14,13.5c0,.4,0,.7.1.8s.2.2.4.2h.9v.7l-.5.2h-.6a1,1,0,0,1-.9-.4,1.9,1.9,0,0,1-.2-1.4l.3-3.5Z" fill="#59a9db"/>
    <path d="M19.4,9.3v.9H19a1.1,1.1,0,0,0-.7.3,3.1,3.1,0,0,0-.7.9l-.4,3.9h-.8l.5-5.8h.8v1.1h.1a1.7,1.7,0,0,1,.7-.9l.6-.3h.4Z" fill="#59a9db"/>
    <path d="M21.7,15.3a2.2,2.2,0,0,1-1.4-.5,2.6,2.6,0,0,1-.5-1.9,4.1,4.1,0,0,1,.7-2.7,2.4,2.4,0,0,1,1.9-1,1.8,1.8,0,0,1,1.4.6,3,3,0,0,1,.5,1.8,3.6,3.6,0,0,1-.8,2.7A2.1,2.1,0,0,1,21.7,15.3Zm-1-2.5a2.2,2.2,0,0,0,.3,1.4.9.9,0,0,0,.8.4,1.5,1.5,0,0,0,1.1-.7,3.3,3.3,0,0,0,.5-2.1,2.4,2.4,0,0,0-.3-1.4,1,1,0,0,0-.9-.4,1.3,1.3,0,0,0-1,.7A3.3,3.3,0,0,0,20.7,12.8Z" fill="#59a9db"/>
    <path d="M27.3,15.3a2.2,2.2,0,0,1-1.4-.5,2.6,2.6,0,0,1-.5-1.9,4.1,4.1,0,0,1,.7-2.7,2.4,2.4,0,0,1,1.9-1,1.8,1.8,0,0,1,1.4.6,2.4,2.4,0,0,1,.5,1.8,3.6,3.6,0,0,1-.8,2.7A2.1,2.1,0,0,1,27.3,15.3Zm-1-2.5a2.2,2.2,0,0,0,.3,1.4.9.9,0,0,0,.8.4,1.5,1.5,0,0,0,1.1-.7,3.3,3.3,0,0,0,.5-2.1,2.4,2.4,0,0,0-.3-1.4.9.9,0,0,0-.8-.4,1.3,1.3,0,0,0-1.1.7A3.3,3.3,0,0,0,26.3,12.8Z" fill="#59a9db"/>
    <path d="M31,15.2l.5-5.8h.9v.9h0l.9-.7a1.6,1.6,0,0,1,.9-.3.9.9,0,0,1,.7.3c.2.1.3.4.4.7h0a4.6,4.6,0,0,1,1-.7,1.1,1.1,0,0,1,.8-.3,1.4,1.4,0,0,1,1,.5,2.2,2.2,0,0,1,.2,1.5l-.4,4H37l.3-3.9a1.1,1.1,0,0,0-.1-1l-.4-.2a1.1,1.1,0,0,0-.7.2l-.8.6-.5,4.3H34l.4-3.9a2.8,2.8,0,0,0-.1-1l-.5-.2a.7.7,0,0,0-.6.2,4.6,4.6,0,0,0-1,.7l-.4,4.2Z" fill="#59a9db"/>
    <path d="M41.4,15.3a2,2,0,0,1-1.4-.5,2.5,2.5,0,0,1-.6-1.9,4.1,4.1,0,0,1,.8-2.7,2.1,2.1,0,0,1,1.8-1,2,2,0,0,1,1.5.6,3,3,0,0,1,.5,1.8,4.1,4.1,0,0,1-.8,2.7A2.1,2.1,0,0,1,41.4,15.3Zm-1.1-2.5c0,.7.1,1.2.4,1.4a.9.9,0,0,0,.8.4,1.5,1.5,0,0,0,1.1-.7,4.1,4.1,0,0,0,.5-2.1,2.4,2.4,0,0,0-.3-1.4,1,1,0,0,0-.9-.4c-.4,0-.7.2-1.1.7A4.1,4.1,0,0,0,40.3,12.8Z" fill="#59a9db"/>
    <path d="M45.7,17.5h-.8l.7-8.1h.9v.9h0a2.8,2.8,0,0,1,.9-.7,1.1,1.1,0,0,1,.8-.3,1.2,1.2,0,0,1,1,.5,2.2,2.2,0,0,1,.4,1.6,4.5,4.5,0,0,1-.9,3,2.6,2.6,0,0,1-2,1h-.7Zm.6-6.4L46,14.5h.6a1.9,1.9,0,0,0,1.4-.8,4,4,0,0,0,.6-2.5,2.5,2.5,0,0,0-.2-1c-.1-.2-.3-.2-.5-.2a1.3,1.3,0,0,0-.8.2Z" fill="#59a9db"/>
    <path d="M51.4,15.2l-.9-5.9h.9l.6,5.1h.1l.2-.5a7.7,7.7,0,0,0,.7-1.6,18.9,18.9,0,0,1,.6-1.8l-.2-1.2h.9l.7,5.1h0l.3-.5a18,18,0,0,0,.8-2.1,16.4,16.4,0,0,0,.4-2.5h.9a13.7,13.7,0,0,1-.5,2.5,22.9,22.9,0,0,1-1,2.3l-.6,1.1h-1l-.5-3.6h0a7.4,7.4,0,0,1-.4,1.4l-.5,1.2-.5,1Z" fill="#59a9db"/>
    <path d="M61.7,9.3h.7l-.6,6H61v-.9h0l-.9.8-.9.2a1.3,1.3,0,0,1-1-.4,3.2,3.2,0,0,1-.3-1.6,5.1,5.1,0,0,1,.8-3,2.7,2.7,0,0,1,2-1.1h.9Zm-.5,4.1.3-3.4h-.8a1.3,1.3,0,0,0-1.2.8,3.8,3.8,0,0,0-.6,2.4c0,.5,0,.9.2,1a.5.5,0,0,0,.5.3l.7-.3A2.2,2.2,0,0,0,61.2,13.4Z" fill="#59a9db"/>
    <path d="M67.2,9.3h.7l-.5,6h-.9v-.9h0l-.9.8-.9.2a1,1,0,0,1-.9-.4,2.4,2.4,0,0,1-.4-1.6,4.5,4.5,0,0,1,.9-3,2.4,2.4,0,0,1,1.9-1.1h.9Zm-.5,4.1L67,10h-.8a1.3,1.3,0,0,0-1.2.8,3.8,3.8,0,0,0-.6,2.4c0,.5,0,.9.2,1a.5.5,0,0,0,.5.3l.7-.3A2.2,2.2,0,0,0,66.7,13.4Z" fill="#59a9db"/>
    <path d="M72.1,9.3v.9h-.3a1.1,1.1,0,0,0-.7.3,3.1,3.1,0,0,0-.7.9l-.4,3.9h-.8l.5-5.8h.8v1.1h.1a1.7,1.7,0,0,1,.7-.9l.6-.3c.1,0,.2,0,.2.1Z" fill="#59a9db"/>
    <path d="M72.5,10V9.3h.7V8.1h.8V9.3h1.2V10H73.9l-.3,3.5a2,2,0,0,0,0,.8c.1.2.3.2.5.2h.8v.7l-.5.2h-.6a1,1,0,0,1-.9-.4,2.6,2.6,0,0,1-.2-1.4l.4-3.5Z" fill="#59a9db"/>
    <path d="M75.5,15.2v-.9l.7.2h.6c.4,0,.7,0,.9-.2s.4-.4.4-.6a.8.8,0,0,0-.2-.5l-.5-.5-.6-.4a1.7,1.7,0,0,1-.6-.6A1,1,0,0,1,76,11a1.7,1.7,0,0,1,.5-1.3,2.4,2.4,0,0,1,1.4-.5h1.2v.8H77.9l-.8.2a.9.9,0,0,0-.3.6.9.9,0,0,0,.1.5l.5.4.6.3.7.7a1.1,1.1,0,0,1,.2.8,1.8,1.8,0,0,1-.6,1.3,2.5,2.5,0,0,1-1.5.5H75.5Z" fill="#59a9db"/>
  </g>
</svg>
