<svg id="6f60fc92-9eb9-4e19-b3c0-28f59ad8bee0" data-name="Layer 1" xmlns="http://www.w3.org/2000/svg" width="240" height="432" viewBox="0 0 240 432">
  <title>vast</title>
  <g>
    <path d="M184.9,395.4l-4.1-3.1-4,3.1c-2.2,1.6-9.8,6.2-16.2,6.2s-13.9-4.5-16.2-6.2l-4-3.1-4.1,3.1c-2.1,1.6-9.7,6.2-16.2,6.2s-13.8-4.5-16.1-6.2l-4.1-3.1-4,3.1c-2.2,1.6-9.8,6.2-16.2,6.2s-13.8-4.5-16.2-6.2l-4-3.1-4.1,3.1c-2.1,1.6-9.7,6.2-16.1,6.2A24.8,24.8,0,0,1,29,398.8V413a34.8,34.8,0,0,0,10.3,1.8c8,0,15.7-3.7,20.2-6.3,4.5,2.6,12.1,6.3,20.2,6.3s15.7-3.7,20.2-6.3c4.5,2.6,12.2,6.3,20.2,6.3s15.8-3.7,20.3-6.3c4.5,2.6,12.1,6.3,20.2,6.3s15.7-3.7,20.2-6.3c4.5,2.6,12.2,6.3,20.2,6.3a32.8,32.8,0,0,0,10-1.7V398.9a23.7,23.7,0,0,1-10,2.7C194.7,401.6,187.2,397.1,184.9,395.4Z" fill="#7dcef1"/>
    <path d="M184.9,365l-4.1-3-4,3c-2.2,1.6-9.8,6.3-16.2,6.3s-13.9-4.5-16.2-6.3l-4-3-4.1,3c-2.1,1.6-9.7,6.3-16.2,6.3s-13.8-4.5-16.1-6.3l-4.1-3-4,3c-2.2,1.6-9.8,6.3-16.2,6.3s-13.8-4.5-16.2-6.3l-4-3-4.1,3c-2.1,1.6-9.7,6.3-16.1,6.3-3.5,0-7.2-1.4-10.3-2.8v14.2a34.7,34.7,0,0,0,10.3,1.7c8,0,15.7-3.6,20.2-6.2,4.5,2.6,12.1,6.2,20.2,6.2s15.7-3.6,20.2-6.2c4.5,2.6,12.2,6.2,20.2,6.2s15.8-3.6,20.3-6.2c4.5,2.6,12.1,6.2,20.2,6.2s15.7-3.6,20.2-6.2c4.5,2.6,12.2,6.2,20.2,6.2a32.7,32.7,0,0,0,10-1.6V368.6c-3,1.4-6.7,2.7-10,2.7C194.7,371.3,187.2,366.8,184.9,365Z" fill="#7dcef1"/>
  </g>
  <polygon points="0 276 18 276 24 420 0 420 0 276" fill="#999"/>
  <rect y="252" width="240" height="24" fill="#373737"/>
  <g id="f22d62a6-ee13-4bb2-8a0f-26fb9dc30908" data-name="brug onderkant">
    <polygon points="240 276 222 276 216 420 240 420 240 276" fill="#999"/>
  </g>
</svg>
