<svg xmlns="http://www.w3.org/2000/svg" width="64" height="32" viewBox="0 0 64 32"><title>CBA</title><path d="M51.7 9.19l-3.65 12.46h2.56L51.3 19h4.22l.68 2.68h2.85L55.42 9.19zm.1 7.81l1.54-5.78h.13L55 17zM41.78 12.32l2.32 2.32h-6.79v1.86h6.79l-2.32 2.34 1.29 1.29 4.58-4.58L43.07 11zM19.63 12.32L22 14.64h-6.83v1.86H22l-2.32 2.34 1.29 1.29 4.58-4.58L20.92 11zM34.54 20.66a3.36 3.36 0 0 0 1.21-2.76 2.56 2.56 0 0 0-.67-1.8 3.35 3.35 0 0 0-1.82-1 3 3 0 0 0 1.4-1 3.07 3.07 0 0 0 .56-1.9 2.58 2.58 0 0 0-1.11-2.2 6 6 0 0 0-3.57-.84h-3.47v12.49h3.88a5.59 5.59 0 0 0 3.59-.99zm-2.39-9.14a1.36 1.36 0 0 1 .48 1.14 1.51 1.51 0 0 1-.57 1.34 2.89 2.89 0 0 1-1.69.41h-.87v-3.27h1a2.8 2.8 0 0 1 1.65.38zm.33 5.14a1.43 1.43 0 0 1 .65 1.24 1.57 1.57 0 0 1-.6 1.33 2.72 2.72 0 0 1-1.68.46H29.5v-3.47h.8a4 4 0 0 1 2.18.44zM12.42 19.66a13.15 13.15 0 0 1-1.34.06 3.73 3.73 0 0 1-2.55-1 4 4 0 0 1-1.14-3.13 4.4 4.4 0 0 1 1.11-3.3 3.67 3.67 0 0 1 2.67-1.09h1.16a10.06 10.06 0 0 1 1.2.16l.17-2.06q-.64-.13-1.19-.19a12.26 12.26 0 0 0-1.25-.06 6.6 6.6 0 0 0-4.56 1.7 6.43 6.43 0 0 0-1.9 5.05 5.54 5.54 0 0 0 1.77 4.49A6.56 6.56 0 0 0 11 21.78a13.84 13.84 0 0 0 1.45-.06 12.25 12.25 0 0 0 1.32-.25v-2q-.77.13-1.35.19z"/></svg>