<svg xmlns="http://www.w3.org/2000/svg" width="380" height="448" viewBox="0 0 380 448"><title>compass-left-west</title><path d="M361.18 76.82L224 214 86.82 76.82c75.77-75.76 198.6-75.76 274.36 0z" fill="#f5f5f5"/><path fill="#dcdcdc" d="M224 0l11.62 27.63 11.63 27.64h-46.5l11.63-27.64L224 0zM226.7 99l-9.25-26.5h-.3V99h-5.75V66.16h9.9l9.3 26.5h.3v-26.5h5.75V99z"/><path d="M214 224L76.82 361.18c-75.76-75.76-75.76-198.6 0-274.36z" fill="#b9c6d5"/><path fill="#154573" d="M0 224l27.63-11.62 27.64-11.63v46.5l-27.64-11.63L0 224zM76.25 240.78L67.8 208H75l6.2 26.8h.3l6.35-20-2.05-6.8h7l7.75 26.8h.3l6.05-26.8h6.7l-8.5 32.8h-9l-5.25-18.45h-.25L85 240.78z"/></svg>