<svg id="bbb82258-e060-4832-9706-39fe0b1f7c66" data-name="Layer 1" xmlns="http://www.w3.org/2000/svg" width="64" height="32" viewBox="0 0 64 32"><title>down-up</title><rect x="1.38" y="10.29" width="60.79" height="10.36" transform="translate(-2.33 6.22) rotate(-10.79)" fill="none"/><path d="M14.58,13.47l-1.82,4.68c.63-.09,1.17-.15,1.6-.17a17.63,17.63,0,0,1,3.57.36,15.06,15.06,0,0,0,4.19.33l.24-.06a9.9,9.9,0,0,0,2.89-2.48c1.42-1.51,2.76-2.93,4.3-3.23s3.18.54,5,1.42c1.27.62,2.87,1.4,3.66,1.25s2-1.46,2.95-2.51c1.35-1.48,2.63-2.88,4.12-3.16s3.19.54,5,1.42c1.28.62,2.88,1.4,3.67,1.25S56,11.08,57,10c1.28-1.35,2.48-2.63,3.81-3l.58,1.72a10,10,0,0,0-2.89,2.48c-1.42,1.5-2.76,2.93-4.29,3.23s-3.19-.55-5-1.42c-1.28-.63-2.88-1.41-3.67-1.26s-2,1.46-2.95,2.52C41.29,15.7,40,17.1,38.52,17.38s-3.19-.55-5-1.42c-1.28-.63-2.88-1.41-3.66-1.26s-2.12,1.51-3.14,2.6c-1.27,1.36-2.47,2.64-3.81,3.05l-.44.11a15.8,15.8,0,0,1-5-.32,17.16,17.16,0,0,0-3.11-.33c-.35,0-.79.07-1.34.15l3.54,3.68L1.94,21.27l12.64-7.79" fill="#177bc0"/></svg>