<svg id="8fc5f86f-2a19-49e9-b874-b5a5f1e5075f" data-name="Layer 1" xmlns="http://www.w3.org/2000/svg" width="120" height="288" viewBox="0 0 120 288">
  <title>groen-rood</title>
  <g>
    <g>
      <path d="M90.65,237.68c1.58,0,1.58-.89,3.17-.89s1.58.89,3.17.89,1.58-.89,3.17-.89,1.59.89,3.17.89c1.18,0,1.48-.49,2.21-.74l.66-11.45-14.13-1.24L90.5,237.67Z" fill="#d42e27"/>
      <path d="M87.6,237c1.59,0,1.59.9,3.17.9s1.59-.9,3.17-.9,1.59.9,3.18.9,1.58-.9,3.16-.9,1.59.9,3.18.9,1.58-.9,3.17-.9,1.59.9,3.17.9" fill="none" stroke="#7fcef0" stroke-miterlimit="10"/>
    </g>
    <g>
      <path d="M14.71,237.68c1.58,0,1.58-.89,3.17-.89s1.59.89,3.17.89,1.59-.89,3.17-.89,1.59.89,3.17.89c1.24,0,1.51-.54,2.32-.78l.34-3.87-6.85-8.16L15,231.72l-.52,5.95Z" fill="#3a8840"/>
      <path d="M11.66,237c1.59,0,1.59.9,3.17.9s1.59-.9,3.17-.9,1.59.9,3.18.9,1.58-.9,3.16-.9,1.59.9,3.18.9,1.58-.9,3.17-.9,1.59.9,3.17.9" fill="none" stroke="#7fcef0" stroke-miterlimit="10"/>
    </g>
  </g>
</svg>
