<svg id="bb4208f5-f85f-4b20-bf78-3e8b8e031a8a" data-name="Layer 1" xmlns="http://www.w3.org/2000/svg" width="120" height="288" viewBox="0 0 120 288">
  <title>groen-rood</title>
  <g>
    <g>
      <path d="M90.65,237.68c1.58,0,1.58-.89,3.17-.89s1.58.89,3.17.89,1.58-.89,3.17-.89,1.59.89,3.17.89c1.18,0,1.48-.49,2.21-.74l.66-11.45-14.13-1.24L90.5,237.67Z" fill="#d42e27"/>
      <path d="M87.6,237c1.59,0,1.59.9,3.17.9s1.59-.9,3.17-.9,1.59.9,3.18.9,1.58-.9,3.16-.9,1.59.9,3.18.9,1.58-.9,3.17-.9,1.59.9,3.17.9" fill="none" stroke="#7fcef0" stroke-miterlimit="10"/>
    </g>
    <g>
      <path d="M14.71,237.68c1.58,0,1.58-.89,3.17-.89s1.59.89,3.17.89,1.59-.89,3.17-.89,1.59.89,3.17.89c1.24,0,1.51-.54,2.32-.78l.34-3.87-6.85-8.16L15,231.72l-.52,5.95Z" fill="#3a8840"/>
      <path d="M11.66,237c1.59,0,1.59.9,3.17.9s1.59-.9,3.17-.9,1.59.9,3.18.9,1.58-.9,3.16-.9,1.59.9,3.18.9,1.58-.9,3.17-.9,1.59.9,3.17.9" fill="none" stroke="#7fcef0" stroke-miterlimit="10"/>
    </g>
  </g>
  <g>
    <g>
      <path d="M94.17,54.05c.9,0,.9-.51,1.79-.51s.89.51,1.78.51.89-.51,1.78-.51.9.51,1.79.51c.66,0,.83-.28,1.24-.42l.37-6.44-8-.7L94.09,54Z" fill="#d42e27"/>
      <path d="M92.46,53.68c.89,0,.89.5,1.78.5s.9-.5,1.79-.5.89.5,1.78.5.89-.5,1.78-.5.9.5,1.79.5.89-.5,1.78-.5.9.5,1.79.5" fill="none" stroke="#7fcef0" stroke-miterlimit="10"/>
    </g>
    <g>
      <path d="M18.23,54.18c.9,0,.9-.5,1.79-.5s.89.5,1.78.5.89-.5,1.78-.5.9.5,1.79.5c.69,0,.85-.3,1.3-.44l.19-2.17L23,47l-4.6,3.86-.29,3.35Z" fill="#3a8840"/>
      <path d="M16.52,53.82c.89,0,.89.5,1.78.5s.9-.5,1.79-.5.89.5,1.78.5.89-.5,1.78-.5.9.5,1.79.5.89-.5,1.78-.5.9.5,1.79.5" fill="none" stroke="#7fcef0" stroke-miterlimit="10"/>
    </g>
  </g>
</svg>
