<svg data-name="Layer 1" xmlns="http://www.w3.org/2000/svg" xmlns:xlink="http://www.w3.org/1999/xlink" viewBox="0 0 72 72"><defs><symbol id="a" data-name="New Symbol" viewBox="0 0 42.51 45"><path fill="none" stroke="#d52b1e" stroke-miterlimit="10" stroke-width="2" d="M41.71 30.21l-3-4h-34l-4 4M1.71 15.21l2.92 4h33.86l2.92-4"/><path d="M21.71 28.21V45"/><path fill="none" stroke="#007bc7" stroke-miterlimit="10" stroke-width="2" d="M21.71 28.21v8.43"/><path fill="#007bc7" d="M16.52 32.71l5.18 2.2 5.19-2.2L21.7 45l-5.18-12.29z"/><path d="M21.71 0v17.21"/><path fill="none" stroke="#007bc7" stroke-miterlimit="10" stroke-width="2" d="M21.71 4.05v13.16"/><circle cx="21.71" cy="4.26" r="3.76" fill="#fff"/><path d="M17.45 4.26A4.26 4.26 0 1 0 21.71 0a4.26 4.26 0 0 0-4.26 4.26zm7.52 0A3.26 3.26 0 1 1 21.71 1 3.26 3.26 0 0 1 25 4.26z" fill="#007bc7"/></symbol></defs><title>network-dir-W-brug</title><text transform="translate(1.49 42.09)" font-size="18" font-family="RijksoverheidSansWebText-Bold, RijksoverheidSansWebText" font-weight="700">W</text><use width="42.51" height="45" transform="rotate(-90 39.625 17.625)" xlink:href="#a"/></svg>