<svg id="Layer_1" data-name="Layer 1" xmlns="http://www.w3.org/2000/svg" viewBox="0 0 40 288"><defs><style>.cls-1{fill:#808285;}</style></defs><title>network-W-O</title><path class="cls-1" d="M13.5,286.48,9.7,271.72H13l2.79,12.06h.13l2.86-9-.95-3.06H21l3.48,12.06h.14l2.72-12.06h3l-3.82,14.76H22.43l-2.36-8.31H20l-2.5,8.31Z"/><path class="cls-1" d="M12.94,9.2A7.41,7.41,0,0,1,15.1,3.46a7.3,7.3,0,0,1,5.07-2A7,7,0,0,1,25,3.31c1.35,1.21,2,3.09,2,5.62a7.42,7.42,0,0,1-2.14,5.74,7.19,7.19,0,0,1-5,2A7.11,7.11,0,0,1,15,14.83C13.61,13.61,12.94,11.74,12.94,9.2ZM16,9a5.37,5.37,0,0,0,1.19,3.92A3.88,3.88,0,0,0,20,14a4,4,0,0,0,2.74-1.15A4.79,4.79,0,0,0,24,9.18a5.46,5.46,0,0,0-1.18-3.93A3.85,3.85,0,0,0,20,4.07a4,4,0,0,0-2.77,1.16A4.87,4.87,0,0,0,16,9Z"/></svg>