<svg data-name="Layer 1" xmlns="http://www.w3.org/2000/svg" viewBox="0 0 40 288"><title>network-W-O</title><path d="M14.8 14.81L11.76 3h2.61l2.23 9.65h.11L19 5.45 18.24 3h2.52l2.79 9.65h.11L25.83 3h2.41l-3.06 11.81h-3.24l-1.89-6.64H20l-2 6.64zM14.35 279a5.9 5.9 0 0 1 1.73-4.59 5.82 5.82 0 0 1 4.05-1.58 5.62 5.62 0 0 1 3.9 1.46 5.76 5.76 0 0 1 1.62 4.5 5.94 5.94 0 0 1-1.72 4.59 5.75 5.75 0 0 1-4 1.58 5.68 5.68 0 0 1-3.93-1.42 5.75 5.75 0 0 1-1.65-4.54zm2.45-.2a4.29 4.29 0 0 0 .95 3.13 3.11 3.11 0 0 0 2.27.94 3.19 3.19 0 0 0 2.18-.87 3.86 3.86 0 0 0 1-3 4.35 4.35 0 0 0-.94-3.14 3.06 3.06 0 0 0-2.26-.94 3.18 3.18 0 0 0-2.22.93 3.91 3.91 0 0 0-.98 2.99z" fill="#808285"/></svg>