<svg id="Layer_1" data-name="Layer 1" xmlns="http://www.w3.org/2000/svg" viewBox="0 0 40 288"><defs><style>.cls-1{fill:#808285;}</style></defs><title>network-O-W</title><path class="cls-1" d="M13.5,16.28,9.7,1.52H13l2.79,12.06h.13l2.86-9-.95-3.06H21l3.48,12.06h.14L27.29,1.52h3L26.48,16.28H22.43L20.07,8H20l-2.5,8.3Z"/><path class="cls-1" d="M12.94,279.07a7.39,7.39,0,0,1,2.16-5.74,7.3,7.3,0,0,1,5.07-2A7,7,0,0,1,25,273.17c1.35,1.22,2,3.09,2,5.63a7.43,7.43,0,0,1-2.14,5.74,7.19,7.19,0,0,1-5,2A7.07,7.07,0,0,1,15,284.69C13.61,283.48,12.94,281.6,12.94,279.07Zm3.05-.25a5.37,5.37,0,0,0,1.19,3.92A3.88,3.88,0,0,0,20,283.91a4,4,0,0,0,2.74-1.15A4.81,4.81,0,0,0,24,279.05a5.46,5.46,0,0,0-1.18-3.93A3.81,3.81,0,0,0,20,273.94a4,4,0,0,0-2.77,1.16A4.87,4.87,0,0,0,16,278.82Z"/></svg>