<svg data-name="Layer 1" xmlns="http://www.w3.org/2000/svg" viewBox="0 0 40 288"><title>network-O-W</title><path d="M14.8 285l-3-11.81h2.61l2.23 9.65h.11l2.29-7.2-.76-2.45h2.52l2.79 9.65h.11l2.18-9.65h2.41L25.18 285h-3.24l-1.89-6.64H20L18 285zM14.35 9.17a5.9 5.9 0 0 1 1.73-4.59A5.82 5.82 0 0 1 20.13 3 5.62 5.62 0 0 1 24 4.46 5.76 5.76 0 0 1 25.65 9a5.94 5.94 0 0 1-1.72 4.59 5.75 5.75 0 0 1-4 1.58 5.68 5.68 0 0 1-3.93-1.5 5.75 5.75 0 0 1-1.65-4.5zM16.8 9a4.29 4.29 0 0 0 .95 3.13A3.11 3.11 0 0 0 20 13a3.19 3.19 0 0 0 2.19-.92 3.86 3.86 0 0 0 1-3A4.35 4.35 0 0 0 22.27 6 3.06 3.06 0 0 0 20 5.07a3.18 3.18 0 0 0-2.21.93 3.91 3.91 0 0 0-.99 3z" fill="#808285"/></svg>