<svg id="e92f0f54-3785-4b19-b624-7edd181dab2d" data-name="Layer 1" xmlns="http://www.w3.org/2000/svg" width="80" height="288" viewBox="0 0 80 288">
  <title>omhoog</title>
  <g>
    <path d="M6.79,36.47a4.84,4.84,0,0,0,1.36.19c.73,0,1.27-.41,1.27-.91s-.18-.69-.75-1.08l-.55-.37A1.59,1.59,0,0,1,7.29,33,1.79,1.79,0,0,1,9.2,31.29a6.48,6.48,0,0,1,1.15.11l-.07.69A5.06,5.06,0,0,0,9.15,32,1,1,0,0,0,8,32.82c0,.4.15.63.6.9l.58.36a1.69,1.69,0,0,1,1,1.5,2,2,0,0,1-2.13,1.78,4.29,4.29,0,0,1-1.3-.16Z" fill="#187bc0"/>
    <path d="M11.21,31.4h.68L12,30.15l.75-.13-.15,1.38h1.22l-.07.62H12.55l-.36,3.55c-.08.85.12,1.09.53,1.09a2.25,2.25,0,0,0,.85-.15v.68a2.78,2.78,0,0,1-1.06.17c-.79,0-1.2-.47-1.06-1.74l.37-3.6h-.61Z" fill="#187bc0"/>
    <path d="M17.36,32.1a1.67,1.67,0,0,0-.32,0c-.47,0-1,.47-1.44,1.24l-.34,3.93h-.74l.48-5.8.74-.11-.09,1.11h0c.58-1,.93-1.16,1.39-1.16a.94.94,0,0,1,.39.07Z" fill="#187bc0"/>
    <path d="M17.73,35c0-2.4,1.19-3.69,2.57-3.69,1.2,0,1.92.81,1.92,2.39,0,2.31-1.21,3.68-2.56,3.68C18.46,37.36,17.73,36.69,17.73,35Zm2,1.71c.84,0,1.69-.9,1.69-2.89,0-1.28-.45-1.83-1.24-1.83s-1.66,1-1.66,2.91C18.53,36.27,19,36.69,19.74,36.69Z" fill="#187bc0"/>
    <path d="M23.22,35c0-2.4,1.18-3.69,2.57-3.69,1.19,0,1.91.81,1.91,2.39,0,2.31-1.21,3.68-2.55,3.68S23.22,36.69,23.22,35Zm2,1.71c.84,0,1.69-.9,1.69-2.89,0-1.28-.44-1.83-1.23-1.83S24,32.94,24,34.88C24,36.27,24.51,36.69,25.22,36.69Z" fill="#187bc0"/>
    <path d="M29.27,31.45l.74-.11-.09.92h0c.7-.7,1.16-1,1.75-1a1.06,1.06,0,0,1,1.13,1h0a2.63,2.63,0,0,1,1.81-1c.81,0,1.31.5,1.17,2l-.39,4H34.7l.37-3.89c.1-1-.17-1.35-.56-1.35a2.82,2.82,0,0,0-1.61.9l-.42,4.34h-.76l.38-3.89c.09-1-.13-1.35-.54-1.35s-.92.31-1.69,1l-.38,4.25h-.75Z" fill="#187bc0"/>
    <path d="M41.31,31.27l-.54,6H40l.08-.92h0a2.13,2.13,0,0,1-1.74,1c-.78,0-1.31-.53-1.31-2,0-2.61,1.32-4,2.72-4a3.67,3.67,0,0,1,.9.1Zm-.8.73a4,4,0,0,0-.8-.08c-.93,0-1.89,1.18-1.89,3.36,0,1,.32,1.39.74,1.39s1-.39,1.64-1.19Z" fill="#187bc0"/>
    <path d="M45.12,31.4,45,32H43.86l-.7,7.52h-.74l.7-7.52h-.58V31.4h.63l.07-.72a1.91,1.91,0,0,1,1.88-1.83,4.73,4.73,0,0,1,.93.09l-.08.65a6,6,0,0,0-.91-.06A1.09,1.09,0,0,0,44,30.67l-.08.73Z" fill="#187bc0"/>
    <path d="M45.29,31.4h.8l.71,5.11h0L47.1,36a23.13,23.13,0,0,0,1.28-3.41l-.16-1.18H49l.69,5.11h0L50,36a12.23,12.23,0,0,0,1.31-4.6h.78a12.74,12.74,0,0,1-1.52,4.81l-.58,1H49.1l-.54-3.54h0a12,12,0,0,1-.94,2.52l-.52,1h-.85Z" fill="#187bc0"/>
    <path d="M56.9,31.27l-.54,6h-.73l.08-.92h0a2.14,2.14,0,0,1-1.74,1c-.78,0-1.31-.53-1.31-2,0-2.61,1.32-4,2.72-4a3.73,3.73,0,0,1,.9.1Zm-.8.73a4,4,0,0,0-.81-.08c-.92,0-1.88,1.18-1.88,3.36,0,1,.32,1.39.74,1.39s1-.39,1.63-1.19Z" fill="#187bc0"/>
    <path d="M62.25,31.27l-.54,6H61l.08-.92h0a2.13,2.13,0,0,1-1.74,1c-.78,0-1.31-.53-1.31-2,0-2.61,1.32-4,2.72-4a3.67,3.67,0,0,1,.9.1Zm-.8.73a4,4,0,0,0-.81-.08c-.92,0-1.88,1.18-1.88,3.36,0,1,.32,1.39.74,1.39s1-.39,1.63-1.19Z" fill="#187bc0"/>
    <path d="M66.25,32.1a1.72,1.72,0,0,0-.33,0c-.46,0-1,.47-1.44,1.24l-.33,3.93h-.74l.47-5.8.75-.11-.1,1.11h0c.57-1,.92-1.16,1.39-1.16a.89.89,0,0,1,.38.07Z" fill="#187bc0"/>
    <path d="M66.64,31.4h.69l.13-1.25.75-.13-.15,1.38h1.22l-.07.62H68l-.36,3.55c-.09.85.12,1.09.53,1.09a2.25,2.25,0,0,0,.85-.15v.68a2.78,2.78,0,0,1-1.06.17c-.79,0-1.2-.47-1.07-1.74l.38-3.6h-.62Z" fill="#187bc0"/>
    <path d="M69.49,36.47a4.84,4.84,0,0,0,1.36.19c.73,0,1.27-.41,1.27-.91s-.18-.69-.75-1.08l-.55-.37A1.59,1.59,0,0,1,70,33a1.79,1.79,0,0,1,1.91-1.68,6.48,6.48,0,0,1,1.15.11l-.07.69A5.06,5.06,0,0,0,71.85,32a1,1,0,0,0-1.11.85c0,.4.15.63.6.9l.58.36a1.69,1.69,0,0,1,1,1.5,2,2,0,0,1-2.13,1.78,4.29,4.29,0,0,1-1.3-.16Z" fill="#187bc0"/>
  </g>
  <g>
    <path d="M5.52,256.22a4.84,4.84,0,0,0,1.36.19c.73,0,1.27-.41,1.27-.91s-.18-.7-.74-1.08l-.55-.37A1.56,1.56,0,0,1,6,252.72,1.79,1.79,0,0,1,7.94,251a6.57,6.57,0,0,1,1.15.11l-.08.69a4.91,4.91,0,0,0-1.12-.12c-.65,0-1.12.4-1.12.85s.16.63.6.9l.59.36a1.69,1.69,0,0,1,1,1.5,2,2,0,0,1-2.12,1.78A4.35,4.35,0,0,1,5.5,257Z" fill="#187bc0"/>
    <path d="M9.94,251.15h.68l.14-1.25.74-.13-.14,1.38h1.22l-.07.62H11.28l-.36,3.55c-.08.85.12,1.09.53,1.09a2.22,2.22,0,0,0,.85-.15v.68a2.73,2.73,0,0,1-1.05.17c-.79,0-1.2-.47-1.07-1.74l.37-3.6H9.94Z" fill="#187bc0"/>
    <path d="M16.09,251.86a1.12,1.12,0,0,0-.32,0c-.47,0-1,.47-1.44,1.24L14,257h-.75l.48-5.8.75-.11-.1,1.11h0c.57-1,.92-1.16,1.39-1.16a.92.92,0,0,1,.38.07Z" fill="#187bc0"/>
    <path d="M16.47,254.73c0-2.4,1.19-3.69,2.56-3.69,1.2,0,1.92.82,1.92,2.39,0,2.31-1.21,3.68-2.55,3.68S16.47,256.44,16.47,254.73Zm2,1.71c.84,0,1.69-.9,1.69-2.89,0-1.28-.44-1.83-1.23-1.83s-1.67,1-1.67,2.9C17.26,256,17.76,256.44,18.47,256.44Z" fill="#187bc0"/>
    <path d="M22,254.73c0-2.4,1.19-3.69,2.57-3.69,1.2,0,1.92.82,1.92,2.39,0,2.31-1.21,3.68-2.56,3.68C22.68,257.11,22,256.44,22,254.73Zm2,1.71c.83,0,1.69-.9,1.69-2.89,0-1.28-.45-1.83-1.24-1.83s-1.67,1-1.67,2.9C22.74,256,23.25,256.44,24,256.44Z" fill="#187bc0"/>
    <path d="M28,251.2l.74-.11-.08.92h0a2.45,2.45,0,0,1,1.76-1,1.06,1.06,0,0,1,1.12,1h0a2.59,2.59,0,0,1,1.81-1c.8,0,1.3.5,1.16,2l-.38,4h-.76l.37-3.89c.1-1-.16-1.35-.56-1.35a2.85,2.85,0,0,0-1.61.9L31.21,257h-.75l.37-3.89c.1-1-.12-1.35-.54-1.35s-.91.31-1.69,1L28.23,257h-.76Z" fill="#187bc0"/>
    <path d="M35.79,254.73c0-2.4,1.18-3.69,2.56-3.69,1.2,0,1.92.82,1.92,2.39,0,2.31-1.21,3.68-2.55,3.68S35.79,256.44,35.79,254.73Zm2,1.71c.84,0,1.69-.9,1.69-2.89,0-1.28-.44-1.83-1.23-1.83s-1.67,1-1.67,2.9C36.58,256,37.08,256.44,37.79,256.44Z" fill="#187bc0"/>
    <path d="M41.09,259.29l.73-8.09.77-.11-.12,1h0a2.24,2.24,0,0,1,1.76-1c.79,0,1.33.55,1.33,2,0,2.68-1.41,4-2.85,4A2.16,2.16,0,0,1,42,257l-.22,2.29Zm1-2.89a2.43,2.43,0,0,0,.66.07c1,0,2.07-1,2.07-3.36,0-1-.33-1.35-.77-1.35a2.84,2.84,0,0,0-1.63,1.13Z" fill="#187bc0"/>
    <path d="M46.55,251.15h.81l.7,5.11h0l.26-.52a23.09,23.09,0,0,0,1.29-3.41l-.16-1.18h.77l.68,5.11h0l.25-.51a12.6,12.6,0,0,0,1.31-4.6h.78A12.76,12.76,0,0,1,51.79,256l-.57,1h-.85l-.54-3.54h0a11.47,11.47,0,0,1-.93,2.52l-.52,1H47.5Z" fill="#187bc0"/>
    <path d="M58.16,251l-.54,6h-.73l.09-.92h0a2.13,2.13,0,0,1-1.74,1c-.78,0-1.31-.53-1.31-2,0-2.61,1.32-4,2.73-4a4.47,4.47,0,0,1,.9.09Zm-.8.73a4,4,0,0,0-.8-.08c-.93,0-1.89,1.18-1.89,3.36,0,1,.33,1.39.75,1.39s1-.39,1.63-1.2Z" fill="#187bc0"/>
    <path d="M63.52,251,63,257h-.73l.08-.92h0a2.13,2.13,0,0,1-1.74,1c-.77,0-1.3-.53-1.3-2,0-2.61,1.32-4,2.72-4a4.39,4.39,0,0,1,.9.09Zm-.81.73a3.87,3.87,0,0,0-.8-.08C61,251.67,60,252.85,60,255c0,1,.32,1.39.74,1.39s1-.39,1.63-1.2Z" fill="#187bc0"/>
    <path d="M67.51,251.86a1.12,1.12,0,0,0-.32,0c-.47,0-1,.47-1.44,1.24L65.41,257h-.74l.48-5.8.74-.11-.09,1.11h0c.58-1,.93-1.16,1.4-1.16a.92.92,0,0,1,.38.07Z" fill="#187bc0"/>
    <path d="M67.91,251.15h.68l.14-1.25.74-.13-.14,1.38h1.22l-.07.62H69.25l-.36,3.55c-.08.85.12,1.09.53,1.09a2.22,2.22,0,0,0,.85-.15v.68a2.69,2.69,0,0,1-1,.17c-.79,0-1.2-.47-1.07-1.74l.37-3.6h-.61Z" fill="#187bc0"/>
    <path d="M70.75,256.22a4.84,4.84,0,0,0,1.36.19c.73,0,1.27-.41,1.27-.91s-.18-.7-.74-1.08l-.55-.37a1.56,1.56,0,0,1-.83-1.33A1.79,1.79,0,0,1,73.17,251a6.57,6.57,0,0,1,1.15.11l-.07.69a5.06,5.06,0,0,0-1.13-.12c-.65,0-1.12.4-1.12.85s.16.63.6.9l.59.36a1.69,1.69,0,0,1,1,1.5A2,2,0,0,1,72,257.11a4.35,4.35,0,0,1-1.31-.16Z" fill="#187bc0"/>
  </g>
</svg>
