<svg id="3cfb06a0-750b-41bd-a33a-078d97aa87f1" data-name="Layer 1" xmlns="http://www.w3.org/2000/svg" width="120" height="288" viewBox="0 0 120 288">
  <title>rood-groen</title>
  <g>
    <g>
      <path d="M14,237.68c1.59,0,1.59-.89,3.17-.89s1.59.89,3.18.89,1.58-.89,3.16-.89,1.59.89,3.18.89c1.17,0,1.48-.49,2.2-.74l.67-11.45L15.4,224.25l-1.58,13.42Z" fill="#d42e27"/>
      <path d="M10.93,237c1.59,0,1.59.9,3.17.9s1.59-.9,3.17-.9,1.59.9,3.17.9,1.59-.9,3.17-.9,1.59.9,3.17.9,1.59-.9,3.18-.9,1.58.9,3.17.9" fill="none" stroke="#7fcef0" stroke-miterlimit="10"/>
    </g>
    <g>
      <path d="M89.91,237.68c1.59,0,1.59-.89,3.17-.89s1.59.89,3.18.89,1.58-.89,3.16-.89,1.59.89,3.18.89c1.23,0,1.51-.54,2.31-.78l.34-3.87-6.85-8.16-8.16,6.85-.52,5.95Z" fill="#3a8840"/>
      <path d="M86.87,237c1.58,0,1.58.9,3.17.9s1.58-.9,3.17-.9,1.59.9,3.17.9,1.59-.9,3.17-.9,1.59.9,3.17.9,1.59-.9,3.18-.9,1.58.9,3.17.9" fill="none" stroke="#7fcef0" stroke-miterlimit="10"/>
    </g>
  </g>
  <g>
    <g>
      <path d="M17.5,54.05c.89,0,.89-.51,1.78-.51s.89.51,1.79.51.89-.51,1.78-.51.89.51,1.78.51c.66,0,.84-.28,1.24-.42l.38-6.44-7.95-.7L17.41,54Z" fill="#d42e27"/>
      <path d="M15.79,53.68c.89,0,.89.5,1.78.5s.89-.5,1.78-.5.89.5,1.79.5.89-.5,1.78-.5.89.5,1.78.5.9-.5,1.79-.5.89.5,1.78.5" fill="none" stroke="#7fcef0" stroke-miterlimit="10"/>
    </g>
    <g>
      <path d="M93.44,54.18c.89,0,.89-.5,1.78-.5s.89.5,1.79.5.89-.5,1.78-.5.89.5,1.78.5c.7,0,.85-.3,1.31-.44l.19-2.17L98.21,47l-4.59,3.86-.29,3.35Z" fill="#3a8840"/>
      <path d="M91.73,53.82c.89,0,.89.5,1.78.5s.89-.5,1.78-.5.89.5,1.79.5.89-.5,1.78-.5.89.5,1.78.5.9-.5,1.79-.5.89.5,1.78.5" fill="none" stroke="#7fcef0" stroke-miterlimit="10"/>
    </g>
  </g>
</svg>
