<svg xmlns="http://www.w3.org/2000/svg" viewBox="0 0 299 768"><title>roos-links</title><path d="M256 149C126.21 149 21 254.21 21 384s105.21 235 235 235z" fill="#e5f0f9"/><path fill="#cce0f1" d="M256 128l11.62 27.63 11.63 27.64h-46.5l11.63-27.64L256 128zM74.98 202.98l27.76 11.32 27.76 11.32-16.44 16.44-16.44 16.44-11.32-27.76-11.32-27.76zM0 384l27.63-11.62 27.64-11.63v46.5l-27.64-11.63L0 384zM74.98 565.02l11.32-27.76 11.32-27.76 16.44 16.44 16.44 16.44-27.76 11.32-27.76 11.32z"/><path d="M258.7 235.33l-9.25-26.5h-.3v26.5h-5.75v-32.8h9.9l9.3 26.5h.3v-26.5h5.75v32.8zM72.67 399.33l-8.45-32.8h7.25l6.2 26.8H78l6.35-20-2.1-6.8h7l7.75 26.8h.3l6.05-26.8H110l-8.5 32.8h-9l-5.25-18.45H87l-5.55 18.45z" fill="#01689b"/></svg>