<svg xmlns="http://www.w3.org/2000/svg" viewBox="0 0 299 768"><title>roos-rechts</title><path d="M43 149v470c129.79 0 235-105.21 235-235S172.79 149 43 149z" fill="#e5f0f9"/><path fill="#cce0f1" d="M43 640l-11.62-27.63-11.63-27.64h46.5l-11.63 27.64L43 640zM224.02 565.02l-27.76-11.32-27.76-11.32 16.44-16.44 16.44-16.44 11.32 27.76 11.32 27.76zM299 384l-27.63 11.62-27.64 11.63v-46.5l27.64 11.63L299 384zM224.02 202.98l-11.32 27.76-11.32 27.76-16.44-16.44-16.44-16.44 27.76-11.32 27.76-11.32z"/><path d="M32.48 537.93v-5.4h21.74v5.15l-15.15 22v.2h15.25v5.4H31.63v-5.15l15.1-22.05v-.2zM201 383.23q0-8.35 4.82-12.75a16.16 16.16 0 0 1 11.26-4.4 15.62 15.62 0 0 1 10.83 4q4.49 4.05 4.49 12.5t-4.77 12.75a16 16 0 0 1-11.21 4.4 15.77 15.77 0 0 1-10.91-4q-4.51-4.05-4.51-12.5zm6.8-.55q0 6.1 2.63 8.7a8.63 8.63 0 0 0 6.29 2.6 8.85 8.85 0 0 0 6.09-2.55q2.78-2.55 2.78-8.25 0-6.1-2.61-8.72a8.51 8.51 0 0 0-6.27-2.62 8.82 8.82 0 0 0-6.17 2.57q-2.72 2.59-2.72 8.27z" fill="#01689b"/></svg>